<?xml version="1.0" encoding="UTF-8"?>
<svg id="Capa_1" data-name="Capa 1" xmlns="http://www.w3.org/2000/svg" viewBox="0 0 500 500">
  <defs>
    <style>
      .cls-1 {
        fill: #1d1d1b;
      }
    </style>
  </defs>
  <path class="cls-1" d="m379.63,11.23H124.73c-12.99,0-23.51,10.53-23.51,23.51v27.28c.15,11.87.3,23.74.45,35.62v2.95h29.65v-60.2h240.79v60.2h7.52c7.76,0,15.53.02,23.29.03.08-7.85.15-15.7.23-23.54v-42.33c0-12.99-10.53-23.51-23.51-23.51Z"/>
  <g>
    <path class="cls-1" d="m464.33,132.67H37.2c-15.04,0-27.22,12.19-27.22,27.22v186.24c0,15.04,12.19,27.22,27.22,27.22h62.6v92.18c0,14.03,11.37,25.4,25.4,25.4h252.55c14.03,0,25.4-11.37,25.4-25.4v-92.18h61.19c15.04,0,27.22-12.19,27.22-27.22v-186.24c0-15.04-12.19-27.22-27.22-27.22Zm-91.29,330.98h-242.67v-90.3h0v-91.18h242.67v129.3h0v52.17Zm59.73-240.85c-16.36,0-29.63-13.27-29.63-29.63s13.27-29.63,29.63-29.63,29.63,13.27,29.63,29.63-13.27,29.63-29.63,29.63Z"/>
    <rect class="cls-1" x="160.47" y="314.1" width="181.53" height="28.22"/>
    <rect class="cls-1" x="160.47" y="373.36" width="150.49" height="30.1"/>
  </g>
</svg>