<?xml version="1.0" encoding="UTF-8"?>
<svg id="Capa_1" data-name="Capa 1" xmlns="http://www.w3.org/2000/svg" viewBox="0 0 320 209.26">
  <defs>
    <style>
      .cls-1 {
        fill: #e84824;
      }

      .cls-2 {
        fill: none;
        stroke: #272d52;
        stroke-miterlimit: 10;
      }

      .cls-3 {
        fill: #262d52;
      }
    </style>
  </defs>
  <path class="cls-1" d="m275.91,4.87H47.65c-4,0-7.25,3.25-7.25,7.25v131.74c0,4,3.25,7.25,7.25,7.25h228.26c4,0,7.25-3.25,7.25-7.25V12.12c0-4-3.25-7.25-7.25-7.25Zm-131.69,6.42c0-1.35,1.09-2.44,2.44-2.44h31.49c1.35,0,2.44,1.09,2.44,2.44v.5c0,1.35-1.09,2.44-2.44,2.44h-31.49c-1.35,0-2.44-1.09-2.44-2.44v-.5Zm127.76,129.04H52V16.47h219.98v123.87Z"/>
  <rect class="cls-2" x="5.72" y="195.56" width="310.96" height="10.47"/>
  <polygon class="cls-3" points="253.65 162.81 272.75 190.36 275.56 190.36 255.13 162.81 253.65 162.81"/>
  <polygon class="cls-3" points="264.01 162.81 285.78 190.36 288 190.36 265.94 162.81 264.01 162.81"/>
  <path class="cls-3" d="m285.27,154.55H39.46L6.88,195.56h309.8l-31.42-41.02Zm-10.45,8.26l3.97,4.56h-30.59l-2.85-4.56h29.47Zm-21.46,15.91h-9.61l-5.78-10.14h9.26l6.12,10.14Zm-9.61-15.91l2.76,4.56h-9.22l.11.18-2.71-4.75h9.07Zm-64.31,27.09H25.25l26.75-32.25h9.75l-1.64,3.76h6.55l3.27-3.27h98.05v3.27h10.8v-2.62h22.1l8.18,25.04h-29.63v6.06Zm27.61,1.15l-1.64-4.91h13.1l-3.27-8.51-3.11-.16-6.71-18.82h20.62l9.99,20.09h-8.51l3.76,7.41h12.44l2.78,4.91h-39.45Zm37.49-10.92h9.65l2.55,4.23h2.05l-2.64-4.23h33.73l-1.22-1.4h-33.38l-6.34-10.14h30.89l-.97-1.11,19.93,22.89h-48.42l-5.83-10.23Z"/>
  <polygon class="cls-3" points="38.73 173.65 184.42 173.78 188.86 173.78 187.87 168.58 204.09 168.58 207.14 177.91 35.2 177.91 38.73 173.65"/>
  <polygon class="cls-3" points="34.37 178.91 207.46 178.91 209.08 183.84 29.13 183.84 34.37 178.91"/>
  <path class="cls-3" d="m40.4,171.64l147.06,1.33c-.33-1.47-.67-2.93-1-4.4l-142.68-1.01-3.38,4.08Z"/>
  <polygon class="cls-3" points="203.75 167.56 44.85 166.28 49.05 161.21 202.1 162.51 203.75 167.56"/>
  <polygon class="cls-3" points="29.13 185.23 179.45 185.23 179.45 189.9 25.25 189.9 29.13 185.23"/>
  <polygon class="cls-3" points="215.26 158.63 228.9 191.05 227.21 191.05 213.99 158.63 215.26 158.63"/>
  <polygon class="cls-3" points="229.54 165.66 208.16 166.32 208.54 167.38 229.96 166.52 229.54 165.66"/>
  <polygon class="cls-3" points="210.32 172.37 232.87 172.37 233.31 173.24 210.32 173.24 210.32 172.37"/>
  <polygon class="cls-3" points="216.46 185.17 239.01 185.17 239.45 186.05 216.46 186.05 216.46 185.17"/>
</svg>