<?xml version="1.0" encoding="UTF-8"?>
<svg id="Capa_1" data-name="Capa 1" xmlns="http://www.w3.org/2000/svg" viewBox="0 0 294.56 311.99">
  <defs>
    <style>
      .cls-1 {
        fill: #e84824;
      }

      .cls-2 {
        fill: #262d52;
      }
    </style>
  </defs>
  <path class="cls-1" d="m281.25,141.22h-15.93v146.41h15.93c4.23,0,7.66-3.43,7.66-7.66v-131.1c0-4.23-3.43-7.66-7.66-7.66Z"/>
  <path class="cls-1" d="m11.4,141.22h4.14s4.14,0,4.14,0h7.66v7.66s0,131.1,0,131.1v7.66h-7.66s-4.14,0-4.14,0h-4.14c-4.23,0-7.66-3.43-7.66-7.66v-131.1c0-4.23,3.43-7.66,7.66-7.66Z"/>
  <path class="cls-2" d="m246.64,139.07H46.01c-4.06,0-7.35,3.29-7.35,7.35v137.84c0,2.03.82,3.87,2.15,5.2,2.1,2.1,4.71,2.15,5.2,2.15,25.23,6.1,58.02,11.6,96.49,11.95,41.96.38,77.49-5.5,104.14-11.95,4.06,0,7.35-3.29,7.35-7.35v-137.84c0-4.06-3.29-7.35-7.35-7.35Zm-100.01,115.78c-27.15,0-49.16-15.84-49.16-35.38s22.01-35.38,49.16-35.38,49.16,15.84,49.16,35.38-22.01,35.38-49.16,35.38Z"/>
  <ellipse class="cls-2" cx="169.15" cy="36.31" rx="33.08" ry="31.7"/>
  <path class="cls-2" d="m213.93,88.11c-10.88-9.54-23.51-9.47-26.4-9.38-6.13,4.59-12.25,9.19-18.38,13.78l-20.52-13.78c-2.4-.12-6.77-.03-11.7,1.95-4.67,1.88-7.77,4.62-9.43,6.32v40.43h98.63v-18.07c-.65-3.26-3.05-13.24-12.19-21.25Zm-9.8,28.21c0,.94-.76,1.7-1.7,1.7h-17.78c-.94,0-1.7-.76-1.7-1.7v-9.3c0-.94.76-1.7,1.7-1.7h17.78c.94,0,1.7.76,1.7,1.7v9.3Z"/>
  <path class="cls-1" d="m41.45,127.43h68.04c2.27,0,4.11-1.84,4.11-4.11v-38.48c0-2.4-2.05-4.29-4.45-4.1l-67.71,5.54"/>
</svg>