<?xml version="1.0" encoding="UTF-8"?>
<svg id="Capa_1" data-name="Capa 1" xmlns="http://www.w3.org/2000/svg" viewBox="0 0 500 500">
  <defs>
    <style>
      .cls-1 {
        fill: #252c52;
      }

      .cls-2 {
        fill: #e84721;
      }
    </style>
  </defs>
  <path class="cls-2" d="m9.8,326.76v85.2h34.08v-59.27c0-4.09,3.32-7.41,7.41-7.41h281.54c4.09,0,7.41,3.32,7.41,7.41v59.27h34.08v-85.2H9.8Z"/>
  <path class="cls-1" d="m343.51,224.38H40.62c-17.02,0-30.82,13.8-30.82,30.82v54.39h364.53v-54.39c0-17.02-13.8-30.82-30.82-30.82Z"/>
  <path class="cls-2" d="m320.99,133.38H62.41c-7.37,0-13.34,5.97-13.34,13.34v61.5h15.24v-25.19h.33c2.15-14.67,14.78-25.93,30.05-25.93h54.09c15.27,0,27.9,11.26,30.05,25.93h.33v25.19h25.51v-25.19h.33c2.15-14.67,14.78-25.93,30.05-25.93h54.09c15.27,0,27.9,11.26,30.05,25.93h.33v25.19h14.82v-61.5c0-7.37-5.97-13.34-13.34-13.34Z"/>
  <path class="cls-1" d="m303.22,187.43c-1.15-7.01-7.22-12.36-14.55-12.36h-53.35c-7.33,0-13.4,5.35-14.55,12.36h-.21v2.4h0v18.38h82.87v-18.38h0v-2.4h-.21Z"/>
  <path class="cls-1" d="m164.62,187.43c-1.15-7.01-7.22-12.36-14.55-12.36h-53.35c-7.33,0-13.4,5.35-14.55,12.36h-.21v2.4h0v18.38h82.87v-18.38h0v-2.4h-.21Z"/>
  <polygon class="cls-1" points="458.14 109.95 431.79 109.95 398.48 163.5 491.44 163.5 458.14 109.95"/>
  <rect class="cls-1" x="398.48" y="252.34" width="92.96" height="57.25"/>
  <path class="cls-2" d="m405.45,326.76v15.83c0,4.64,3.76,8.4,8.4,8.4s8.4-3.76,8.4-8.4v-15.83h-16.8Z"/>
  <path class="cls-2" d="m468.96,326.76v15.83c0,4.64,3.76,8.4,8.4,8.4s8.4-3.76,8.4-8.4v-15.83h-16.8Z"/>
  <path class="cls-2" d="m461.99,194.54c-2.43-6.81-6.3-11.33-8.62-13.66h-16.15c-2.32,2.34-6.19,6.85-8.62,13.66-2.09,5.87-2.24,11.02-2.09,14.16.22,3.59.99,9.07,3.69,15.14,2.18,4.89,4.89,8.52,7.02,10.96h16.15c2.13-2.43,4.84-6.06,7.02-10.96,2.71-6.07,3.48-11.55,3.69-15.14.15-3.14,0-8.29-2.09-14.16Z"/>
</svg>