<?xml version="1.0" encoding="UTF-8"?>
<svg id="Capa_1" data-name="Capa 1" xmlns="http://www.w3.org/2000/svg" viewBox="0 0 500 500">
  <defs>
    <style>
      .cls-1 {
        fill: #1d1d1b;
      }
    </style>
  </defs>
  <path class="cls-1" d="m249.71,7.13C117.26,7.13,9.88,116.17,9.88,250.67s107.37,243.54,239.83,243.54,239.83-109.04,239.83-243.54S382.16,7.13,249.71,7.13Zm0,449.18c-111.84,0-202.51-92.07-202.51-205.64S137.87,45.03,249.71,45.03s202.51,92.07,202.51,205.64-90.67,205.64-202.51,205.64Z"/>
  <rect class="cls-1" x="388.27" y="245.23" width="34.47" height="12.63" rx="6.31" ry="6.31"/>
  <rect class="cls-1" x="64.71" y="246.39" width="34.47" height="12.63" rx="6.31" ry="6.31"/>
  <rect class="cls-1" x="226.16" y="407.02" width="34.47" height="12.63" rx="6.31" ry="6.31" transform="translate(656.73 169.94) rotate(90)"/>
  <rect class="cls-1" x="226.16" y="82.52" width="34.47" height="12.63" rx="6.31" ry="6.31" transform="translate(332.23 -154.56) rotate(90)"/>
  <path class="cls-1" d="m171.67,198.41l71.73,44.83,61.84-154.41c6.52-3.62,14.47-3.45,20.69.47,8.98,5.65,9.39,15.97,9.41,16.77-22.89,58.41-45.78,116.82-68.66,175.23-1.86,1.58-7.53,5.98-15.99,6.46-6.41.37-11.32-1.68-13.6-2.82-29.02-20.07-58.03-40.13-87.05-60.2-3.87-7.89-2.22-17.16,3.76-22.57,7.35-6.66,17.3-3.93,17.87-3.76Z"/>
</svg>