<?xml version="1.0" encoding="UTF-8"?>
<svg id="Capa_1" data-name="Capa 1" xmlns="http://www.w3.org/2000/svg" viewBox="0 0 500 500">
  <defs>
    <style>
      .cls-1 {
        fill: #222220;
      }

      .cls-2 {
        fill: #292e50;
      }
    </style>
  </defs>
  <path class="cls-1" d="m486.05,187.63c-1.39-16.01-8.67-65.72-20.3-132.81-.03-.15-.07-.29-.13-.44-1.06-2.26-3.6-6.8-8.79-10.27-7.29-4.87-14.83-4.28-16.99-4.03-75.9,10.49-151.8,20.99-227.7,31.48-2.03.27-9.41,1.48-15.27,7.94-6.81,7.51-6.48,16.52-6.36,18.37,0,.06.01.1.02.16l2.93,18.29h0s0,.01,0,.01l3.61,22.59c.03.22.12.42.18.62.56,1.31,1.12,2.62,1.69,3.93h0c5.4,2.04,10.8,4.09,16.2,6.13,81.34-12.07,162.68-24.14,244.02-36.21,3.71,24.39,7.43,48.78,11.14,73.16.01.1.12.41.21.83,1.24,5.88-3.16,11.29-3.7,11.94-3.79,4.53-8.93,5.51-10.44,5.75-35.84,5.36-71.68,10.71-107.52,16.07-.82.12-1.6.44-2.27.93l-5.62,4.1c-.27.2-.51.41-.72.63l-9.69,6.36.78,4.22,13.4-2.07c41.21-6.35,82.42-12.71,123.62-19.06.06-.01.12-.02.18-.04,2.19-.58,8.58-2.6,13.27-8.88,5.2-6.95,4.61-15.44,4.24-19.72ZM206.31,113.37c-.76-4.93-1.52-9.86-2.28-14.79-1.25-3.87-.22-8.08,2.64-10.81,3.24-3.09,7.38-2.87,8.93-2.65.47.07.92.06,1.39,0,73.33-10.37,146.67-20.74,220-31.11.27-.04.53-.06.8-.05,1.53.05,4.58.38,7.64,2.41,2.15,1.42,3.5,3.14,4.29,4.39.36.58.59,1.22.69,1.89.9,5.9,1.8,11.8,2.7,17.71-82.27,11-164.54,22.01-246.8,33.01Z"/>
  <path class="cls-2" d="m49.48,315.16c-4.55-5.43-12.64-6.16-18.09-1.64-6.81,5.65-13.62,11.31-20.43,16.96-5.51,4.57-6.23,12.75-1.61,18.22,28.45,33.65,56.9,67.31,85.35,100.96,4.51,5.33,12.45,6.1,17.9,1.72l20.25-16.27c5.62-4.52,6.44-12.78,1.81-18.31l-85.18-101.65Z"/>
  <path class="cls-2" d="m313.99,292.31c-3.83,2.42-7.96,4.85-12.41,7.24-3.17,1.7-6.27,3.26-9.27,4.69-1.59.73-3.56,1.49-5.89,2.08-2.26.58-4.31.85-6.02.97-4.35-.04-8.71-.08-13.06-.12-2.06,4.09-4.12,8.17-6.18,12.26.1.51.37,1.49,1.18,2.36,1.62,1.75,3.99,1.54,4.3,1.5,4.59-.34,9.18-.67,13.77-1.01,4.3-.64,10.25-2.01,16.76-5.12,5.49-2.62,9.71-5.67,12.72-8.21,1.75-2.15,3.69-4.92,5.45-8.34,1.2-2.34,2.09-4.55,2.75-6.52.05-.08,1.14-2.02.47-2.83-.59-.71-2.55-.53-4.57,1.03Z"/>
  <path class="cls-2" d="m303.03,323.9c-1.36.75-7.98,4.38-13.28,6.88-.91.43-2.33,1.09-4.31,1.59-2.05.53-3.88.69-5.3.71h-25.87c-1.93,3.38-3.86,6.76-5.78,10.14.14.37.41.96.97,1.5.96.95,2.12,1.12,2.51,1.17h28.05c2.63-.13,9.66-.83,16.38-6,5.82-4.47,8.37-9.95,9.36-12.44,1.31-.86,1.48-2.63.63-3.56-.77-.85-2.32-.95-3.36,0Z"/>
  <path class="cls-2" d="m308.85,237.04c.13-.07.25-.13.39-.19,6.06-2.63,13.61-6.6,21.48-12.61,6.49-4.95,11.54-10.02,15.35-14.42.13-.18.25-.34.39-.52,2.28-3.65,7.13-12.67,5.9-24.31-.27-2.51-1.97-18.67-13.78-24.33-6.08-2.91-12.09-1.73-19.92-.18-10.06,1.99-17.56,5.99-22.02,8.81-8.72,5.86-18.3,13.06-28.15,21.83-11.26,10.03-20.48,19.98-27.92,29.01-.46.56-1.05.98-1.74,1.24-20.32,7.68-40.64,15.36-60.96,23.05-.2.11-.41.22-.61.33-3.58,2.52-7.62,1.77-8.72-.01-1.09-1.76,0-5.62,3.69-7.8,13.84-5.47,27.69-10.94,41.53-16.4,1.05-.41,3.69-1.59,5.72-4.45,1.86-2.62,2.22-5.25,2.3-6.45,0-.1,0-.2,0-.3l-6.63-59.71-16.2-6.13c-9.87,2.51-19.75,5.02-29.62,7.53-.08.02-.16.05-.25.07-4.71,1.48-12.59,4.62-20.4,11.36-7.97,6.88-12.25,14.39-14.38,18.88-.04.08-.08.15-.12.23-2.21,3.87-62.18,108.89-72.24,126.5-.86,1.51-.7,3.38.4,4.73,24.6,30.06,49.2,60.11,73.8,90.17.17.2.34.38.54.55,1.68,1.4,4.95,3.71,9.67,4.73,6.11,1.32,11.04-.3,12.98-1.06,9.15-3,21.13-8.01,33.74-16.56,9.55-6.47,16.96-13.29,22.5-19.17,11.15-11.82,24.32-28.19,35.9-49.57,7.31-13.5,12.5-26.25,16.24-37.41.03-.08.05-.15.08-.22,2.76-6.86,7.7-16.81,16.42-26.89,8.87-10.24,18.19-16.6,24.66-20.32Z"/>
  <path class="cls-2" d="m332.23,237.31l-1.62-4.18-17.63,11.57c-8.02,5.24-14.36,10.84-19.2,15.82-3.25,2.84-6.92,6.54-10.51,11.22-5.16,6.73-8.4,13.25-10.45,18.34-1.19,2.04-.99,4.51.42,6.07,1.5,1.66,3.7,1.57,4.01,1.55,5.14-1.38,19.75-5.61,31.72-13.45,2.27-1.49,6.15-4.06,10.52-8.35,3.69-3.62,6.33-7.11,8.12-9.76,1.18-1.75,2.58-4.24,3.57-7.44,1.51-4.88,1.35-9.13,1.05-11.69v-9.73Z"/>
</svg>