<?xml version="1.0" encoding="UTF-8"?>
<svg id="Capa_1" data-name="Capa 1" xmlns="http://www.w3.org/2000/svg" viewBox="0 0 500 500">
  <defs>
    <style>
      .cls-1 {
        fill: #242b51;
      }

      .cls-2 {
        fill: #e84721;
      }
    </style>
  </defs>
  <rect class="cls-2" x="44.04" y="197.17" width="404.03" height="280.19" rx="9.08" ry="9.08"/>
  <polygon class="cls-1" points="75.99 132.12 413.83 132.12 436.65 178.91 52.02 178.91 75.99 132.12"/>
  <path class="cls-1" d="m397.21,25.4H93.17c-6.02,0-10.9,4.88-10.9,10.9v64.25c0,5.45,4.42,9.88,9.88,9.88h306.1c5.45,0,9.88-4.42,9.88-9.88V36.31c0-6.02-4.88-10.9-10.9-10.9Zm-57.43,38.52c0,5.67-4.6,10.27-10.27,10.27h-166.92c-5.67,0-10.27-4.6-10.27-10.27h0c0-5.67,4.6-10.27,10.27-10.27h166.92c5.67,0,10.27,4.6,10.27,10.27h0Z"/>
</svg>