<?xml version="1.0" encoding="UTF-8"?>
<svg id="Capa_1" data-name="Capa 1" xmlns="http://www.w3.org/2000/svg" viewBox="0 0 500 500">
  <defs>
    <style>
      .cls-1 {
        fill: #c94828;
      }

      .cls-2 {
        fill: #2c3052;
      }
    </style>
  </defs>
  <path class="cls-1" d="m482.79,34.97c-37.8,35.17-78.64,77.56-119.4,127.95-54.56,67.45-95.57,132.65-126.27,189.34-.44.67-4.76,7.03-10.27,6.44-.12-.01-.25-.03-.25-.03s-1.57-.22-3.08-.89c-6.04-2.66-12.3-18.51-12.3-18.51-2.35-5.95-5.49-11.57-7.74-17.56-15.59-41.42-37.5-72.92-37.5-72.92-2.72-3.91-6.91-9.7-12.51-16.47-1.42-1.79-6.79-8.11-15.94-9.53-4.62-.72-8.47.08-10.8.78.36-1.84,4.51-21.32,23.18-29.55,14.75-6.5,28.3-1.46,30.97-.41,7.76,4.33,18.34,11.39,28.66,22.43,12.15,12.99,18.93,26.15,22.64,35.02,22.94-34.57,53.76-74.64,94.56-114.98,28.1-27.79,55.76-50.58,81.06-69.13,11.68-8.94,25.07-18.09,40.23-26.86,6.87-3.97,13.6-7.57,20.13-10.84,1.01-.28,5.39-1.38,9.81,1.03,2.7,1.48,4.17,3.59,4.83,4.69Z"/>
  <path class="cls-2" d="m419.04,135.92l-27.72,30.29c17.28,28.05,27.26,61.09,27.26,96.46,0,101.73-82.47,184.19-184.19,184.19S50.19,364.39,50.19,262.66,132.65,78.47,234.38,78.47c32.7,0,63.41,8.53,90.03,23.48l27.42-29.97c-33.58-20.58-73.07-32.46-115.34-32.46-122.07,0-221.03,98.96-221.03,221.03s98.96,221.03,221.03,221.03,221.03-98.96,221.03-221.03c0-46.24-14.21-89.16-38.48-124.64Z"/>
</svg>