<?xml version="1.0" encoding="UTF-8"?>
<svg id="Capa_1" data-name="Capa 1" xmlns="http://www.w3.org/2000/svg" viewBox="0 0 500 500">
  <defs>
    <style>
      .cls-1 {
        fill: #c94923;
      }

      .cls-2 {
        fill: #222220;
      }
    </style>
  </defs>
  <path class="cls-2" d="m360.29,63.52c-52.2,63.88-104.41,127.75-156.61,191.63,18.7,10.34,37.4,20.67,56.1,31.01,2.81,2.65,11.5,11.49,14.02,26.24,2.51,14.67-2.67,25.94-4.43,29.42-3.2,3.24-9.47,8.71-18.94,11.93-12.69,4.3-23.61,2-28.05.8-16.62-5.57-33.24-11.13-49.87-16.7l107.52,92.24,211.93-254.44-131.68-112.11Zm-39.56,240.9c-30.97,0-56.07-25.62-56.07-57.22s25.1-57.22,56.07-57.22,56.07,25.62,56.07,57.22-25.1,57.22-56.07,57.22Z"/>
  <path class="cls-2" d="m326.28,234.92c-4.2,2.79-8.41,5.57-12.61,8.36-2.27,1.55-5.19,1.5-7.17-.05-2.42-1.88-3.05-5.69-1.16-8.61l13.38-11.58s-4.07-8.61-8.14-10.98c-6.13,4.57-12.25,9.15-18.38,13.72-1.3,1.58-4.22,5.59-4.76,11.46-.74,8.11,3.61,13.87,4.94,15.54,5.86,7.42,14.2,8.56,16.03,8.76,5.44-3.7,10.87-7.4,16.31-11.1,3.36-2.74,8.27-2.01,10.61,1.32,2.16,3.07,1.62,7.58-1.42,10.15-4.97,4.25-9.93,8.51-14.9,12.76l9.02,10.09c5.11-4.13,10.22-8.27,15.33-12.4,3.79-3.06,5.18-5.62,6.48-8.97,2.25-5.8,2.72-15.23-3.49-22.26-4.96-5.61-12.67-7.98-20.07-6.23Z"/>
  <path class="cls-1" d="m27.82,313.55h18.69v-145.26H14.4l13.42,145.26Z"/>
  <path class="cls-1" d="m256.3,328.19c4.78-9.6,1.95-21.6-6.76-28.07-23.32-13.3-46.65-26.59-69.97-39.89-7.54-2.74-11.93-10.44-10.62-17.73,1.08-5.98,5.85-10.87,12.06-12.31,7.08.49,14.15.98,21.23,1.48l50.18-63.03-56.94-10.83c-5.9-1.09-13.07-1.95-21.23-1.97-8.37-.02-15.71.86-21.71,1.97-20.11,6.24-40.21,12.48-60.32,18.71-1.99.57-4.8,1.31-8.2,1.97-3.26.63-5.71.93-9.54,1.39-2.76.33-6.4.72-10.73,1.07v111.29l34.74-10.65c.98-.67,3.19-1.98,6.27-2.16,3.93-.23,6.78,1.52,7.72,2.16,6.27,6.83,12.55,13.66,18.82,20.5,1.87,2.35,5.6,6.4,11.58,9.36,5.8,2.86,11.05,3.38,13.99,3.45,24.77,8.21,49.54,16.41,74.31,24.62,9.99,2.7,20.5-2.1,25.09-11.33Z"/>
</svg>