<?xml version="1.0" encoding="UTF-8"?>
<svg id="Capa_1" data-name="Capa 1" xmlns="http://www.w3.org/2000/svg" viewBox="0 0 500 500">
  <defs>
    <style>
      .cls-1 {
        stroke-dasharray: 0 0 1.98 1.98;
      }

      .cls-1, .cls-2, .cls-3, .cls-4, .cls-5, .cls-6, .cls-7 {
        stroke-miterlimit: 10;
      }

      .cls-1, .cls-2, .cls-3, .cls-4, .cls-5, .cls-7 {
        fill: none;
      }

      .cls-1, .cls-2, .cls-3, .cls-5, .cls-7 {
        stroke: #fff;
      }

      .cls-3 {
        stroke-dasharray: 0 0 1.99 1.99;
      }

      .cls-4 {
        stroke: #e84719;
        stroke-width: 20px;
      }

      .cls-5 {
        stroke-dasharray: 0 0 1.99 1.99;
      }

      .cls-6 {
        stroke: #25346d;
        stroke-width: 2px;
      }

      .cls-6, .cls-8 {
        fill: #25346d;
      }

      .cls-9 {
        fill: #e84715;
      }

      .cls-7 {
        stroke-dasharray: 0 0 2 2;
      }
    </style>
  </defs>
  <path class="cls-9" d="m398.84,198.17c-12.17-41.89-24.34-83.78-36.52-125.67H46.1L9.23,218.91h341.37c12.8-11.97,29.61-19.62,48.23-20.74Z"/>
  <g>
    <line class="cls-2" x1="20.04" y1="178.32" x2="21.04" y2="178.32"/>
    <line class="cls-5" x1="23.03" y1="178.32" x2="388.66" y2="178.32"/>
    <line class="cls-2" x1="389.66" y1="178.32" x2="390.66" y2="178.32"/>
  </g>
  <g>
    <line class="cls-2" x1="128.41" y1="74.96" x2="128.28" y2="75.95"/>
    <line class="cls-3" x1="128.03" y1="77.92" x2="110.7" y2="215.13"/>
    <line class="cls-2" x1="110.57" y1="216.12" x2="110.45" y2="217.11"/>
  </g>
  <g>
    <line class="cls-2" x1="204.04" y1="74.96" x2="204.1" y2="75.95"/>
    <line class="cls-1" x1="204.23" y1="77.93" x2="213.12" y2="215.13"/>
    <line class="cls-2" x1="213.19" y1="216.12" x2="213.25" y2="217.11"/>
  </g>
  <g>
    <line class="cls-2" x1="284.39" y1="74.96" x2="284.55" y2="75.94"/>
    <line class="cls-7" x1="284.87" y1="77.92" x2="307.22" y2="215.14"/>
    <line class="cls-2" x1="307.38" y1="216.13" x2="307.54" y2="217.11"/>
  </g>
  <path class="cls-8" d="m409.77,204.61c-42.88,0-77.63,34.75-77.63,77.63,0,13.65,3.54,26.45,9.71,37.59.04.09.09.16.13.23,1.53,2.71,3.21,5.33,5.04,7.84,16.97,26.5,33.94,52.99,50.93,79.47,1.16,2.22,2.8,4.06,4.75,5.34,1.97,1.3,4.24,2.04,6.66,2.04,3.76,0,7.15-1.77,9.57-4.62.7-.83,1.32-1.75,1.84-2.76l53.4-81.76c8.36-12.38,13.23-27.3,13.23-43.36,0-42.88-34.75-77.63-77.63-77.63Zm.2,120.99c-24.93,0-45.13-20.2-45.13-45.13s20.2-45.13,45.13-45.13,45.13,20.22,45.13,45.13-20.2,45.13-45.13,45.13Z"/>
  <rect class="cls-6" x="186.07" y="271.51" width="102.1" height="69.96"/>
  <rect class="cls-6" x="78.3" y="257.09" width="71.85" height="117.7"/>
  <polyline class="cls-4" points="43.71 229.05 43.71 398.05 377.92 399.7"/>
</svg>