<?xml version="1.0" encoding="UTF-8"?>
<svg id="Capa_1" data-name="Capa 1" xmlns="http://www.w3.org/2000/svg" viewBox="0 0 500 500">
  <defs>
    <style>
      .cls-1 {
        fill: #242b51;
      }

      .cls-2 {
        fill: #e84721;
      }
    </style>
  </defs>
  <circle class="cls-2" cx="250.43" cy="390.92" r="40"/>
  <path class="cls-2" d="m220.68,361.58c3.22,0,3.22-5,0-5s-3.22,5,0,5h0Z"/>
  <path class="cls-2" d="m337.28,90.98c3.22,0,3.22-5,0-5s-3.22,5,0,5h0Z"/>
  <path class="cls-2" d="m187.68,42.58c3.22,0,3.22-5,0-5s-3.22,5,0,5h0Z"/>
  <g>
    <path class="cls-2" d="m212.47,266.35c-26.89,4.46-51.56,13.92-72.48,27.16l22.43,22.89,50.05-50.05Z"/>
    <path class="cls-2" d="m240.5,305.45c3.1-.16,6.23-.26,9.38-.26,30.06,0,58.16,7.6,82.1,20.79l28.68-28.98c-22.71-15.54-50.29-26.49-80.6-31.09l-39.55,39.55Z"/>
  </g>
  <rect class="cls-1" x="66.18" y="214.03" width="451.21" height="15.45" transform="translate(-71.34 271.27) rotate(-45)"/>
  <g>
    <path class="cls-2" d="m248.78,216.44c4.23,0,8.42.11,12.58.29l36.01-36.01c-15.09-2.14-30.75-3.27-46.82-3.27-67.29,0-127.52,19.73-167.88,50.8l27.89,28.47c35.81-24.94,84.53-40.29,138.22-40.29Z"/>
    <path class="cls-2" d="m319.45,225.77c27.34,7.5,51.8,19.21,71.85,34.05l29.45-29.76c-18.9-15.04-42.37-27.52-69.03-36.55l-32.27,32.27Z"/>
  </g>
  <g>
    <path class="cls-2" d="m341.09,137.01l34.7-34.7c-36.92-11.39-79.39-17.88-124.57-17.88-101.31,0-188.95,32.6-231.07,80.01l26.28,26.83c44.68-38.34,120.48-63.56,206.51-63.56,31.05,0,60.75,3.3,88.16,9.3Z"/>
    <path class="cls-2" d="m423.81,121.42l-31.11,31.11c26.21,10.3,48.84,23.41,66.58,38.59l24.61-24.87c-14.64-17.08-35.15-32.29-60.08-44.83Z"/>
  </g>
</svg>