<?xml version="1.0" encoding="UTF-8"?>
<svg id="Capa_1" data-name="Capa 1" xmlns="http://www.w3.org/2000/svg" viewBox="0 0 500 500">
  <defs>
    <style>
      .cls-1 {
        fill: #fff;
      }
    </style>
  </defs>
  <path class="cls-1" d="m482.85,294.29c-6.57-40.39-44.63-67.81-85.03-61.25-6.34,1.03-12.36,2.84-17.98,5.31l-12.66-23.12-1.02.57-11.38-19.69c4.04-1.84,8.89-3.53,14.8-4.97,15.01-3.66,39.79-3.53,46.53-2.11,8.3,1.76,19.2,6.93,22.69,7.79,3.48.86,10.72.09,10.72.09,0,0-18.06-16.12-25.26-20.32-7.2-4.19-27.04-7.33-43.22-7.3-5.73.01-14.88.63-24.03,2.27l-13.82-35.01-40.35-24.59,8.96,17.19-5.75,3.2,4.26,7.37c-.67-.03-1.33-.06-1.98-.1-4-.25-1.9.2-4.67-.62,0,0-.18.23-.48.6-2.11-1.37-5.13-3.48-8.32-5.86-.13,1.12-.33,2.22-.63,3.25-.14,1.17-.17,2.38-.64,3.51-1.5,3.63-4.62,5.34-7.79,5.59,5.81,1.59,9.92,2.83,9.92,2.83,0,0,0,0,1.06-1.3-.43.54-.81,1.01-1.06,1.32-1.67,2.08-1.17,2.4-.78,3.64.39,1.23,2.63.23,4.89,1.17.39.16.8.39,1.22.65-8.72-.33-15.86.49-33.15,7.21-8.35,3.24-18.83,7.63-26.61,11.35-31.33-.02-62.66-.03-93.99-.05-11.5-2.88-39.99-11.78-45.21-12.01-5.8-.26-8.1-.4-10.92-.16-1.9.17-32.17-4.85-52.67-6.81-10.2-.98-31.66,3.52-31.66,3.52,1.58.13,21.35,7.29,32.12,10.23,21.82,5.94,36.4,13.84,36.18,14.5-.16.47,5.89,5.33,12.26,10.28l-22.15-9.04c-1.4-.57-2.94-.63-4.4-.16l-9.17,2.93c-2.24.72-3.94,2.56-4.71,4.83-2.37.84-3.93,2.51-4.55,3.28-.7.87-1.25,5.46-1.16,6.57,0,0,2.25,1.85,2.59,1.72.35-.13.62-3.52,2.11-3.32.28.04.58.06.87.07l.34,6.08c.17,3.07,2.06,5.68,4.75,6.57l78.88,26.14,5.13-1.2,2.61-4.96c6.63,3.76,13.94,8.24,18.24,11.65,3.26,2.58,11.39,5.87,19.83,8.85.63,1.8.76,3.8-.4,5.76-1.2,2.03-2.52,5.95-3.66,10.16-1.89,2.14-5.09,6.83-2.35,10.48-.33,1.89-.53,3.47-.57,4.5l-14.13,3.6c-1.24-3.16-2.69-6.27-4.39-9.31-20.03-35.69-65.19-48.38-100.88-28.35-35.69,20.03-48.38,65.19-28.35,100.88,20.03,35.69,65.19,48.38,100.88,28.35,27.45-15.41,41.28-45.69,37.09-75.09l24.51-6.24c.38.82.98,1.54,1.79,2.05l8.8,5.46c2.03,1.26,4.69.81,6.2-1.04l2.62-3.22c4.76,3.45,9.9,6.51,13.82,8.07,19.76,7.84,37.85-2.13,37.85-2.13,8.62-2.17,14.87-.7,17.35-2.19,3.36-2.03,8.49-7.08,12.21-11.53,3.24,1.76,6.65,2.66,9.73,2.32,7.4-.83,15.58-5.72,17.35-10.82,3.17-9.16.63-22.72-.92-29.23,2.84-.03,5.64-.34,6.85-2.27,2.42-3.84,6.24-5.12,8.01-8.96,1.77-3.84,2.57-16.32,2.94-19.61.37-3.29.07-7.94.07-7.94l-2.45-1.64c5.05-2.3,11.66-5.89,14.71-9.14,1.29-1.37,2.8-2.74,4.6-4.08l11.28,19.52-1.24.69,12.64,23.07c-23.37,15.63-36.78,43.93-31.98,73.5,6.57,40.39,44.63,67.81,85.03,61.25,40.39-6.57,67.81-44.63,61.25-85.03Zm-312.85-54.19c-5.32-2.1-15.59-12.91-26.08-18.32l1.44-2.73c10.09,5.12,25.09,12.77,25.16,13.09.48,2.2.93,5.66,1.28,8.65-.7-.26-1.32-.5-1.8-.68Zm-52.13,129.73c-30.88,17.33-69.95,6.34-87.28-24.53-17.33-30.88-6.34-69.95,24.53-87.28,30.88-17.33,69.95-6.34,87.28,24.53,1.27,2.26,2.37,4.57,3.34,6.9l-2.27.58c-.9-2.15-1.92-4.27-3.09-6.35-16.7-29.76-54.36-40.34-84.12-23.64-29.76,16.7-40.34,54.36-23.64,84.12,16.7,29.76,54.36,40.34,84.12,23.64,22.48-12.62,34.01-37.2,31.11-61.3l2.27-.58c3.15,25.1-8.81,50.76-32.23,63.9Zm-48.86-54.84c.58,9.38,8.66,16.5,18.04,15.92,7.59-.47,13.71-5.86,15.45-12.87l41.58-10.58c2.51,22.43-8.31,45.23-29.23,56.98-27.9,15.66-63.21,5.73-78.86-22.17-15.66-27.9-5.73-63.21,22.17-78.86,27.9-15.66,63.21-5.73,78.86,22.17,1,1.78,1.89,3.59,2.68,5.42l-41.94,10.68c-3.31-3.17-7.88-5.02-12.81-4.71-9.38.58-16.5,8.66-15.92,18.04Zm227.53-30.83c-2.13.71-4.43.32-6.6-.55.32-2.17.42-3.79,1.81-7.45,1.58-4.19,7.91-16.01,11.24-19.67.79,4.35,1.76,10.13,1.82,12.72.2,8.79-1.38,12.66-8.27,14.95Zm84.55-16.71c-13.36,10.12-20.83,27.09-17.95,44.79,4.06,24.95,27.16,42.03,52.03,38.86-22.56,1.14-42.85-14.85-46.56-37.67-2.6-16.01,3.6-31.41,15.05-41.28l12.61,23.01c-2.76,3.24-4.32,7.5-4.04,12.08.58,9.38,8.66,16.5,18.04,15.92,9.38-.58,16.5-8.66,15.92-18.04-.58-9.38-8.66-16.5-18.04-15.92-.14,0-.28.03-.41.05l-13.17-24.04c3.49-1.56,7.23-2.71,11.19-3.35,15.23-2.48,29.92,3.02,39.81,13.42-10.21-12.56-26.66-19.47-43.79-16.68-3.29.53-6.44,1.41-9.42,2.56l-4.68-8.55c4.02-1.65,8.28-2.89,12.75-3.62,31.58-5.13,61.34,16.3,66.47,47.88,5.13,31.58-16.3,61.34-47.88,66.47-31.58,5.13-61.34-16.3-66.47-47.88-3.68-22.61,6.28-44.29,23.82-56.66l4.73,8.64Zm38.91,102c-34.95,5.68-67.88-18.04-73.56-52.99-4.11-25.27,7.16-49.48,26.93-63.1l1.12,2.04c-18.93,13.15-29.7,36.41-25.76,60.69,5.48,33.68,37.22,56.55,70.9,51.07,33.68-5.48,56.55-37.22,51.07-70.9-5.48-33.68-37.22-56.55-70.9-51.07-4.92.8-9.6,2.17-14,4.02l-1.12-2.05c4.63-1.96,9.56-3.42,14.75-4.26,34.95-5.68,67.88,18.04,73.56,52.99,5.68,34.95-18.04,67.88-52.99,73.56Z"/>
</svg>