<?xml version="1.0" encoding="UTF-8"?>
<svg id="Capa_1" data-name="Capa 1" xmlns="http://www.w3.org/2000/svg" viewBox="0 0 500 500">
  <defs>
    <style>
      .cls-1 {
        fill: #f6f6f6;
      }

      .cls-2 {
        fill: none;
        stroke: #e84719;
        stroke-width: 20px;
      }

      .cls-2, .cls-3 {
        stroke-miterlimit: 10;
      }

      .cls-4 {
        fill: #e84721;
      }

      .cls-3 {
        fill: #223469;
        stroke: #223469;
        stroke-width: 5px;
      }
    </style>
  </defs>
  <rect class="cls-1" x="15.33" y="21.75" width="469.34" height="456.51" rx="121.92" ry="121.92"/>
  <g>
    <path class="cls-3" d="m232.73,266.54V102.67c-82.98,3.49-149.19,71.85-149.19,155.69s69.77,155.84,155.84,155.84c23.33,0,45.46-5.14,65.34-14.33l-71.99-133.33Z"/>
    <path class="cls-2" d="m416.45,238.07c-6.82-79.77-73.72-142.4-155.26-142.4-2.23,0-4.44.06-6.65.15v142.25h161.91Z"/>
    <path class="cls-4" d="m257.41,264.92l69.12,128.02c-1.78.82-3.59,1.6-5.41,2.36.02.02.04.04.06.07,52.36-21.86,90.24-71.47,95.27-130.45h-159.05Z"/>
  </g>
</svg>