<?xml version="1.0" encoding="UTF-8"?>
<svg id="Capa_1" data-name="Capa 1" xmlns="http://www.w3.org/2000/svg" viewBox="0 0 500 500">
  <defs>
    <style>
      .cls-1 {
        fill: #fff;
      }

      .cls-1, .cls-2, .cls-3, .cls-4, .cls-5 {
        stroke-miterlimit: 10;
      }

      .cls-1, .cls-2, .cls-4, .cls-5 {
        stroke-width: 5px;
      }

      .cls-1, .cls-2, .cls-5 {
        stroke: #e84715;
      }

      .cls-2, .cls-4, .cls-5 {
        fill: none;
      }

      .cls-3 {
        fill: #25346d;
        stroke: #25346d;
        stroke-width: 2px;
      }

      .cls-4 {
        stroke: #262c52;
      }

      .cls-5 {
        stroke-dasharray: 0 0 2.02 2.02;
      }
    </style>
  </defs>
  <polygon class="cls-1" points="412.03 472.7 90.16 472.62 90.27 46.67 209.53 46.67 212.63 81.97 257.15 102.72 297.33 74.55 294.87 46.72 412.15 46.76 412.03 472.7"/>
  <rect class="cls-3" x="137.34" y="118.34" width="58.35" height="58.35" transform="translate(-3.37 3.89) rotate(-1.33)"/>
  <g>
    <line class="cls-2" x1="368.42" y1="152.11" x2="367.42" y2="152.08"/>
    <line class="cls-5" x1="365.41" y1="152.03" x2="201.08" y2="147.97"/>
    <line class="cls-2" x1="200.07" y1="147.95" x2="199.07" y2="147.92"/>
  </g>
  <rect class="cls-3" x="139.79" y="224.15" width="58.35" height="58.35" transform="translate(-5.82 3.98) rotate(-1.33)"/>
  <g>
    <line class="cls-2" x1="370.87" y1="257.91" x2="369.87" y2="257.89"/>
    <line class="cls-5" x1="367.85" y1="257.84" x2="203.53" y2="253.78"/>
    <line class="cls-2" x1="202.52" y1="253.75" x2="201.52" y2="253.73"/>
  </g>
  <rect class="cls-3" x="142.36" y="334.95" width="58.35" height="58.35" transform="translate(-8.38 4.07) rotate(-1.33)"/>
  <g>
    <line class="cls-2" x1="373.44" y1="368.71" x2="372.44" y2="368.69"/>
    <line class="cls-5" x1="370.42" y1="368.64" x2="206.1" y2="364.58"/>
    <line class="cls-2" x1="205.09" y1="364.55" x2="204.09" y2="364.53"/>
  </g>
  <polygon class="cls-4" points="286.49 66.94 255.45 88.7 221.06 72.67 218.66 45.41 217.75 34.89 248.83 13.13 283.18 29.15 284.59 45.44 286.49 66.94"/>
</svg>