<?xml version="1.0" encoding="UTF-8"?>
<svg id="Capa_1" data-name="Capa 1" xmlns="http://www.w3.org/2000/svg" viewBox="0 0 320 320">
  <defs>
    <style>
      .cls-1 {
        fill: #e84824;
      }

      .cls-2 {
        fill: none;
        stroke: #272d52;
        stroke-miterlimit: 10;
      }

      .cls-3 {
        fill: #262d52;
      }
    </style>
  </defs>
  <path class="cls-1" d="m275.91,54.25H47.65c-4,0-7.25,3.25-7.25,7.25v131.74c0,4,3.25,7.25,7.25,7.25h228.26c4,0,7.25-3.25,7.25-7.25V61.5c0-4-3.25-7.25-7.25-7.25Zm-131.69,6.42c0-1.35,1.09-2.44,2.44-2.44h31.49c1.35,0,2.44,1.09,2.44,2.44v.5c0,1.35-1.09,2.44-2.44,2.44h-31.49c-1.35,0-2.44-1.09-2.44-2.44v-.5Zm127.76,129.04H52v-123.87h219.98v123.87Z"/>
  <rect class="cls-2" x="5.72" y="244.95" width="310.96" height="10.47"/>
  <polygon class="cls-3" points="253.65 212.19 272.75 239.74 275.56 239.74 255.13 212.19 253.65 212.19"/>
  <polygon class="cls-3" points="264.01 212.19 285.78 239.74 288 239.74 265.94 212.19 264.01 212.19"/>
  <path class="cls-3" d="m285.27,203.93H39.46L6.88,244.95h309.8l-31.42-41.02Zm-10.45,8.26l3.97,4.56h-30.59l-2.85-4.56h29.47Zm-21.46,15.91h-9.61l-5.78-10.14h9.26l6.12,10.14Zm-9.61-15.91l2.76,4.56h-9.22l.11.18-2.71-4.75h9.07Zm-64.31,27.09H25.25l26.75-32.25h9.75l-1.64,3.76h6.55l3.27-3.27h98.05v3.27h10.8v-2.62h22.1l8.18,25.04h-29.63v6.06Zm27.61,1.15l-1.64-4.91h13.1l-3.27-8.51-3.11-.16-6.71-18.82h20.62l9.99,20.09h-8.51l3.76,7.41h12.44l2.78,4.91h-39.45Zm37.49-10.92h9.65l2.55,4.23h2.05l-2.64-4.23h33.73l-1.22-1.4h-33.38l-6.34-10.14h30.89l-.97-1.11,19.93,22.89h-48.42l-5.83-10.23Z"/>
  <polygon class="cls-3" points="38.73 223.03 184.42 223.16 188.86 223.16 187.87 217.96 204.09 217.96 207.14 227.29 35.2 227.29 38.73 223.03"/>
  <polygon class="cls-3" points="34.37 228.29 207.46 228.29 209.08 233.22 29.13 233.22 34.37 228.29"/>
  <path class="cls-3" d="m40.4,221.02l147.06,1.33c-.33-1.47-.67-2.93-1-4.4l-142.68-1.01-3.38,4.08Z"/>
  <polygon class="cls-3" points="203.75 216.94 44.85 215.66 49.05 210.59 202.1 211.89 203.75 216.94"/>
  <polygon class="cls-3" points="29.13 234.61 179.45 234.61 179.45 239.28 25.25 239.28 29.13 234.61"/>
  <polygon class="cls-3" points="215.26 208.02 228.9 240.43 227.21 240.43 213.99 208.02 215.26 208.02"/>
  <polygon class="cls-3" points="229.54 215.04 208.16 215.7 208.54 216.76 229.96 215.9 229.54 215.04"/>
  <polygon class="cls-3" points="210.32 221.75 232.87 221.75 233.31 222.62 210.32 222.62 210.32 221.75"/>
  <polygon class="cls-3" points="216.46 234.55 239.01 234.55 239.45 235.43 216.46 235.43 216.46 234.55"/>
</svg>