<?xml version="1.0" encoding="UTF-8"?>
<svg id="Capa_1" data-name="Capa 1" xmlns="http://www.w3.org/2000/svg" viewBox="0 0 500 500">
  <defs>
    <style>
      .cls-1 {
        fill: #252c52;
      }

      .cls-2 {
        fill: #e84721;
      }
    </style>
  </defs>
  <path class="cls-2" d="m39.58,114.44L254.46,7.92c2.2-1.09,4.78-1.1,6.98-.01,71.7,35.17,143.4,70.35,215.1,105.52,5.91,2.9,5.88,11.32-.04,14.19-71.71,34.69-143.42,69.38-215.14,104.07-2.16,1.05-4.68,1.05-6.85.01L39.67,128.62c-5.93-2.84-5.98-11.27-.09-14.19Z"/>
  <path class="cls-1" d="m44.86,257.39l209.1,100.42c2.6,1.25,5.63,1.25,8.24,0l208.58-99.59c7.1-3.39,7.28-13.43.3-17.07l-43.64-22.75c-2.71-1.41-5.94-1.44-8.68-.07-52.47,26.24-104.94,52.47-157.41,78.71-2.65,1.32-5.76,1.34-8.43.05-54.79-26.56-109.58-53.11-164.38-79.67-2.99-1.45-6.53-1.24-9.32.56-11.8,7.59-23.6,15.18-35.4,22.78-6.28,4.04-5.7,13.39,1.03,16.62Z"/>
  <path class="cls-2" d="m44.86,384.79l209.1,100.42c2.6,1.25,5.63,1.25,8.24,0l208.58-99.59c7.1-3.39,7.28-13.43.3-17.07l-43.64-22.75c-2.71-1.41-5.94-1.44-8.68-.07-52.47,26.24-104.94,52.47-157.41,78.71-2.65,1.32-5.76,1.34-8.43.05-54.79-26.56-109.58-53.11-164.38-79.67-2.99-1.45-6.53-1.24-9.32.56-11.8,7.59-23.6,15.18-35.4,22.78-6.28,4.04-5.7,13.39,1.03,16.62Z"/>
</svg>