<?xml version="1.0" encoding="UTF-8"?>
<svg id="Capa_1" data-name="Capa 1" xmlns="http://www.w3.org/2000/svg" viewBox="0 0 500 500">
  <defs>
    <style>
      .cls-1 {
        fill: #006c39;
      }
    </style>
  </defs>
  <circle class="cls-1" cx="250.43" cy="390.92" r="40"/>
  <path class="cls-1" d="m170.42,323.83c23.36-12.31,50.5-19.37,79.46-19.37s58.16,7.6,82.1,20.79l28.68-28.98c-30.57-20.92-69.97-33.52-112.98-33.52-40.57,0-77.92,11.21-107.68,30.04l30.42,31.05Z"/>
  <path class="cls-1" d="m110.56,256.73c35.81-24.94,84.53-40.29,138.22-40.29s106.37,16.62,142.53,43.38l29.45-29.76c-40.36-32.12-101.62-52.61-170.2-52.61s-127.52,19.73-167.88,50.8l27.89,28.47Z"/>
  <path class="cls-1" d="m46.42,191.27c44.68-38.34,120.48-63.56,206.51-63.56s161.64,25.16,206.34,63.42l24.61-24.87c-41.48-48.39-130.07-81.82-232.67-81.82S62.26,117.03,20.14,164.44l26.28,26.83Z"/>
</svg>