<?xml version="1.0" encoding="UTF-8"?>
<svg xmlns="http://www.w3.org/2000/svg" xmlns:xlink="http://www.w3.org/1999/xlink" viewBox="0 0 500 500">
  <defs>
    <style>
      .cls-1 {
        fill: url(#linear-gradient-2);
      }

      .cls-2 {
        fill: url(#radial-gradient-6);
      }

      .cls-2, .cls-3, .cls-4, .cls-5, .cls-6, .cls-7 {
        mix-blend-mode: multiply;
      }

      .cls-3 {
        fill: url(#linear-gradient);
      }

      .cls-4 {
        fill: url(#radial-gradient-2);
      }

      .cls-8 {
        mask: url(#mask-2);
      }

      .cls-9 {
        fill: url(#linear-gradient-6);
      }

      .cls-10 {
        fill: url(#radial-gradient-5);
      }

      .cls-11 {
        isolation: isolate;
      }

      .cls-5 {
        fill: url(#radial-gradient-4);
      }

      .cls-12 {
        mask: url(#mask-3);
      }

      .cls-6 {
        fill: url(#radial-gradient);
      }

      .cls-13 {
        mask: url(#mask-9);
      }

      .cls-14 {
        fill: #e74710;
        stroke: #fff;
        stroke-miterlimit: 10;
      }

      .cls-15 {
        mask: url(#mask-5);
      }

      .cls-7 {
        fill: url(#linear-gradient-9);
      }

      .cls-16 {
        mask: url(#mask-8);
      }

      .cls-17 {
        mask: url(#mask-4);
      }

      .cls-18 {
        fill: url(#linear-gradient-5);
      }

      .cls-19 {
        fill: #232b51;
      }

      .cls-20 {
        clip-path: url(#clippath);
      }

      .cls-21 {
        fill: none;
      }

      .cls-22 {
        fill: url(#radial-gradient-3);
      }

      .cls-23 {
        mask: url(#mask-6);
      }

      .cls-24 {
        fill: url(#linear-gradient-7);
      }

      .cls-25 {
        mask: url(#mask-1);
      }

      .cls-26 {
        mask: url(#mask);
      }

      .cls-27 {
        fill: url(#linear-gradient-3);
      }

      .cls-28 {
        mask: url(#mask-7);
      }

      .cls-29 {
        fill: url(#linear-gradient-4);
      }

      .cls-30 {
        fill: url(#linear-gradient-8);
      }
    </style>
    <filter id="luminosity-noclip" x="-6.6" y="-8607.91" width="404.16" height="32766" color-interpolation-filters="sRGB" filterUnits="userSpaceOnUse">
      <feFlood flood-color="#fff" result="bg"/>
      <feBlend in="SourceGraphic" in2="bg"/>
    </filter>
    <mask id="mask-1" x="-6.6" y="-8607.91" width="404.16" height="32766" maskUnits="userSpaceOnUse"/>
    <radialGradient id="radial-gradient" cx="-2351" cy="-1018.57" fx="-2351" fy="-1018.57" r="52.7" gradientTransform="translate(-3710.11 -2119.27) rotate(-90) scale(1.07 -3.83)" gradientUnits="userSpaceOnUse">
      <stop offset="0" stop-color="#666"/>
      <stop offset="0" stop-color="#646464"/>
      <stop offset=".47" stop-color="#2e2e2e"/>
      <stop offset=".81" stop-color="#0c0c0c"/>
      <stop offset="1" stop-color="#000"/>
    </radialGradient>
    <mask id="mask" x="-6.6" y="345.19" width="404.16" height="113.02" maskUnits="userSpaceOnUse">
      <g class="cls-25">
        <ellipse class="cls-6" cx="195.48" cy="401.7" rx="202.08" ry="56.51"/>
      </g>
    </mask>
    <radialGradient id="radial-gradient-2" cx="-2351" cy="-1018.57" fx="-2351" fy="-1018.57" r="52.7" gradientTransform="translate(-3710.11 -2119.27) rotate(-90) scale(1.07 -3.83)" gradientUnits="userSpaceOnUse">
      <stop offset="0" stop-color="#729eb1"/>
      <stop offset=".15" stop-color="#7ca4b4"/>
      <stop offset=".7" stop-color="#9eb8be"/>
      <stop offset="1" stop-color="#abc0c3"/>
    </radialGradient>
    <radialGradient id="radial-gradient-3" cx="-416.74" cy="203.01" fx="-416.74" fy="203.01" r="847.05" gradientUnits="userSpaceOnUse">
      <stop offset=".63" stop-color="#bed8d9"/>
      <stop offset=".63" stop-color="#c0d9da"/>
      <stop offset=".65" stop-color="#d7e7e9"/>
      <stop offset=".67" stop-color="#e6f0f3"/>
      <stop offset=".7" stop-color="#f0f6f9"/>
      <stop offset=".73" stop-color="#f3f8fb"/>
      <stop offset=".82" stop-color="#f3f8fb"/>
      <stop offset=".82" stop-color="#f3f8fb"/>
      <stop offset=".85" stop-color="#eaf2f5"/>
      <stop offset=".89" stop-color="#d1e3e5"/>
      <stop offset=".92" stop-color="#bed8d9"/>
      <stop offset=".95" stop-color="#b9d2d3"/>
      <stop offset=".99" stop-color="#abc1c3"/>
      <stop offset="1" stop-color="#a6bbbe"/>
    </radialGradient>
    <filter id="luminosity-noclip-2" x="75.89" y="-8607.91" width="314.06" height="32766" color-interpolation-filters="sRGB" filterUnits="userSpaceOnUse">
      <feFlood flood-color="#fff" result="bg"/>
      <feBlend in="SourceGraphic" in2="bg"/>
    </filter>
    <mask id="mask-3" x="75.89" y="-8607.91" width="314.06" height="32766" maskUnits="userSpaceOnUse"/>
    <linearGradient id="linear-gradient" x1="232.91" y1="61.46" x2="232.91" y2="367.75" gradientUnits="userSpaceOnUse">
      <stop offset="0" stop-color="#fff"/>
      <stop offset=".21" stop-color="#000"/>
      <stop offset=".82" stop-color="gray"/>
      <stop offset=".85" stop-color="#8e8e8e"/>
      <stop offset=".9" stop-color="#b3b3b3"/>
      <stop offset=".97" stop-color="#eee"/>
      <stop offset=".99" stop-color="#fff"/>
    </linearGradient>
    <mask id="mask-2" x="75.89" y="61.46" width="314.06" height="306.29" maskUnits="userSpaceOnUse">
      <g class="cls-12">
        <path class="cls-3" d="m341.73,135.01c6.39-22.69,16.71-48,35.76-63.31,3.85-3.1,9.15-7.01,12.46-10.23-9.01.24-19.55,1.21-28.54,1.76-21.71,1.34-112.43,6.94-136.09,8.4-15.36.95-30.71,1.9-46.07,2.84-17.93,1.11-32.32,20.87-40.25,35.15-8.95,16.1-14.1,34.09-17.53,52.1-4.66,24.41-9.88,142.99-11.1,153.97-2.16,19.43-9.81,50.53-34.48,50.74,9.9,0,196.23,1.33,210.73,1.32,16.92-.02,26.89-13.41,32.54-27.85,6.92-17.69,8.74-94.19,9.67-114.03.93-19.87,10.01-80.63,12.9-90.87Z"/>
      </g>
    </mask>
    <linearGradient id="linear-gradient-2" x1="232.91" y1="61.46" x2="232.91" y2="367.75" gradientUnits="userSpaceOnUse">
      <stop offset="0" stop-color="#bed8d9"/>
      <stop offset=".21" stop-color="#f3f8fb"/>
      <stop offset=".82" stop-color="#bed8d9"/>
      <stop offset=".91" stop-color="#b2c9cb"/>
      <stop offset=".99" stop-color="#a6bbbe"/>
    </linearGradient>
    <linearGradient id="linear-gradient-3" x1="163.35" y1="317.25" x2="163.35" y2="399.43" gradientUnits="userSpaceOnUse">
      <stop offset="0" stop-color="#bed8d9"/>
      <stop offset=".03" stop-color="#c2dadb"/>
      <stop offset=".17" stop-color="#d5e6e9"/>
      <stop offset=".27" stop-color="#ddebee"/>
      <stop offset=".4" stop-color="#d4e5e8"/>
      <stop offset=".58" stop-color="#bed8d9"/>
      <stop offset=".7" stop-color="#aecbd0"/>
      <stop offset=".91" stop-color="#84acba"/>
      <stop offset="1" stop-color="#729eb1"/>
    </linearGradient>
    <clipPath id="clippath">
      <path class="cls-21" d="m341.73,135.01c6.39-22.69,16.71-48,35.76-63.31,3.85-3.1,9.15-7.01,12.46-10.23-9.01.24-19.55,1.21-28.54,1.76-21.71,1.34-112.43,6.94-136.09,8.4-15.36.95-30.71,1.9-46.07,2.84-17.93,1.11-32.32,20.87-40.25,35.15-8.95,16.1-14.1,34.09-17.53,52.1-4.66,24.41-9.88,142.99-11.1,153.97-2.16,19.43-9.81,50.53-34.48,50.74,9.9,0,196.23,1.33,210.73,1.32,16.92-.02,26.89-13.41,32.54-27.85,6.92-17.69,8.74-94.19,9.67-114.03.93-19.87,10.01-80.63,12.9-90.87Z"/>
    </clipPath>
    <filter id="luminosity-noclip-3" x="216.65" y="-8607.91" width="176.96" height="32766" color-interpolation-filters="sRGB" filterUnits="userSpaceOnUse">
      <feFlood flood-color="#fff" result="bg"/>
      <feBlend in="SourceGraphic" in2="bg"/>
    </filter>
    <mask id="mask-5" x="216.65" y="-8607.91" width="176.96" height="32766" maskUnits="userSpaceOnUse"/>
    <radialGradient id="radial-gradient-4" cx="1570.26" cy="447.6" fx="1570.26" fy="447.6" r="95.78" gradientTransform="translate(-1140.37 -129.1) scale(.92 .94)" gradientUnits="userSpaceOnUse">
      <stop offset=".28" stop-color="#666"/>
      <stop offset=".49" stop-color="#464646"/>
      <stop offset="1" stop-color="#000"/>
    </radialGradient>
    <mask id="mask-4" x="216.65" y="203.5" width="176.96" height="180.39" maskUnits="userSpaceOnUse">
      <g class="cls-15">
        <ellipse class="cls-5" cx="305.14" cy="293.69" rx="88.17" ry="90.45" transform="translate(-84.18 126.98) rotate(-20.72)"/>
      </g>
    </mask>
    <radialGradient id="radial-gradient-5" cx="1570.26" cy="447.6" fx="1570.26" fy="447.6" r="95.78" gradientTransform="translate(-1140.37 -129.1) scale(.92 .94)" gradientUnits="userSpaceOnUse">
      <stop offset=".28" stop-color="#729eb1"/>
      <stop offset="1" stop-color="#abc0c3"/>
    </radialGradient>
    <linearGradient id="linear-gradient-4" x1="451.12" y1="75.2" x2="224.05" y2="387.88" gradientUnits="userSpaceOnUse">
      <stop offset="0" stop-color="#e3ecf1"/>
      <stop offset=".04" stop-color="#d5e4e7"/>
      <stop offset=".09" stop-color="#c7dddf"/>
      <stop offset=".16" stop-color="#c0d9da"/>
      <stop offset=".3" stop-color="#bed8d9"/>
      <stop offset=".4" stop-color="#aac9ce"/>
      <stop offset=".59" stop-color="#78a3b4"/>
      <stop offset=".61" stop-color="#729eb1"/>
      <stop offset=".68" stop-color="#93b7c2"/>
      <stop offset=".77" stop-color="#bed8d9"/>
      <stop offset=".87" stop-color="#c0d9da"/>
      <stop offset=".93" stop-color="#c8dddf"/>
      <stop offset=".97" stop-color="#d6e5e8"/>
      <stop offset="1" stop-color="#e3ecf1"/>
    </linearGradient>
    <linearGradient id="linear-gradient-5" x1="256.31" y1="101.17" x2="256.31" y2="140.58" gradientUnits="userSpaceOnUse">
      <stop offset=".14" stop-color="#a6bbbe"/>
      <stop offset=".16" stop-color="#a8bec1"/>
      <stop offset=".28" stop-color="#b8d1d2"/>
      <stop offset=".36" stop-color="#bed8d9"/>
      <stop offset=".47" stop-color="#bad3d4"/>
      <stop offset=".6" stop-color="#afc5c8"/>
      <stop offset=".68" stop-color="#a6bbbe"/>
      <stop offset=".74" stop-color="#9bafb2"/>
      <stop offset=".85" stop-color="#809093"/>
      <stop offset=".9" stop-color="#717f82"/>
    </linearGradient>
    <linearGradient id="linear-gradient-6" x1="241.1" y1="145.12" x2="241.1" y2="188.77" xlink:href="#linear-gradient-5"/>
    <linearGradient id="linear-gradient-7" x1="235.31" y1="196.35" x2="235.31" y2="234.57" xlink:href="#linear-gradient-5"/>
    <linearGradient id="linear-gradient-8" x1="226.62" y1="242.11" x2="226.62" y2="285.92" xlink:href="#linear-gradient-5"/>
    <filter id="luminosity-noclip-4" x="195.32" y="-8607.91" width="197.01" height="32766" color-interpolation-filters="sRGB" filterUnits="userSpaceOnUse">
      <feFlood flood-color="#fff" result="bg"/>
      <feBlend in="SourceGraphic" in2="bg"/>
    </filter>
    <mask id="mask-7" x="195.32" y="-8607.91" width="197.01" height="32766" maskUnits="userSpaceOnUse"/>
    <linearGradient id="linear-gradient-9" x1="2291.98" y1="1474.53" x2="2474.74" y2="1502.88" gradientTransform="translate(-2525.2 590.82) rotate(-38.84)" gradientUnits="userSpaceOnUse">
      <stop offset=".08" stop-color="#fff"/>
      <stop offset=".08" stop-color="#e7e7e7"/>
      <stop offset=".09" stop-color="#aaa"/>
      <stop offset=".11" stop-color="#767676"/>
      <stop offset=".12" stop-color="#4b4b4b"/>
      <stop offset=".13" stop-color="#2a2a2a"/>
      <stop offset=".15" stop-color="#131313"/>
      <stop offset=".16" stop-color="#040404"/>
      <stop offset=".17" stop-color="#000"/>
      <stop offset=".55" stop-color="#000"/>
      <stop offset=".6" stop-color="#040404"/>
      <stop offset=".66" stop-color="#111"/>
      <stop offset=".72" stop-color="#262626"/>
      <stop offset=".77" stop-color="#444"/>
      <stop offset=".83" stop-color="#6a6a6a"/>
      <stop offset=".89" stop-color="#999"/>
      <stop offset=".95" stop-color="#cfcfcf"/>
      <stop offset="1" stop-color="#fff"/>
    </linearGradient>
    <mask id="mask-6" x="194.82" y="169.83" width="198.01" height="135.84" maskUnits="userSpaceOnUse">
      <g class="cls-28">
        <path class="cls-7" d="m390.37,193.05l-9.02-15.51c-4.02-6.91-12.89-9.26-19.8-5.24l-100.5,58.45-31.03,18.05-24.06,13.99c-3.26,1.9-5.65,4.99-6.67,8.62l-3.43,12.3c-2.2,7.89,2.57,16.04,10.53,17.97l12.69,3.08c3.63.88,7.47.32,10.7-1.55l155.35-90.36c6.91-4.02,9.26-12.89,5.24-19.8Z"/>
      </g>
    </mask>
    <filter id="luminosity-noclip-5" x="324.23" y="-8607.91" width="145.39" height="32766" color-interpolation-filters="sRGB" filterUnits="userSpaceOnUse">
      <feFlood flood-color="#fff" result="bg"/>
      <feBlend in="SourceGraphic" in2="bg"/>
    </filter>
    <mask id="mask-9" x="324.23" y="-8607.91" width="145.39" height="32766" maskUnits="userSpaceOnUse"/>
    <radialGradient id="radial-gradient-6" cx="219.87" cy="906.98" fx="219.87" fy="906.98" r="54.25" gradientTransform="translate(-1835.17 -1629.89) rotate(-38.84) scale(3.11)" gradientUnits="userSpaceOnUse">
      <stop offset="0" stop-color="#fff"/>
      <stop offset=".03" stop-color="#fafafa"/>
      <stop offset=".05" stop-color="#eee"/>
      <stop offset=".08" stop-color="#d9d9d9"/>
      <stop offset=".11" stop-color="#bbb"/>
      <stop offset=".14" stop-color="#959595"/>
      <stop offset=".17" stop-color="#676767"/>
      <stop offset=".2" stop-color="#313131"/>
      <stop offset=".22" stop-color="#000"/>
      <stop offset=".85" stop-color="#000"/>
      <stop offset=".85" stop-color="#040404"/>
      <stop offset=".88" stop-color="#5c5c5c"/>
      <stop offset=".91" stop-color="#a2a2a2"/>
      <stop offset=".94" stop-color="#d4d4d4"/>
      <stop offset=".96" stop-color="#f3f3f3"/>
      <stop offset=".97" stop-color="#fff"/>
    </radialGradient>
    <mask id="mask-8" x="323.73" y="123.86" width="146.39" height="111.68" maskUnits="userSpaceOnUse">
      <g class="cls-13">
        <path class="cls-2" d="m459.6,175.76s-98.07,57.05-98.24,57.14c-11.83,6.88-25.95-4.34-31.33-12.42-5.93-8.9-10.44-28.49,2.85-36.22,0,0,98.32-57.19,98.38-57.22,14.18-8.25,30.91,4.15,35.8,15.08,4.16,9.3,4.24,26.83-7.47,33.64Z"/>
      </g>
    </mask>
  </defs>
  <g class="cls-11">
    <g id="_Layer_" data-name="&amp;lt;Layer&amp;gt;">
      <g class="cls-26">
        <ellipse class="cls-4" cx="195.48" cy="401.7" rx="202.08" ry="56.51"/>
      </g>
      <path class="cls-22" d="m341.73,135.01c6.39-22.69,16.71-48,35.76-63.31,3.85-3.1,9.15-7.01,12.46-10.23-9.01.24-19.55,1.21-28.54,1.76-21.71,1.34-112.43,6.94-136.09,8.4-15.36.95-30.71,1.9-46.07,2.84-17.93,1.11-32.32,20.87-40.25,35.15-8.95,16.1-14.1,34.09-17.53,52.1-4.66,24.41-9.88,142.99-11.1,153.97-2.16,19.43-9.81,50.53-34.48,50.74,9.9,0,196.23,1.33,210.73,1.32,16.92-.02,26.89-13.41,32.54-27.85,6.92-17.69,8.74-94.19,9.67-114.03.93-19.87,10.01-80.63,12.9-90.87Z"/>
      <g class="cls-8">
        <path class="cls-1" d="m341.73,135.01c6.39-22.69,16.71-48,35.76-63.31,3.85-3.1,9.15-7.01,12.46-10.23-9.01.24-19.55,1.21-28.54,1.76-21.71,1.34-112.43,6.94-136.09,8.4-15.36.95-30.71,1.9-46.07,2.84-17.93,1.11-32.32,20.87-40.25,35.15-8.95,16.1-14.1,34.09-17.53,52.1-4.66,24.41-9.88,142.99-11.1,153.97-2.16,19.43-9.81,50.53-34.48,50.74,9.9,0,196.23,1.33,210.73,1.32,16.92-.02,26.89-13.41,32.54-27.85,6.92-17.69,8.74-94.19,9.67-114.03.93-19.87,10.01-80.63,12.9-90.87Z"/>
      </g>
      <path class="cls-27" d="m281.59,381.39c-9.64-2.2-16.12-8.02-21.4-16.2-3.91-6.07-7.27-12.58-8.52-19.74-1.26-7.23.42-12.56,7.37-16.49-7.04.01-207.89,1.79-210.9,1.81-6.23.05-9.39,6.3-9.51,11.71-.12,5.45,1.63,10.95,3.73,15.91,2.99,7.09,7.66,13.75,13.87,18.38,5.48,4.09,12.65,6.52,19.59,6.54,0,0,212.22.55,212.25.55-2.63-.69-4.17-1.96-6.47-2.49Z"/>
      <g class="cls-20">
        <g class="cls-17">
          <ellipse class="cls-10" cx="305.14" cy="293.69" rx="88.17" ry="90.45" transform="translate(-84.18 126.98) rotate(-20.72)"/>
        </g>
      </g>
      <path class="cls-29" d="m398.71,67.07c-1.73-4.13-6.35-6.99-10.74-5.05-7.82,3.47-14.81,9.17-21,16.51-14.02,16.65-22.23,38.54-27.79,59.33-4.94,18.46-7.83,37.71-9.55,56.73-1.26,13.9-1.95,27.88-2.45,41.83-.7,19.63-1.02,39.28-2.04,58.89-.78,15-2.17,31.43-7.91,45.46-6.72,16.41-32.74,39.39-45.8,14.37-3.38-6.48-3.06-13.8-5.51-20.5-.75-2.04-2.04-4.28-4.1-5.21-5.64-2.56-10.9,3.92-11.67,8.77-1.78,11.18,4.9,25.43,12.19,33.72,4.96,5.63,12.25,10.02,19.62,11.39,6.32,1.17,13.69.29,19.68-2.02,14.14-5.45,24.18-18.23,30.05-31.78,4.74-10.93,7.2-23.13,8.56-34.93,2.95-25.59,2.59-51.5,3.5-77.21.48-13.62,1.15-27.24,2.37-40.82,1.59-17.64,4.1-35.32,8.2-52.56,4.21-17.67,10.57-37.01,22.34-51.17,5.21-6.27,11.27-11.16,18.35-14.31,4.61-2.05,5.41-7.3,3.68-11.46Z"/>
      <path class="cls-18" d="m223.38,129.09c-5.61,0-10.22-4.49-10.33-10.13-.12-5.71,4.42-10.43,10.12-10.55l65.86-1.05c5.71-.1,10.43,4.42,10.55,10.12.12,5.71-4.42,10.43-10.12,10.55l-65.86,1.05c-.07,0-.14,0-.22,0Z"/>
      <circle class="cls-19" cx="186.09" cy="118.23" r="14.01" transform="translate(29.21 273.14) rotate(-77.07)"/>
      <circle class="cls-19" cx="170.88" cy="166.52" r="14.01" transform="translate(-9.85 322.28) rotate(-85.01)"/>
      <circle class="cls-19" cx="165.09" cy="214.8" r="14.01" transform="translate(-68.02 352.84) rotate(-83.09)"/>
      <circle class="cls-19" cx="163.64" cy="263.09" r="14.01"/>
      <path class="cls-9" d="m208.17,177.38c-5.61,0-10.22-4.49-10.33-10.13-.12-5.71,4.42-10.43,10.12-10.55l65.85-1.05c5.71-.13,10.43,4.42,10.55,10.12.12,5.71-4.42,10.43-10.12,10.55l-65.85,1.05c-.07,0-.14,0-.22,0Z"/>
      <path class="cls-24" d="m202.38,225.66c-5.61,0-10.22-4.49-10.33-10.13-.12-5.71,4.42-10.43,10.12-10.55l65.86-1.05c5.71-.11,10.43,4.42,10.55,10.12.12,5.71-4.42,10.43-10.12,10.55l-65.86,1.05c-.07,0-.14,0-.22,0Z"/>
      <path class="cls-30" d="m200.93,273.95c-5.61,0-10.22-4.49-10.33-10.13-.12-5.71,4.42-10.43,10.12-10.55l51.37-1.05c5.71-.14,10.43,4.42,10.55,10.12.12,5.71-4.42,10.43-10.12,10.55l-51.37,1.05c-.07,0-.14,0-.22,0Z"/>
      <g>
        <path class="cls-14" d="m206.16,300.23l-10.4.47c-3.72.17-6.08-4.46-3.76-7.37l6.4-8.06c1.85-2.33,5.5-1.8,6.98,1.01l3.99,7.59c1.51,2.86-.19,6.22-3.22,6.36Z"/>
        <path class="cls-14" d="m390.37,193.05l-9.02-15.51c-4.02-6.91-12.89-9.26-19.8-5.24l-100.5,58.45-31.03,18.05-24.06,13.99c-3.26,1.9-5.65,4.99-6.67,8.62l-3.43,12.3c-2.2,7.89,2.57,16.04,10.53,17.97l12.69,3.08c3.63.88,7.47.32,10.7-1.55l155.35-90.36c6.91-4.02,9.26-12.89,5.24-19.8Z"/>
        <g class="cls-23">
          <path class="cls-14" d="m390.37,193.05l-9.02-15.51c-4.02-6.91-12.89-9.26-19.8-5.24l-100.5,58.45-31.03,18.05-24.06,13.99c-3.26,1.9-5.65,4.99-6.67,8.62l-3.43,12.3c-2.2,7.89,2.57,16.04,10.53,17.97l12.69,3.08c3.63.88,7.47.32,10.7-1.55l155.35-90.36c6.91-4.02,9.26-12.89,5.24-19.8Z"/>
        </g>
        <path class="cls-14" d="m459.6,175.76s-98.07,57.05-98.24,57.14c-11.83,6.88-25.95-4.34-31.33-12.42-5.93-8.9-10.44-28.49,2.85-36.22,0,0,98.32-57.19,98.38-57.22,14.18-8.25,30.91,4.15,35.8,15.08,4.16,9.3,4.24,26.83-7.47,33.64Z"/>
        <g class="cls-16">
          <path class="cls-14" d="m459.6,175.76s-98.07,57.05-98.24,57.14c-11.83,6.88-25.95-4.34-31.33-12.42-5.93-8.9-10.44-28.49,2.85-36.22,0,0,98.32-57.19,98.38-57.22,14.18-8.25,30.91,4.15,35.8,15.08,4.16,9.3,4.24,26.83-7.47,33.64Z"/>
        </g>
        <path class="cls-14" d="m336.3,168.56c23.03-20.04,49.77-36.84,79.22-49.52,7.28-2.79,15.76-.55,18.75,4.7.62,1.05,1.24,2.1,1.86,3.16,3,5.27-.44,11.78-7.49,14.86-29.29,12.62-55.93,29.17-78.93,48.79-5.54,4.75-12.9,3.77-16.72-2.41h0c-3.81-6.18-2.44-15.04,3.32-19.57Z"/>
      </g>
    </g>
  </g>
</svg>