<?xml version="1.0" encoding="UTF-8"?>
<svg id="Capa_1" data-name="Capa 1" xmlns="http://www.w3.org/2000/svg" viewBox="0 0 500 500">
  <defs>
    <style>
      .cls-1 {
        fill: #2b3052;
      }

      .cls-2 {
        fill: #c94828;
      }
    </style>
  </defs>
  <path class="cls-1" d="m444.62,170.22H60.19c-26.14,0-47.34,21.19-47.34,47.34v108.55c0,26.14,21.19,47.34,47.34,47.34h37.54v-91.06c0-12.28,9.96-22.24,22.24-22.24h255.88c12.28,0,22.24,9.96,22.24,22.24v91.06h46.52c26.14,0,47.34-21.19,47.34-47.34v-108.55c0-26.14-21.19-47.34-47.34-47.34ZM93.24,248.78c0,5.52-4.48,10-10,10h-12.24c-5.52,0-10-4.48-10-10v-12.24c0-5.52,4.48-10,10-10h12.24c5.52,0,10,4.48,10,10v12.24Z"/>
  <rect class="cls-2" x="125.48" y="293.48" width="239.15" height="152.61"/>
  <path class="cls-2" d="m406.05,140.02v-57.85c0-14.48-11.05-26.22-24.69-26.22H123.44c-13.64,0-24.69,11.74-24.69,26.22v57.85h307.3Z"/>
</svg>