<?xml version="1.0" encoding="UTF-8"?>
<svg id="Capa_1" data-name="Capa 1" xmlns="http://www.w3.org/2000/svg" viewBox="0 0 500 500">
  <defs>
    <style>
      .cls-1 {
        fill: #242b51;
      }

      .cls-2 {
        fill: #e84721;
        stroke: #e73e1e;
        stroke-miterlimit: 10;
        stroke-width: 20px;
      }
    </style>
  </defs>
  <path class="cls-1" d="m299.52,93.19s23.72-41.33,31.17-37.95c7.45,3.39,60.98,37.95,60.98,37.95l-19.65,46.08-75.89-39.03,3.39-7.05Z"/>
  <path class="cls-2" d="m397.24,79.97l-61.62-35.57c-10.06-5.81-22.93-2.36-28.74,7.7l-148.05,256.43c-2.52,4.36-3.29,9.25-2.55,13.87l-.28-.14-18.33,136.17,113.47-86.87c.16-.12.32-.24.47-.36h0c2.07-1.62,3.87-3.64,5.26-6.05L404.94,108.71c5.81-10.06,2.36-22.93-7.7-28.74Zm-228.06,330.7l4.06-49.64,35.57,22.2-39.63,27.44Zm63.53-49.64l-52.03-30.04,115.28-199.67,52.03,30.04-115.28,199.67Zm132.04-228.69l-52.03-30.04,19.72-34.15,52.03,30.04-19.72,34.15Z"/>
</svg>