<?xml version="1.0" encoding="UTF-8"?>
<svg id="Capa_1" data-name="Capa 1" xmlns="http://www.w3.org/2000/svg" viewBox="0 0 500 500">
  <defs>
    <style>
      .cls-1 {
        fill: #c94826;
        stroke-width: 20px;
      }

      .cls-1, .cls-2 {
        stroke: #c94824;
        stroke-miterlimit: 10;
      }

      .cls-2 {
        fill: none;
        stroke-width: 40px;
      }
    </style>
  </defs>
  <circle class="cls-2" cx="251" cy="246.38" r="217.84"/>
  <path class="cls-1" d="m337.2,308.44l-63.77-63.77,60.95-60.95c5.71-5.71,5.71-14.96,0-20.67-5.71-5.71-14.96-5.71-20.67,0l-60.95,60.95-65.58-65.58c-6.18-6.18-16.21-6.18-22.39,0-6.18,6.18-6.18,16.21,0,22.39l65.58,65.58-65.09,65.09c-5.71,5.71-5.71,14.96,0,20.67,5.71,5.71,14.96,5.71,20.67,0l65.09-65.09,63.77,63.77c6.18,6.18,16.21,6.18,22.39,0s6.18-16.21,0-22.39Z"/>
</svg>