<?xml version="1.0" encoding="UTF-8"?>
<svg id="Capa_1" data-name="Capa 1" xmlns="http://www.w3.org/2000/svg" xmlns:xlink="http://www.w3.org/1999/xlink" viewBox="0 0 500 500">
  <defs>
    <style>
      .cls-1 {
        fill: #211915;
      }

      .cls-2 {
        fill: #002c50;
      }

      .cls-3 {
        fill: #ca5b1f;
      }
    </style>
  </defs>
  <image width="225" height="225" transform="translate(196.96 244.48) scale(.72)" xlink:href="../credito01.png"/>
  <path class="cls-1" d="m337.68,265.64h-118.49c-12.28,0-22.23,9.95-22.23,22.23v76.17c0,12.28,9.95,22.23,22.23,22.23h118.49c12.28,0,22.23-9.95,22.23-22.23v-76.17c0-12.28-9.95-22.23-22.23-22.23Zm1.82,114.27h-122.13c-7.76,0-14.06-6.29-14.06-14.06v-79.81c0-7.76,6.29-14.06,14.06-14.06h122.13c7.76,0,14.06,6.29,14.06,14.06v79.81c0,7.76-6.29,14.06-14.06,14.06Z"/>
  <rect class="cls-1" x="211.77" y="284.68" width="48.67" height="8.46"/>
  <rect class="cls-1" x="211.77" y="303.73" width="27.51" height="6.35"/>
  <rect class="cls-1" x="211.77" y="350.28" width="27.51" height="8.46"/>
  <rect class="cls-1" x="245.63" y="350.28" width="27.51" height="8.46"/>
  <rect class="cls-1" x="281.6" y="350.28" width="27.51" height="8.46"/>
  <rect class="cls-1" x="315.46" y="350.28" width="27.51" height="8.46"/>
  <circle class="cls-1" cx="308.06" cy="298.44" r="13.75"/>
  <circle class="cls-1" cx="327.1" cy="298.44" r="13.75"/>
  <polygon class="cls-2" points="332.39 494.18 419.15 494.18 419.15 475.44 332.39 484.81 332.39 494.18"/>
  <path class="cls-2" d="m338.05,473.55l72.48-6.88-19.57-48.67c-1.97-4.04-6.15-11.24-14.13-17.47-9.41-7.35-19.02-9.38-23.57-10.04h-75.89c-6.24.3-11.21,5.1-11.72,10.83-.57,6.44,4.65,12.58,11.72,12.98,11.41-.18,22.82-.35,34.23-.53,2.77.31,4.85,2.7,4.78,5.42-.07,2.63-2.11,4.86-4.78,5.16h-52.96c-2.65.17-6.95.12-11.91-1.48-5.12-1.64-8.72-4.21-10.78-5.93-13.72-8.82-27.43-17.63-41.15-26.45-5.11-4.25-12.61-3.76-16.93.84-3.98,4.25-4.34,11.03-.64,15.9,13.05,12.06,26.1,24.11,39.15,36.17,3.98,4.02,11.49,10.47,22.74,14.17,5.89,1.94,11.22,2.6,15.36,2.76,21.51.35,43.03.71,64.54,1.06,2.37.37,6.46,1.31,10.78,4.07,4.34,2.77,6.94,6.1,8.27,8.1Z"/>
  <path class="cls-1" d="m303.33,6.03c-31.89,38.24-63.78,76.47-95.67,114.71,11.42,6.19,22.85,12.37,34.27,18.56,1.72,1.59,7.03,6.88,8.57,15.71,1.53,8.78-1.63,15.53-2.71,17.61-1.95,1.94-5.78,5.22-11.57,7.14-7.75,2.58-14.42,1.2-17.13.48-10.15-3.33-20.31-6.66-30.46-10l65.68,55.21,129.46-152.31L303.33,6.03Zm-24.16,144.2c-18.92,0-34.25-15.34-34.25-34.25s15.34-34.25,34.25-34.25,34.25,15.34,34.25,34.25-15.34,34.25-34.25,34.25Z"/>
  <path class="cls-1" d="m282.55,108.63c-2.57,1.67-5.14,3.34-7.7,5-1.39.92-3.17.9-4.38-.03-1.48-1.13-1.87-3.4-.71-5.15l8.17-6.93s-2.49-5.15-4.97-6.57c-3.74,2.74-7.49,5.48-11.23,8.21-.79.95-2.58,3.35-2.91,6.86-.46,4.85,2.21,8.3,3.02,9.3,3.58,4.44,8.68,5.12,9.79,5.24,3.32-2.21,6.64-4.43,9.96-6.64,2.06-1.64,5.05-1.2,6.48.79,1.32,1.84.99,4.54-.87,6.08-3.03,2.55-6.07,5.09-9.1,7.64l5.51,6.04c3.12-2.47,6.24-4.95,9.36-7.42,2.31-1.83,3.17-3.36,3.96-5.37,1.37-3.47,1.66-9.12-2.13-13.32-3.03-3.36-7.74-4.78-12.26-3.73Z"/>
  <path class="cls-3" d="m100.92,155.6h11.39v-86.76h-19.57l8.18,86.76Z"/>
  <path class="cls-3" d="m240.51,164.46c2.92-5.75,1.19-12.93-4.13-16.8-14.25-7.96-28.49-15.92-42.74-23.88-4.61-1.64-7.29-6.25-6.48-10.61.66-3.58,3.58-6.5,7.37-7.37,4.32.29,8.65.59,12.97.88l30.66-37.73-34.78-6.48c-3.6-.65-7.98-1.17-12.97-1.18-5.11-.01-9.59.51-13.26,1.18-12.28,3.73-24.56,7.47-36.85,11.2-1.22.34-2.93.78-5.01,1.18-1.99.38-3.49.56-5.83.83-1.68.2-3.91.43-6.56.64v66.62l21.22-6.37c.6-.4,1.95-1.18,3.83-1.29,2.4-.14,4.14.91,4.72,1.29,3.83,4.09,7.66,8.18,11.5,12.27,1.14,1.41,3.42,3.83,7.07,5.6,3.54,1.71,6.75,2.02,8.55,2.06,15.13,4.91,30.26,9.83,45.39,14.74,6.1,1.61,12.52-1.26,15.33-6.78Z"/>
</svg>