<?xml version="1.0" encoding="UTF-8"?>
<svg id="Capa_1" data-name="Capa 1" xmlns="http://www.w3.org/2000/svg" viewBox="0 0 500 500">
  <defs>
    <style>
      .cls-1, .cls-2 {
        fill: #989899;
        stroke: #989899;
        stroke-miterlimit: 10;
      }

      .cls-3 {
        fill: #fff;
      }

      .cls-2 {
        stroke-width: 5px;
      }
    </style>
  </defs>
  <rect class="cls-3" x="15.33" y="19" width="469.34" height="456.51" rx="121.92" ry="121.92"/>
  <line class="cls-1" x1="261.55" y1="350.27" x2="228.23" y2="335.25"/>
  <path class="cls-1" d="m418.19,215.31l-36.5-50.47c.27-.13.55-.26.82-.39-41.33-14.48-82.65-28.96-123.98-43.45-41.21,14.72-82.42,29.43-123.62,44.15l-39.56,51.22,131.04,62.17,30.38-41.85v106.18l-28.54-12.41-3.92,9.54,37.23,13.55,122.73-52.76v-68.02l33.91-17.46Zm-14.13-1.77c-33.44,17.19-66.88,34.38-100.31,51.57-11.54-14.83-23.08-29.67-34.61-44.5,35.44-15.66,70.88-31.32,106.32-46.98,9.54,13.3,19.07,26.61,28.61,39.91Zm-249.02-46.35l99.25-33.48v46.98h9.18v-46.98l97.13,33.48-97.84,46.35-109.85-44.86,2.12-1.49Zm106.32,55.18l2.56,3.53h0l-2.56-3.53Zm-37.44,44.15l-114.44-52.98,31.08-39.91,114.09,48.21-30.73,44.68Zm149.76,25.17l-107.38,51.07-.35.16v-114.21l34.26,47.34,73.47-37.83v53.47Z"/>
  <path class="cls-2" d="m204.5,285.82v39.69l-53.69,24.76v-64.45l25.78-11.53-4.24-7.77-29.32,12.36-51.92-22.25,26.49-13.45-8.12-7.74-38.15,17.31v80.53l72.06,30.38,71.35-32.5v-45.34h-10.24Zm-64.28,64.45l-59.34-24.06v-63.58l59.34,24.73v62.91Z"/>
</svg>