<?xml version="1.0" encoding="UTF-8"?>
<svg id="Capa_1" data-name="Capa 1" xmlns="http://www.w3.org/2000/svg" viewBox="0 0 500 500">
  <defs>
    <style>
      .cls-1, .cls-2 {
        fill: #989899;
        stroke: #989899;
        stroke-miterlimit: 10;
      }

      .cls-3 {
        fill: #fff;
      }

      .cls-2 {
        stroke-width: 5px;
      }
    </style>
  </defs>
  <rect class="cls-3" x="15.33" y="15.25" width="469.34" height="456.51" rx="121.92" ry="121.92"/>
  <rect class="cls-2" x="128.54" y="130.88" width="110.18" height="23.53" rx="10.88" ry="10.88"/>
  <circle class="cls-2" cx="281.89" cy="142.65" r="11.77"/>
  <circle class="cls-2" cx="318.95" cy="142.65" r="11.77"/>
  <circle class="cls-2" cx="355.32" cy="141.58" r="11.77"/>
  <path class="cls-1" d="m376.18,81.67H123.73c-23.34,0-42.25,18.92-42.25,42.25v227.85c0,23.34,18.92,42.25,42.25,42.25h24.6c2.07,0,3.74-1.68,3.74-3.74v-17.12c0-2.07-1.68-3.74-3.74-3.74h-24.07c-8.86,0-16.05-7.18-16.05-16.05v-151.37c0-2.07,1.68-3.74,3.74-3.74h278.13c2.07,0,3.74,1.68,3.74,3.74v151.37c0,8.86-7.18,16.05-16.05,16.05h-30.49c-2.07,0-3.74,1.68-3.74,3.74v17.12c0,2.07,1.68,3.74,3.74,3.74h28.88c23.34,0,42.25-18.92,42.25-42.25V123.93c0-23.34-18.92-42.25-42.25-42.25Zm13.91,88.79H111.96c-2.07,0-3.74-1.68-3.74-3.74v-37.98c0-8.86,7.18-16.05,16.05-16.05h253.53c8.86,0,16.05,7.18,16.05,16.05v37.98c0,2.07-1.68,3.74-3.74,3.74Z"/>
  <path class="cls-2" d="m331.22,308.41h-10.75c-1.75-9.58-5.38-18.5-10.49-26.36l10.03-8.65c3.37-2.91,3.75-8.01.84-11.38l-3.23-3.75c-2.91-3.37-8.01-3.75-11.38-.84l-10.2,8.8c-10.08-8.55-22.53-14.38-36.22-16.39v-12.88c0-4.46-3.61-8.07-8.07-8.07h-4.95c-4.46,0-8.07,3.61-8.07,8.07v12.87c-12.8,1.86-24.52,7.07-34.23,14.71l-7.89-6.88c-3.36-2.93-8.46-2.58-11.38.78l-3.25,3.73c-2.93,3.36-2.58,8.46.78,11.38l7.23,6.3c-5.9,8.38-10.07,18.08-11.98,28.56h-10.75c-4.46,0-8.07,3.61-8.07,8.07v4.95c0,4.46,3.61,8.07,8.07,8.07h10.02c1.21,10.98,4.87,21.21,10.43,30.15l-5.64,4.86c-3.37,2.91-3.75,8.01-.84,11.38l3.23,3.75c2.91,3.37,8.01,3.75,11.38.84l5.48-4.72c10.29,9.1,23.19,15.31,37.43,17.38v7.8c0,4.46,3.61,8.07,8.07,8.07h4.95c4.46,0,8.07-3.61,8.07-8.07v-7.81c14.86-2.18,28.25-8.86,38.74-18.63l7.8,6.8c3.36,2.93,8.46,2.58,11.38-.78l3.25-3.73c2.93-3.36,2.58-8.46-.78-11.38l-8.46-7.37c5.01-8.55,8.31-18.22,9.45-28.54h10.02c4.46,0,8.07-3.61,8.07-8.07v-4.95c0-4.46-3.61-8.07-8.07-8.07Zm-81.99,54.52c-24,0-43.45-19.45-43.45-43.45s19.45-43.45,43.45-43.45,43.45,19.45,43.45,43.45-19.45,43.45-43.45,43.45Z"/>
</svg>