<?xml version="1.0" encoding="UTF-8"?>
<svg id="Capa_1" data-name="Capa 1" xmlns="http://www.w3.org/2000/svg" viewBox="0 0 500 500">
  <defs>
    <style>
      .cls-1 {
        fill: #252c52;
      }

      .cls-2 {
        fill: #e84721;
      }
    </style>
  </defs>
  <path class="cls-1" d="m288.65,345.26c12.63,12.86,25.25,25.72,37.88,38.58,27.59-36.71,55.18-73.41,82.77-110.12,3.68-4.07,9.53-5.15,14.03-2.81,5.22,2.72,7.59,9.54,4.91,15.43-29.23,41.15-58.45,82.3-87.68,123.45-2.38,5.27-7.58,8.35-12.63,7.72-5.18-.65-7.99-4.95-8.42-5.61-16.6-16.96-33.2-33.92-49.8-50.88-2.07-5-.94-10.73,2.81-14.35,4.22-4.08,10.95-4.73,16.13-1.4Z"/>
  <path class="cls-2" d="m355.99,316.21V120.46c0-13.75-11.15-24.9-24.9-24.9h-194.99c-13.75,0-24.9,11.15-24.9,24.9v305.87c0,13.75,11.15,24.9,24.9,24.9h194.99c13.75,0,24.9-11.15,24.9-24.9v-3.14c-5.7,7.58-15.19,12.55-25.95,12.55-3.38,0-6.63-.5-9.69-1.4h-174.08c-8.13,0-14.73-6.59-14.73-14.73V127.83c0-8.13,6.59-14.73,14.73-14.73h175.35c8.13,0,14.73,6.59,14.73,14.73v212.52l19.64-24.15Z"/>
  <rect class="cls-2" x="188.35" y="139.75" width="98.9" height="11.22" rx="5.61" ry="5.61"/>
  <rect class="cls-1" x="188.35" y="170.68" width="98.9" height="11.22" rx="5.61" ry="5.61"/>
  <rect class="cls-2" x="153.98" y="199.14" width="161.32" height="11.22" rx="5.61" ry="5.61"/>
  <rect class="cls-1" x="152.93" y="228.91" width="161.32" height="11.22" rx="5.61" ry="5.61"/>
  <rect class="cls-2" x="152.93" y="258.69" width="161.32" height="11.22" rx="5.61" ry="5.61"/>
  <path class="cls-1" d="m163.3,318.61h124.34c3.07,0,4.39-3.88,1.96-5.76l-16.22-12.51c-.56-.43-1.25-.67-1.96-.67h-89.12c-.63,0-1.24.18-1.77.53l-19,12.51c-2.66,1.75-1.42,5.9,1.77,5.9Z"/>
  <path class="cls-1" d="m272.12,392.09c-5.92-3.77-10.9-8.4-14.62-13.63h-.01s0-.01,0-.01c-4.74-6.67-7.44-14.34-7.44-22.49,0-9.08,3.36-17.55,9.15-24.72h-70.85v35.77l-8.77,11.92-8.77-11.92v-35.77h-5.96c-6,0-10.87,4.87-10.87,10.87v49.8c0,6,4.87,10.87,10.87,10.87h118.73l-11.46-10.69Z"/>
  <rect class="cls-2" x="213.6" y="39.45" width="39.98" height="62.48"/>
  <path class="cls-1" d="m265.01,55.93c0-11.43-14.33-20.69-32.02-20.69s-32.02,9.26-32.02,20.69c0,1.57.28,3.09.79,4.56h-.79l12.63,35.07h39.98c3.51-4.91,11.42-35.07,11.42-35.07h-.79c.51-1.47.79-2.99.79-4.56Z"/>
</svg>