<?xml version="1.0" encoding="UTF-8"?>
<svg id="Capa_1" data-name="Capa 1" xmlns="http://www.w3.org/2000/svg" viewBox="0 0 500 500">
  <defs>
    <style>
      .cls-1 {
        fill: none;
        stroke: #e8471b;
        stroke-miterlimit: 10;
        stroke-width: 20px;
      }

      .cls-2 {
        fill: #242b51;
      }
    </style>
  </defs>
  <path class="cls-1" d="m378.57,239.61c.3-1.8.56-3.62.78-5.45.03-.22.07-.46.1-.67,0,0-.01,0-.02,0,.54-4.65.84-9.37.84-14.17,0-54.57-35.82-100.77-85.22-116.4,6.52-7.83,10.44-17.9,10.44-28.89,0-24.97-20.24-45.21-45.21-45.21s-45.21,20.24-45.21,45.21c0,10.54,3.64,20.21,9.68,27.9-51.15,14.55-88.61,61.58-88.61,117.39,0,6.85.59,13.56,1.68,20.11,0,0-.01,0-.02,0,.03.14.07.3.1.45.37,2.2.81,4.38,1.3,6.54,2.51,14.35,4.42,38.44-4.15,66.14-9.5,30.67-27.07,50.25-36.17,59.14v42.03h320.63v-42.03c-9.71-10.94-25.88-32.02-35.19-63.05-8.58-28.59-7.7-53.47-5.74-69.03Z"/>
  <path class="cls-2" d="m215.93,467.36c17.22,17.38,38.74,18.25,43.26,18.33,3.95.12,28.6.45,46.92-19.06,13.54-14.42,15.67-31.2,16.13-36.66h-123.9c.55,5.27,3.03,22.69,17.6,37.39Z"/>
  <path class="cls-2" d="m410.52,271.98c2.68,0,5.06-1.2,6.7-3.05,3.98-4.27,17.27-19.53,18.65-43.13,1.69-28.7-15.5-47.89-18.65-51.29h0c-1.65-1.86-4.02-3.05-6.7-3.05-4.96,0-8.98,4.02-8.98,8.98,0,2.99,1.47,5.61,3.71,7.25,4.4,5.82,11.36,17.4,11.56,33.35.2,16.66-7.09,28.8-11.58,34.74-1.22.9-2.21,2.08-2.85,3.47,0,0,0,0,0,0,0,0,0,0,0,0-.53,1.14-.84,2.41-.84,3.75,0,4.96,4.02,8.98,8.98,8.98Z"/>
  <path class="cls-2" d="m481.7,215.9c-1.78-41.69-27.03-67.86-32.93-73.67h0c-1.64-2.22-4.25-3.68-7.21-3.68-4.96,0-8.98,4.02-8.98,8.98,0,.89.17,1.73.41,2.55-.14.07-.27.14-.41.2.19.19.46.48.7.73.76,1.81,2.13,3.29,3.81,4.27,8.54,10.17,24.22,33.07,24.08,65.38-.16,36.56-20.48,60.56-25.66,66.35h0c-1.79,1.64-2.93,3.98-2.93,6.6,0,4.96,4.02,8.98,8.98,8.98,2.96,0,5.56-1.45,7.19-3.65,0,0,.01.01.02.02,4.94-4.89,34.95-35.57,32.93-83.06Z"/>
  <path class="cls-2" d="m82.93,286.9h0c-5.18-5.78-25.5-29.79-25.66-66.35-.15-32.31,15.54-55.21,24.08-65.38,1.69-.98,3.05-2.45,3.81-4.27.24-.26.51-.54.7-.73-.14-.07-.27-.14-.41-.2.24-.81.41-1.65.41-2.55,0-4.96-4.02-8.98-8.98-8.98-2.97,0-5.58,1.46-7.21,3.68h0c-5.9,5.81-31.15,31.98-32.93,73.67-2.02,47.49,27.98,78.17,32.93,83.06,0,0,.01-.01.02-.02,1.64,2.2,4.24,3.65,7.19,3.65,4.96,0,8.98-4.02,8.98-8.98,0-2.62-1.14-4.96-2.93-6.6Z"/>
  <path class="cls-2" d="m82.57,225.69c1.39,23.6,14.67,38.87,18.65,43.13,1.65,1.86,4.02,3.05,6.7,3.05,4.96,0,8.98-4.02,8.98-8.98,0-1.34-.32-2.61-.84-3.75,0,0,0,0,0,0,0,0,0,0,0,0-.64-1.39-1.63-2.58-2.85-3.47-4.49-5.95-11.78-18.08-11.58-34.74.19-15.95,7.16-27.53,11.56-33.35,2.24-1.63,3.71-4.26,3.71-7.25,0-4.96-4.02-8.98-8.98-8.98-2.68,0-5.05,1.2-6.7,3.05h0c-3.15,3.4-20.34,22.59-18.65,51.29Z"/>
</svg>