<?xml version="1.0" encoding="UTF-8"?>
<svg id="Capa_1" data-name="Capa 1" xmlns="http://www.w3.org/2000/svg" viewBox="0 0 500 500">
  <defs>
    <style>
      .cls-1 {
        fill: #f6f6f6;
      }

      .cls-2 {
        fill: #e84721;
      }

      .cls-3 {
        fill: #223469;
        stroke: #223469;
        stroke-miterlimit: 10;
        stroke-width: 5px;
      }
    </style>
  </defs>
  <rect class="cls-1" x="11.11" y="21.75" width="469.34" height="456.51" rx="121.92" ry="121.92"/>
  <g>
    <path class="cls-2" d="m138.89,80.17l-70.24,71.47v16.54c0,14.1,12.43,25.52,27.77,25.52s27.77-11.43,27.77-25.52v-16.95l42.88-71.06h-28.18Z"/>
    <path class="cls-3" d="m184.22,80.17l-42.88,71.47v16.54c0,14.1,12.43,25.52,27.77,25.52s27.77-11.43,27.77-25.52v-16.95l15.11-71.06h-27.77Z"/>
    <path class="cls-2" d="m256.1,80.17h-27.36l-14.86,70.65v17.36c0,14.1,12.43,25.52,27.77,25.52s27.77-11.43,27.77-25.52v-16.54l-13.32-71.47Z"/>
    <path class="cls-3" d="m300.2,80.17h-28.59l15.11,70.65v17.36c0,14.1,12.43,25.52,27.77,25.52,14.06,0,25.67-9.61,27.51-22.07l.26.02v-20.42l-42.06-71.06Z"/>
    <path class="cls-2" d="m344.72,80.17h-30.22l45.33,70.65v17.36c0,14.1,12.43,25.52,27.77,25.52s27.77-11.43,27.77-25.52v-16.54l-70.65-71.47Z"/>
    <path class="cls-2" d="m93.56,212.07v197.25h296.48v-197.25H93.56Zm267.9,138.03H122.97v-108.22h238.49v108.22Z"/>
    <path class="cls-3" d="m141.29,304.56l49.43-47.67c2.32-2.24,5.98-2.29,8.36-.12h0c2.58,2.35,2.68,6.38.21,8.85l-48.64,48.64c-2.57,2.57-6.8,2.35-9.08-.48l-.78-.97c-1.99-2.47-1.77-6.04.51-8.25Z"/>
    <path class="cls-3" d="m135.81,279.63l28.01-27.59c.92-.9,2.4-.87,3.28.07l5.36,5.77c.83.9.81,2.3-.06,3.17l-27.65,27.75c-.9.91-2.38.89-3.26-.03l-5.71-5.93c-.82-.85-.86-2.19-.08-3.08h0s.08-.09.12-.13Z"/>
  </g>
</svg>