<?xml version="1.0" encoding="UTF-8"?>
<svg id="Capa_1" data-name="Capa 1" xmlns="http://www.w3.org/2000/svg" viewBox="0 0 500 500">
  <defs>
    <style>
      .cls-1 {
        stroke-dasharray: 0 0 2 2;
      }

      .cls-1, .cls-2, .cls-3, .cls-4, .cls-5, .cls-6, .cls-7, .cls-8, .cls-9, .cls-10, .cls-11, .cls-12 {
        stroke-miterlimit: 10;
      }

      .cls-1, .cls-3, .cls-4, .cls-5, .cls-6, .cls-7, .cls-9, .cls-11 {
        fill: none;
      }

      .cls-1, .cls-3, .cls-4, .cls-5, .cls-6, .cls-7, .cls-9, .cls-11, .cls-12 {
        stroke-width: 5px;
      }

      .cls-1, .cls-5, .cls-6 {
        stroke: #24346b;
      }

      .cls-2 {
        stroke-width: 3px;
      }

      .cls-2, .cls-11 {
        stroke: #e84714;
      }

      .cls-2, .cls-12 {
        fill: #fff;
      }

      .cls-3 {
        stroke-dasharray: 0 0 1.98 1.98;
      }

      .cls-3, .cls-7, .cls-9 {
        stroke: #e84715;
      }

      .cls-4 {
        stroke: #fff;
      }

      .cls-5 {
        stroke-dasharray: 0 0 1.99 1.99;
      }

      .cls-13 {
        fill: #223469;
      }

      .cls-8 {
        fill: #e84715;
      }

      .cls-8, .cls-12 {
        stroke: #e84710;
      }

      .cls-9 {
        stroke-dasharray: 0 0 1.95 1.95;
      }

      .cls-10 {
        fill: #25346d;
        stroke: #25346d;
        stroke-width: 2px;
      }
    </style>
  </defs>
  <rect class="cls-12" x="52.14" y="19.3" width="400.91" height="465.4"/>
  <rect class="cls-8" x="174.05" y="48.06" width="179.54" height="17.43" rx="1.99" ry="1.99"/>
  <g>
    <line class="cls-6" x1="248.24" y1="122.9" x2="249.24" y2="122.9"/>
    <line class="cls-5" x1="251.23" y1="122.9" x2="417.72" y2="122.9"/>
    <line class="cls-6" x1="418.71" y1="122.9" x2="419.71" y2="122.9"/>
  </g>
  <rect class="cls-10" x="333.23" y="271.72" width="65.61" height="205.91"/>
  <rect class="cls-10" x="256.81" y="306.47" width="54.22" height="171.16"/>
  <rect class="cls-10" x="176.88" y="361.16" width="54.22" height="116.47"/>
  <rect class="cls-10" x="98.38" y="404.19" width="54.22" height="73.44"/>
  <g>
    <line class="cls-6" x1="248.38" y1="147.64" x2="249.38" y2="147.64"/>
    <line class="cls-5" x1="251.37" y1="147.64" x2="417.85" y2="147.64"/>
    <line class="cls-6" x1="418.85" y1="147.64" x2="419.85" y2="147.64"/>
  </g>
  <g>
    <line class="cls-6" x1="248.77" y1="174.17" x2="249.77" y2="174.17"/>
    <line class="cls-5" x1="251.76" y1="174.17" x2="418.25" y2="174.17"/>
    <line class="cls-6" x1="419.25" y1="174.17" x2="420.25" y2="174.17"/>
  </g>
  <g>
    <line class="cls-6" x1="248.91" y1="198.9" x2="249.91" y2="198.9"/>
    <line class="cls-1" x1="251.9" y1="198.9" x2="326.8" y2="198.9"/>
    <line class="cls-6" x1="327.8" y1="198.9" x2="328.8" y2="198.9"/>
  </g>
  <g>
    <line class="cls-7" x1="83.6" y1="260.06" x2="84.6" y2="260.06"/>
    <line class="cls-3" x1="86.57" y1="260.06" x2="223.86" y2="260.06"/>
    <line class="cls-7" x1="224.85" y1="260.06" x2="225.85" y2="260.06"/>
  </g>
  <g>
    <line class="cls-7" x1="83.93" y1="286.59" x2="84.93" y2="286.59"/>
    <line class="cls-3" x1="86.9" y1="286.59" x2="224.19" y2="286.59"/>
    <line class="cls-7" x1="225.18" y1="286.59" x2="226.18" y2="286.59"/>
  </g>
  <g>
    <line class="cls-7" x1="84.04" y1="311.33" x2="85.04" y2="311.33"/>
    <line class="cls-9" x1="86.99" y1="311.33" x2="148.34" y2="311.33"/>
    <line class="cls-7" x1="149.32" y1="311.33" x2="150.32" y2="311.33"/>
  </g>
  <path class="cls-6" d="m219.96,165.81c-1.73,36.65-32.88,64.99-69.57,63.29-36.67-1.67-64.99-32.72-63.24-69.34.23-4.66.93-9.21,2.07-13.56,2.07-8.02,5.6-15.43,10.27-21.95,12.7-17.72,33.84-28.88,57.24-27.8,21.22.99,39.64,11.78,51.04,27.8,3,4.21,5.52,8.76,7.47,13.62,3.48,8.59,5.21,18.05,4.72,27.94Z"/>
  <ellipse class="cls-2" cx="153.23" cy="163.33" rx="58" ry="57.92"/>
  <line class="cls-11" x1="153.23" y1="105.41" x2="153.23" y2="221.26"/>
  <path class="cls-13" d="m155.07,106.95c0,18.19.02,36.37.03,54.56h54.38c-.27-5.06-1.77-20.93-14.14-35.04-15.42-17.59-36.19-19.27-40.27-19.52Z"/>
  <line class="cls-4" x1="185.7" y1="56.77" x2="341" y2="56.77"/>
</svg>