<?xml version="1.0" encoding="UTF-8"?>
<svg id="Capa_1" data-name="Capa 1" xmlns="http://www.w3.org/2000/svg" viewBox="0 0 500 500">
  <defs>
    <style>
      .cls-1 {
        fill: #c94828;
      }
    </style>
  </defs>
  <path class="cls-1" d="m315.84,23.72h-172.17c-30.01,0-54.34,24.33-54.34,54.34v343.88c0,30.01,24.33,54.34,54.34,54.34h230.39c30.01,0,54.34-24.33,54.34-54.34V149.73l-112.56-126.01Zm12.19,308.23l-69.91,55.88c-1.52,1.22-3.29,1.89-5.09,2.1-3.2,1.2-6.92.77-9.79-1.52l-70.64-56.46c-4.33-3.46-5.04-9.78-1.57-14.11l9.24-11.56c3.46-4.33,9.78-5.04,14.11-1.57l42.24,33.76v-111.38c0-5.54,4.49-10.04,10.04-10.04h14.79c5.54,0,10.04,4.49,10.04,10.04v105.42l34.78-27.8c4.33-3.46,10.65-2.76,14.11,1.57l9.24,11.56c3.46,4.33,2.76,10.65-1.57,14.11Zm41.1-189.91h-68.35c-2.38,0-4.31-1.93-4.31-4.31v-68.35c0-3.84,4.64-5.76,7.36-3.05l68.35,68.35c2.71,2.72.79,7.36-3.05,7.36Z"/>
</svg>