<?xml version="1.0" encoding="UTF-8"?>
<svg id="Capa_1" data-name="Capa 1" xmlns="http://www.w3.org/2000/svg" viewBox="0 0 500 500">
  <defs>
    <style>
      .cls-1 {
        fill: #242b51;
      }

      .cls-2 {
        fill: #e84721;
      }
    </style>
  </defs>
  <path class="cls-2" d="m266.43,127.12c-7.62.41-12.75,4.27-14.46,5.68l-155.68,120.55v152.62c0,23.07,18.7,41.77,41.77,41.77h77.9c-.81-2.67-1.26-5.51-1.26-8.44v-103.52c0-15.9,12.89-28.78,28.78-28.78h42.97c15.9,0,28.78,12.89,28.78,28.78v103.52c0,2.94-.44,5.77-1.26,8.44h82.37c23.07,0,41.76-18.7,41.76-41.76v-152.62c-51.52-40.18-103.03-80.37-154.55-120.55-1.5-1.23-7.87-6.17-17.12-5.68Z"/>
  <path class="cls-1" d="m507.51,222.5l-69.41-51.28v-58.82c.66-8.78-6.46-15.89-15.24-15.4h-36.19c-8.78-.49-15.89,6.63-15.6,15.4v8.12l-85.19-63.33c-2.98-1.68-9.67-4.91-18.77-4.91-9.09,0-15.79,3.24-18.77,4.91C175.09,112.89,101.81,168.61,28.53,224.33c-3.34,5.89-2.03,13.11,2.68,16.94,3.75,3.04,9.18,3.56,13.85,1.34,72.53-54.06,145.06-108.13,217.6-162.19,1.19-2.42,3.61-3.98,6.26-4.02,2.9-.05,5.57,1.73,6.7,4.47,72.23,54.66,144.47,109.32,216.7,163.98.47.04,8.84.58,13.85-6.26,3.4-4.64,3.92-10.86,1.34-16.08Z"/>
</svg>