<?xml version="1.0" encoding="UTF-8"?>
<svg id="Capa_1" data-name="Capa 1" xmlns="http://www.w3.org/2000/svg" viewBox="0 0 500 500">
  <defs>
    <style>
      .cls-1 {
        fill: #242b51;
      }

      .cls-2 {
        fill: #e84721;
      }
    </style>
  </defs>
  <path class="cls-2" d="m218.67,425.17c3.22,0,3.22-5,0-5s-3.22,5,0,5h0Z"/>
  <path class="cls-2" d="m335.27,61.77c3.22,0,3.22-5,0-5s-3.22,5,0,5h0Z"/>
  <g>
    <path class="cls-2" d="m210.46,299.12c-26.89,6.02-51.56,18.78-72.48,36.62l22.43,30.87,50.05-67.49Z"/>
    <path class="cls-2" d="m238.49,351.85c3.1-.22,6.23-.36,9.38-.36,30.06,0,58.16,10.24,82.1,28.03l28.68-39.08c-22.71-20.96-50.29-35.71-80.6-41.92l-39.55,53.33Z"/>
  </g>
  <polygon class="cls-1" points="454.76 31.23 135.71 461.46 124.79 446.73 443.84 16.5 454.76 31.23"/>
  <g>
    <path class="cls-2" d="m246.77,231.82c4.23,0,8.42.14,12.58.4l36.01-48.56c-15.09-2.88-30.75-4.41-46.82-4.41-67.29,0-127.52,26.6-167.88,68.51l27.89,38.39c35.81-33.63,84.53-54.32,138.22-54.32Z"/>
    <path class="cls-2" d="m317.44,244.4c27.34,10.11,51.8,25.91,71.85,45.92l29.45-40.14c-18.9-20.27-42.37-37.11-69.03-49.29l-32.27,43.51Z"/>
  </g>
  <g>
    <path class="cls-2" d="m339.07,124.71l34.7-46.79c-36.92-15.36-79.39-24.11-124.57-24.11-101.31,0-188.95,43.96-231.07,107.89l26.28,36.18c44.68-51.69,120.48-85.71,206.51-85.71,31.05,0,60.75,4.45,88.16,12.55Z"/>
    <path class="cls-2" d="m421.79,103.69l-31.11,41.95c26.21,13.89,48.84,31.57,66.58,52.04l24.61-33.54c-14.64-23.03-35.15-43.54-60.08-60.45Z"/>
  </g>
  <circle class="cls-2" cx="247.99" cy="448.25" r="40"/>
</svg>