<?xml version="1.0" encoding="UTF-8"?>
<svg id="Capa_1" data-name="Capa 1" xmlns="http://www.w3.org/2000/svg" viewBox="0 0 500 500">
  <defs>
    <style>
      .cls-1 {
        fill: #262c52;
        stroke: #262c52;
        stroke-miterlimit: 10;
        stroke-width: 10px;
      }

      .cls-2 {
        fill: #e84721;
      }
    </style>
  </defs>
  <path class="cls-1" d="m414.72,263.15v-116.78H69.93v112.64l-47.27,117.22c-.13,4.64-.27,9.29-.4,13.93v88.49h10.6c10.07,0,20.14,0,30.21,0,134.56,0,269.11,0,403.67,0h10.6v-91.29h.41v-11.12l-63.03-113.07ZM81.05,157.49h322.54v101.51H81.05v-101.51Zm322.54,112.64l58.31,106.1H35.64l45.42-106.1h322.54Zm63.14,197.39H32.86v-80.17h433.88v80.17Z"/>
  <path class="cls-2" d="m108.86,178.81v55.61h124.42v-55.61h-124.42Zm113.07,42.63h-98.25v-29.66h98.25v29.66Z"/>
  <rect class="cls-2" x="284.03" y="197.35" width="92.68" height="10.9"/>
  <rect class="cls-1" x="317.17" y="117.05" width="69.98" height="10.9" transform="translate(474.66 -229.65) rotate(90)"/>
  <rect class="cls-2" x="345.06" y="327.1" width="35.22" height="16.68" rx="8.34" ry="8.34"/>
  <rect class="cls-2" x="260.86" y="324.76" width="35.22" height="16.68" rx="8.34" ry="8.34"/>
  <rect class="cls-2" x="175.81" y="330.1" width="35.22" height="16.68" rx="8.34" ry="8.34"/>
  <rect class="cls-2" x="100.52" y="330.1" width="35.22" height="16.68" rx="8.34" ry="8.34"/>
  <rect class="cls-2" x="306.84" y="289.57" width="35.22" height="16.68" rx="8.34" ry="8.34"/>
  <rect class="cls-2" x="224.71" y="288.86" width="35.22" height="16.68" rx="8.34" ry="8.34"/>
  <rect class="cls-2" x="140.59" y="293.2" width="35.22" height="16.68" rx="8.34" ry="8.34"/>
  <path class="cls-1" d="m391.55,25.88h-77.85c-16.31,5.18-26.98,20.66-25.95,37.07.93,14.85,11.28,27.85,25.95,32.44h77.85c13.04-5.65,22.01-17.78,23.17-31.51,1.35-15.87-7.95-31.27-23.17-38Zm12.98,38c-.79,9.84-8.34,18.29-18.54,20.39h-72.29c-.61-.31-12.89-6.73-13.9-20.39-.73-9.9,4.76-19.45,13.9-24.1h72.29c11.57,2.47,19.43,13.02,18.54,24.1Z"/>
</svg>