<?xml version="1.0" encoding="UTF-8"?>
<svg id="Capa_1" data-name="Capa 1" xmlns="http://www.w3.org/2000/svg" viewBox="0 0 500 500">
  <defs>
    <style>
      .cls-1 {
        fill: #2b3052;
      }

      .cls-2 {
        fill: #c94828;
      }
    </style>
  </defs>
  <path class="cls-2" d="m340.35,12.58H68.2c-9.87,0-17.88,8-17.88,17.88v391.9c0,9.87,8,17.87,17.87,17.87h174.33c-.23-1.94-.36-3.91-.36-5.91,0-20.48,12.52-38.12,30.54-46.12v-1.43H69.57V31.82h113.1c-.09.79-.15,1.6-.15,2.41,0,11.78,9.54,21.33,21.32,21.33s21.32-9.55,21.32-21.33c0-.82-.06-1.62-.15-2.41h109.7v275.83h23.52V30.45c0-9.87-8-17.88-17.88-17.88Zm-157.15,391.3h37.88c3.71,0,6.72,3.01,6.72,6.72v3.67c0,3.71-3.01,6.72-6.72,6.72h-37.88c-3.71,0-6.72-3.01-6.72-6.72v-3.67c0-3.71,3.01-6.72,6.72-6.72Zm20.01-356.59c-7.09,0-12.83-5.74-12.83-12.83,0-.56.05-1.11.12-1.66.01-.08.02-.16.04-.24.92-6.18,6.24-10.93,12.67-10.93s11.75,4.74,12.67,10.92c.01.09.03.18.04.26.07.54.12,1.08.12,1.63,0,0,0,.01,0,.02,0,7.09-5.74,12.83-12.83,12.83Z"/>
  <path class="cls-1" d="m260.62,305.04l61.1,109.53h-40.26c-7.29,2.6-12.66,8.68-13.8,15.86-1.47,9.27,4.33,18.97,14.19,22.62h15.34c3.36.75,8.46,2.17,14.19,4.99,9.97,4.9,14.26,10.3,23.72,17.59,4.56,3.51,11.44,8.32,20.76,13.09,3.55.89,7.81,1.65,12.65,1.92,8.25.46,15.24-.66,20.32-1.92,9.9-3.28,21.79-8.11,34.51-15.34,11.87-6.74,21.55-13.91,29.14-20.32,1.53-2.3,3.07-4.6,4.6-6.9,3.2-3.11,7.11-7.64,10.35-13.8,6.66-12.67,6.57-24.77,6.12-30.58-.51-6.17-1.01-12.33-1.52-18.5-3.29-8.45-7.32-17.61-12.27-27.23-5.43-10.54-11.06-19.87-16.49-27.99-5.42-6.59-14.07-9.17-21.45-6.55-8.38,2.98-11.2,11.27-11.53,12.3-.12.19-.82,1.27-2.24,1.55-1.2.24-2.13-.27-2.37-.4-3.8-10.46-14.81-15.68-23.77-12.65-7.07,2.38-12.13,9.65-12.27,18.02-.58.34-1.65.88-3.1,1.02-1.78.17-3.17-.35-3.8-.63-2.31-7-8.9-11.53-15.72-11.12-7.89.47-14.54,7.46-14.57,16.11-.4.44-1.18,1.16-2.37,1.63-1.68.66-3.17.42-3.76.28-12.02-20.84-24.03-41.67-36.05-62.51-6.49-6.42-16.67-7.15-23.78-1.92-6.66,4.91-9.16,13.99-5.88,21.86Z"/>
</svg>