<?xml version="1.0" encoding="UTF-8"?>
<svg id="Capa_1" data-name="Capa 1" xmlns="http://www.w3.org/2000/svg" viewBox="0 0 500 500">
  <defs>
    <style>
      .cls-1 {
        fill: #252c52;
      }
    </style>
  </defs>
  <path class="cls-1" d="m424.85,296.05c-15.54,0-29.16-6.06-36.95-15.18-8.39,7.78-26.13,13.16-46.69,13.16s-37.78-5.23-46.32-12.83c-6.36,8.03-24.47,13.84-45.88,13.84s-39.66-5.84-45.97-13.91c-12.34,8.58-29.14,13.91-47.74,13.91s-35.89-5.42-48.28-14.2c-7.47,7.53-20.24,12.53-34.86,12.53-4.47,0-8.76-.47-12.8-1.33-.52,1.7-.81,3.5-.81,5.36v160.22c0,10.02,8.12,18.14,18.14,18.14h106.32v-46.47c-.38-2.84-.6-5.73-.6-8.67s.22-5.83.6-8.67h0c4.24-31.7,31.37-56.16,64.23-56.16s59.99,24.46,64.23,56.16h.59v63.8h108.24c10.02,0,18.14-8.12,18.14-18.14v-160.22c0-1-.1-1.97-.26-2.92-4.21,1.01-8.69,1.56-13.35,1.56Zm-283.89,107.17c0,11.13-9.02,20.15-20.15,20.15s-20.15-9.02-20.15-20.15v-52.38c0-11.13,9.02-20.15,20.15-20.15s20.15,9.02,20.15,20.15v52.38Zm252.15,0c0,11.13-9.02,20.15-20.15,20.15s-20.15-9.02-20.15-20.15v-52.38c0-11.13,9.02-20.15,20.15-20.15s20.15,9.02,20.15,20.15v52.38Z"/>
  <path class="cls-1" d="m457.26,146.79l-9.85-19.78-44.23-88.83c-6.18-12.41-18.85-20.25-32.71-20.25H126.99c-13.58,0-26.04,7.53-32.35,19.55-13.15,25.03-26.3,50.07-39.44,75.1h0l-15.06,33.26c-14.75,7.75-24.91,23.79-24.91,42.38,0,26.16,20.08,47.36,44.84,47.36s44.84-21.2,44.84-47.36c0-2.87-.28-5.66-.74-8.39h6.02c-.46,2.73-.74,5.52-.74,8.39,0,26.16,20.08,47.36,44.84,47.36s44.84-21.2,44.84-47.36c0-2.87-.28-5.66-.75-8.39h6.02c-.46,2.73-.74,5.52-.74,8.39,0,26.16,20.08,47.36,44.84,47.36s44.84-21.2,44.84-47.36c0-2.87-.28-5.66-.74-8.39h6.02c-.46,2.73-.74,5.52-.74,8.39,0,26.16,20.08,47.36,44.84,47.36s44.84-21.2,44.84-47.36c0-2.87-.28-5.66-.74-8.39h4.65c-.46,2.73-.74,5.52-.74,8.39,0,26.16,20.08,47.36,44.84,47.36s44.84-21.2,44.84-47.36c0-17.84-9.35-33.36-23.15-41.44Z"/>
</svg>