<?xml version="1.0" encoding="UTF-8"?>
<svg id="Capa_1" data-name="Capa 1" xmlns="http://www.w3.org/2000/svg" viewBox="0 0 500 500">
  <defs>
    <style>
      .cls-1 {
        opacity: .4;
      }

      .cls-1, .cls-2, .cls-3 {
        fill: #c94824;
      }

      .cls-4 {
        fill: #292f50;
      }

      .cls-3 {
        opacity: .7;
      }
    </style>
  </defs>
  <rect class="cls-4" x="157.29" y="203.17" width="168.67" height="217.88"/>
  <path class="cls-2" d="m434.83,174.88H67.64c-21.82,0-39.51,17.69-39.51,39.51v215.93c0,21.82,17.69,39.51,39.51,39.51h367.19c21.82,0,39.51-17.69,39.51-39.51v-215.93c0-21.82-17.69-39.51-39.51-39.51Zm-115.09,179.06c8.05,8.05,8.05,21.1,0,29.15l-4.79,4.79c-8.05,8.05-21.1,8.05-29.15,0l-33.35-33.35-35.64,35.64c-8.05,8.05-21.1,8.05-29.15,0l-4.79-4.79c-8.05-8.05-8.05-21.1,0-29.15l35.64-35.64-35.82-35.82c-8.05-8.05-8.05-21.1,0-29.15l4.79-4.79c8.05-8.05,21.1-8.05,29.15,0l35.82,35.82,33.53-33.53c8.05-8.05,21.1-8.05,29.15,0l4.79,4.79c8.05,8.05,8.05,21.1,0,29.15l-33.53,33.53,33.35,33.35Z"/>
  <path class="cls-1" d="m87.72,87.48h325.73c3.93,0,7.71.65,11.25,1.81v-25.57c0-19.95-16.17-36.13-36.13-36.13H117.33c-19.95,0-36.13,16.17-36.13,36.13v24.38c2.12-.39,4.29-.62,6.51-.62Z"/>
  <rect class="cls-3" x="51.6" y="86.82" width="397.98" height="116.35" rx="14.62" ry="14.62"/>
</svg>