<?xml version="1.0" encoding="UTF-8"?>
<svg id="Capa_1" data-name="Capa 1" xmlns="http://www.w3.org/2000/svg" viewBox="0 0 500 500">
  <defs>
    <style>
      .cls-1 {
        fill: #545353;
      }

      .cls-2 {
        fill: #242b51;
      }

      .cls-3 {
        fill: #e84721;
      }
    </style>
  </defs>
  <path class="cls-3" d="m201.72,446.51l-115.04-115.03c-1.61-1.61-4.22-1.61-5.83,0l-30.58,30.57c-1.61,1.61-1.61,4.22,0,5.83l115.04,115.03c1.61,1.61,4.22,1.61,5.83,0l30.58-30.57c1.61-1.61,1.61-4.22,0-5.83Zm-21.99,5.78l-6.5,5.96c-1.63,1.49-4.15,1.38-5.64-.25l-16.59-18.1c-1.49-1.63-1.38-4.15.25-5.64l6.5-5.96c1.63-1.49,4.15-1.38,5.64.25l16.59,18.1c1.49,1.63,1.38,4.15-.25,5.64Z"/>
  <path class="cls-2" d="m424.24,282.05l-66.93,67.29h-88.35c-4.85,0-8.74-3.93-8.74-8.74,0-4.55,3.41-8.22,7.78-8.7v-1h.06l74.78,2.06c7.35,0,13.29-5.86,13.29-13.09s-5.95-13.09-13.29-13.09c-14.65-.39-26.41-.34-34.41-.22-10.76.17-23.53.56-34.41-3.14-5.95-2.02-11.46-5-11.46-5-5.03-2.71-8.35-5.21-9.36-5.94-4.64-3.36-12.59-5.9-41.37-6.07-19.76-.13-29.82-.09-37.96,3.23-10.32,4.22-17.27,10.68-21.34,15.16-10.98,12.19-21.91,24.38-32.88,36.57l78.71,74.73,26.02-23.73,119.64.48c4.9-1.31,10.62-3.24,16.83-6.16,5.6-2.62,10.27-5.51,14.08-8.18,24.23-24.01,48.46-48.06,72.69-72.1-8.32-7.6-16.22-15.62-23.38-24.35Z"/>
  <g>
    <rect class="cls-3" x="201.96" y="122.61" width="206.7" height="143.35" rx="9.08" ry="9.08"/>
    <polygon class="cls-2" points="218.31 89.33 391.14 89.33 402.82 113.27 206.05 113.27 218.31 89.33"/>
    <path class="cls-2" d="m382.65,34.73h-155.55c-3.08,0-5.58,2.5-5.58,5.58v32.87c0,2.79,2.26,5.05,5.05,5.05h156.6c2.79,0,5.05-2.26,5.05-5.05v-32.87c0-3.08-2.5-5.58-5.58-5.58Zm-29.38,19.71c0,2.9-2.35,5.25-5.25,5.25h-85.4c-2.9,0-5.26-2.35-5.26-5.26h0c0-2.9,2.35-5.25,5.25-5.25h85.4c2.9,0,5.25,2.35,5.25,5.25h0Z"/>
  </g>
  <circle class="cls-1" cx="434.39" cy="295.76" r="16.96"/>
</svg>