<?xml version="1.0" encoding="UTF-8"?>
<svg id="Capa_1" data-name="Capa 1" xmlns="http://www.w3.org/2000/svg" viewBox="0 0 500 500">
  <defs>
    <style>
      .cls-1, .cls-2 {
        fill: #fff;
      }

      .cls-3 {
        fill: #25346d;
        stroke: #25346d;
      }

      .cls-3, .cls-4, .cls-5, .cls-6, .cls-7, .cls-8, .cls-9, .cls-10, .cls-11, .cls-12, .cls-13, .cls-2 {
        stroke-miterlimit: 10;
      }

      .cls-4, .cls-6, .cls-8, .cls-9, .cls-10, .cls-11, .cls-12, .cls-13 {
        fill: none;
      }

      .cls-4, .cls-6, .cls-8, .cls-9, .cls-10, .cls-11, .cls-12, .cls-13, .cls-2 {
        stroke: #fff;
      }

      .cls-5 {
        fill: #e84719;
      }

      .cls-5, .cls-7 {
        stroke: #e84715;
        stroke-width: 2px;
      }

      .cls-6 {
        stroke-dasharray: 0 0 1 1;
      }

      .cls-7 {
        fill: #e84715;
      }

      .cls-8 {
        stroke-dasharray: 0 0 .97 .97;
      }

      .cls-9 {
        stroke-dasharray: 0 0 .96 .96;
      }

      .cls-10 {
        stroke-width: 10px;
      }

      .cls-11 {
        stroke-dasharray: 0 0 .95 .95;
      }

      .cls-12 {
        stroke-dasharray: 0 0 1.02 1.02;
      }

      .cls-13 {
        stroke-dasharray: 0 0 1.02 1.02;
      }
    </style>
  </defs>
  <path class="cls-5" d="m431.14,189.16v179.35h-15.84v-174.01h-32.34v174.01h-14.54v-179.35c0-9.65,7.82-17.47,17.47-17.47h27.78c9.65,0,17.47,7.82,17.47,17.47Z"/>
  <rect class="cls-2" x="382.95" y="194.5" width="32.34" height="174.01"/>
  <polygon class="cls-7" points="448.14 115.08 431.6 115.08 431.6 156.71 378.12 156.71 378.12 115.08 359.63 115.08 393.07 74.19 401.01 64.45 414.21 78.63 448.14 115.08"/>
  <g>
    <polygon class="cls-1" points="422.68 107.28 414.53 107.28 414.53 141.37 393.39 141.37 393.39 107.28 385.74 107.28 399.71 88.42 403.01 83.94 408.5 90.46 422.68 107.28"/>
    <g>
      <polyline class="cls-4" points="422.36 106.9 422.68 107.28 422.18 107.28"/>
      <line class="cls-13" x1="421.16" y1="107.28" x2="415.54" y2="107.28"/>
      <polyline class="cls-4" points="415.03 107.28 414.53 107.28 414.53 107.78"/>
      <line class="cls-6" x1="414.53" y1="108.78" x2="414.53" y2="140.37"/>
      <polyline class="cls-4" points="414.53 140.87 414.53 141.37 414.03 141.37"/>
      <line class="cls-9" x1="413.07" y1="141.37" x2="394.37" y2="141.37"/>
      <polyline class="cls-4" points="393.89 141.37 393.39 141.37 393.39 140.87"/>
      <line class="cls-6" x1="393.39" y1="139.87" x2="393.39" y2="108.28"/>
      <polyline class="cls-4" points="393.39 107.78 393.39 107.28 392.89 107.28"/>
      <line class="cls-11" x1="391.94" y1="107.28" x2="386.71" y2="107.28"/>
      <polyline class="cls-4" points="386.24 107.28 385.74 107.28 386.03 106.88"/>
      <polyline class="cls-8" points="386.61 106.1 399.71 88.42 402.42 84.73"/>
      <polyline class="cls-4" points="402.71 84.34 403.01 83.94 403.33 84.32"/>
      <polyline class="cls-12" points="403.98 85.1 408.5 90.46 422.03 106.51"/>
    </g>
  </g>
  <path class="cls-5" d="m266.54,368.51v-147.71c0-9.65,7.82-17.47,17.47-17.47h27.78c9.65,0,17.47,7.82,17.47,17.47v147.71"/>
  <polyline class="cls-2" points="281.08 368.51 281.08 226.14 313.42 226.14 313.42 368.51"/>
  <polygon class="cls-7" points="346.27 146.72 329.73 146.72 329.73 188.35 276.25 188.35 276.25 146.72 257.76 146.72 291.2 105.82 299.14 96.09 312.34 110.26 346.27 146.72"/>
  <g>
    <polygon class="cls-1" points="320.81 138.92 312.66 138.92 312.66 173.01 291.52 173.01 291.52 138.92 283.87 138.92 297.84 120.06 301.14 115.58 306.64 122.09 320.81 138.92"/>
    <g>
      <polyline class="cls-4" points="320.49 138.53 320.81 138.92 320.31 138.92"/>
      <line class="cls-13" x1="319.29" y1="138.92" x2="313.67" y2="138.92"/>
      <polyline class="cls-4" points="313.16 138.92 312.66 138.92 312.66 139.42"/>
      <line class="cls-6" x1="312.66" y1="140.42" x2="312.66" y2="172.01"/>
      <polyline class="cls-4" points="312.66 172.51 312.66 173.01 312.16 173.01"/>
      <line class="cls-9" x1="311.21" y1="173.01" x2="292.5" y2="173.01"/>
      <polyline class="cls-4" points="292.02 173.01 291.52 173.01 291.52 172.51"/>
      <line class="cls-6" x1="291.52" y1="171.51" x2="291.52" y2="139.92"/>
      <polyline class="cls-4" points="291.52 139.42 291.52 138.92 291.02 138.92"/>
      <line class="cls-11" x1="290.07" y1="138.92" x2="284.84" y2="138.92"/>
      <polyline class="cls-4" points="284.37 138.92 283.87 138.92 284.16 138.51"/>
      <polyline class="cls-8" points="284.74 137.74 297.84 120.06 300.55 116.37"/>
      <polyline class="cls-4" points="300.84 115.98 301.14 115.58 301.46 115.96"/>
      <polyline class="cls-12" points="302.12 116.74 306.64 122.09 320.16 138.14"/>
    </g>
  </g>
  <path class="cls-5" d="m166.74,368.51v-115.18c0-9.65,7.82-17.47,17.47-17.47h27.78c9.65,0,17.47,7.82,17.47,17.47v115.18"/>
  <polyline class="cls-2" points="181.29 368.51 181.29 258.67 213.63 258.67 213.63 368.51"/>
  <polygon class="cls-7" points="246.47 179.25 229.94 179.25 229.94 220.88 176.45 220.88 176.45 179.25 157.96 179.25 191.4 138.36 199.35 128.62 212.54 142.8 246.47 179.25"/>
  <g>
    <polygon class="cls-1" points="221.02 171.45 212.87 171.45 212.87 205.54 191.73 205.54 191.73 171.45 184.07 171.45 198.04 152.59 201.34 148.11 206.84 154.62 221.02 171.45"/>
    <g>
      <polyline class="cls-4" points="220.69 171.06 221.02 171.45 220.52 171.45"/>
      <line class="cls-13" x1="219.49" y1="171.45" x2="213.88" y2="171.45"/>
      <polyline class="cls-4" points="213.37 171.45 212.87 171.45 212.87 171.95"/>
      <line class="cls-6" x1="212.87" y1="172.95" x2="212.87" y2="204.54"/>
      <polyline class="cls-4" points="212.87 205.04 212.87 205.54 212.37 205.54"/>
      <line class="cls-9" x1="211.41" y1="205.54" x2="192.71" y2="205.54"/>
      <polyline class="cls-4" points="192.23 205.54 191.73 205.54 191.73 205.04"/>
      <line class="cls-6" x1="191.73" y1="204.04" x2="191.73" y2="172.45"/>
      <polyline class="cls-4" points="191.73 171.95 191.73 171.45 191.23 171.45"/>
      <line class="cls-11" x1="190.28" y1="171.45" x2="185.05" y2="171.45"/>
      <polyline class="cls-4" points="184.57 171.45 184.07 171.45 184.37 171.04"/>
      <polyline class="cls-8" points="184.94 170.27 198.04 152.59 200.76 148.9"/>
      <polyline class="cls-4" points="201.04 148.51 201.34 148.11 201.66 148.49"/>
      <polyline class="cls-12" points="202.32 149.27 206.84 154.62 220.37 170.67"/>
    </g>
  </g>
  <path class="cls-5" d="m62.88,368.51v-86.72c0-9.65,7.82-17.47,17.47-17.47h27.78c9.65,0,17.47,7.82,17.47,17.47v86.72"/>
  <polyline class="cls-5" points="109.76 368.51 109.76 287.13 77.42 287.13 77.42 368.51"/>
  <polyline class="cls-2" points="77.42 368.51 77.42 287.13 109.76 287.13 109.76 368.51"/>
  <polygon class="cls-7" points="142.6 207.71 126.07 207.71 126.07 249.34 72.59 249.34 72.59 207.71 54.09 207.71 87.53 166.82 95.48 157.08 108.67 171.26 142.6 207.71"/>
  <g>
    <polygon class="cls-1" points="117.15 199.91 109 199.91 109 234 87.86 234 87.86 199.91 80.2 199.91 94.17 181.05 97.47 176.57 102.97 183.09 117.15 199.91"/>
    <g>
      <polyline class="cls-4" points="116.82 199.53 117.15 199.91 116.65 199.91"/>
      <line class="cls-13" x1="115.63" y1="199.91" x2="110.01" y2="199.91"/>
      <polyline class="cls-4" points="109.5 199.91 109 199.91 109 200.41"/>
      <line class="cls-6" x1="109" y1="201.41" x2="109" y2="233"/>
      <polyline class="cls-4" points="109 233.5 109 234 108.5 234"/>
      <line class="cls-9" x1="107.54" y1="234" x2="88.84" y2="234"/>
      <polyline class="cls-4" points="88.36 234 87.86 234 87.86 233.5"/>
      <line class="cls-6" x1="87.86" y1="232.5" x2="87.86" y2="200.91"/>
      <polyline class="cls-4" points="87.86 200.41 87.86 199.91 87.36 199.91"/>
      <line class="cls-11" x1="86.41" y1="199.91" x2="81.18" y2="199.91"/>
      <polyline class="cls-4" points="80.7 199.91 80.2 199.91 80.5 199.51"/>
      <polyline class="cls-8" points="81.08 198.73 94.17 181.05 96.89 177.36"/>
      <polyline class="cls-4" points="97.18 176.97 97.47 176.57 97.8 176.95"/>
      <polyline class="cls-12" points="98.45 177.73 102.97 183.09 116.5 199.14"/>
    </g>
  </g>
  <path class="cls-3" d="m482.79,387.12v20.24c0,8.02-6.52,14.54-14.54,14.54H27.88c-8.02,0-14.5-6.52-14.5-14.54v-20.24c0-8.02,6.48-14.54,14.5-14.54h440.36c8.02,0,14.54,6.52,14.54,14.54Z"/>
  <line class="cls-10" x1="28" y1="397.25" x2="475.41" y2="397.25"/>
</svg>