<?xml version="1.0" encoding="UTF-8"?>
<svg id="Capa_1" data-name="Capa 1" xmlns="http://www.w3.org/2000/svg" viewBox="0 0 500 500">
  <defs>
    <style>
      .cls-1 {
        fill: #2b3052;
      }

      .cls-2 {
        fill: #c94828;
      }
    </style>
  </defs>
  <path class="cls-1" d="m332.39,65.18h-175.68c-14.98,0-27.12,12.14-27.12,27.12v360.79c0,14.98,12.14,27.12,27.12,27.12h175.68c14.98,0,27.12-12.14,27.12-27.12V92.29c0-14.98-12.14-27.12-27.12-27.12Zm-161.53,27.94h139.13v7.07h-139.13v-7.07Zm-6.15,15.69h151.42v7.07h-151.42v-7.07Zm-3.28,44.8c0-9.12,7.39-16.51,16.51-16.51h130.88c9.12,0,16.51,7.39,16.51,16.51v83.73c0,9.12-7.39,16.51-16.51,16.51h-130.88c-9.12,0-16.51-7.39-16.51-16.51v-83.73Zm127.29,123.01v22.98h-39.61v-22.98h39.61Zm-49.27,0v22.98h-39.61v-22.98h39.61Zm-86.92,17.6v-12.48c0-2.9,2.35-5.25,5.25-5.25h29.11c2.9,0,5.25,2.35,5.25,5.25v12.48c0,2.9-2.35,5.25-5.25,5.25h-29.11c-2.9,0-5.25-2.35-5.25-5.25Zm11.37,27.88h46.7v23.47h-46.7v-23.47Zm46.79,33.62v23.47h-46.7v-23.47h46.7Zm-46.7,33.62h46.7v23.47h-46.7v-23.47Zm48.56,57.09h-46.7v-23.47h46.7v23.47Zm8.65-124.33h46.7v23.47h-46.7v-23.47Zm46.79,33.62v23.47h-46.7v-23.47h46.7Zm-46.7,33.62h46.7v23.47h-46.7v-23.47Zm48.56,57.09h-46.7v-23.47h46.7v23.47Zm8.47-124.33h46.7v23.47h-46.7v-23.47Zm46.79,33.62v23.47h-46.7v-23.47h46.7Zm-46.7,33.62h46.7v23.47h-46.7v-23.47Zm48.56,57.09h-46.7v-23.47h46.7v23.47Zm8.92-152.21c0,2.9-2.35,5.25-5.25,5.25h-29.11c-2.9,0-5.25-2.35-5.25-5.25v-12.48c0-2.9,2.35-5.25,5.25-5.25h29.11c2.9,0,5.25,2.35,5.25,5.25v12.48Z"/>
  <rect class="cls-2" x="193.24" y="12.32" width="94.62" height="87.25"/>
</svg>