<?xml version="1.0" encoding="UTF-8"?>
<svg id="Capa_1" data-name="Capa 1" xmlns="http://www.w3.org/2000/svg" viewBox="0 0 500 500">
  <defs>
    <style>
      .cls-1, .cls-2 {
        fill: #989899;
        stroke: #989899;
        stroke-miterlimit: 10;
      }

      .cls-3 {
        fill: #fff;
      }

      .cls-2 {
        stroke-width: 5px;
      }
    </style>
  </defs>
  <rect class="cls-3" x="15.33" y="20.37" width="469.34" height="456.51" rx="121.92" ry="121.92"/>
  <rect class="cls-2" x="120.88" y="372.51" width="289.95" height="9.97"/>
  <path class="cls-2" d="m266.71,318.76c-16.87,0-30.55,13.68-30.55,30.55s13.68,30.55,30.55,30.55,30.55-13.68,30.55-30.55-13.68-30.55-30.55-30.55Zm.09,51.84c-11.39,0-20.62-9.23-20.62-20.62s9.23-20.62,20.62-20.62,20.62,9.23,20.62,20.62-9.23,20.62-20.62,20.62Z"/>
  <circle class="cls-1" cx="266.8" cy="349.31" r="5.35"/>
  <path class="cls-1" d="m425.14,280.06l-.4-.86c-1.2-2.58-4.24-3.74-6.86-2.62l-8.09,3.45-10.13-23.12h0s-41.31-99.25-41.31-99.25c-2.34-5.62-8.81-8.26-14.41-5.89l-126.46,53.55c-5.59,2.37-8.2,8.83-5.81,14.42,14.27,33.42,28.54,66.83,42.81,100.25,2.87-1.07,5.94-1.72,9.15-1.88.04-.07.08-.14.12-.21l-32.88-78.08,51.6-21.81,75.51-31.92,41.78,99.72-109.72,44.91s-.03.07-.05.1c2.09,2.92,3.69,6.22,4.65,9.78,21.16-10.13,105.86-44.57,127.7-53.42,2.8-1.14,4.08-4.39,2.8-7.13Zm-197.44-49.74l-6.32-14.75,125.7-53.72,7.72,14.75-127.11,53.72Z"/>
  <path class="cls-2" d="m322.42,213.88l-2.74-6.7c-2.48-6.05-9.5-8.81-15.43-6.08l-23.34,10.75c-5.79,2.67-8.3,9.53-5.6,15.3.91,1.95,1.87,3.98,2.79,5.92,2.64,5.58,9.21,8.08,14.89,5.66l23.32-9.94c5.78-2.46,8.51-9.11,6.12-14.92Zm-11.2,6.2c-6.98,3.13-13.96,6.27-20.94,9.4-1.55.7-3.37.05-4.14-1.46-1.09-2.15-2.19-4.31-3.28-6.46-.83-1.64-.1-3.65,1.59-4.37l21.1-8.98c1.53-.65,3.31-.01,4.08,1.47,1.04,2.01,2.08,4.03,3.11,6.04.84,1.62.14,3.61-1.53,4.36Z"/>
  <rect class="cls-1" x="112.19" y="239.66" width="69.95" height="10.45" rx="5.23" ry="5.23"/>
  <rect class="cls-2" x="127.06" y="292.41" width="46.71" height="10.45" rx="5.23" ry="5.23"/>
  <rect class="cls-2" x="85.26" y="292.41" width="26.93" height="10.45" rx="5.23" ry="5.23"/>
  <rect class="cls-2" x="104.05" y="181.38" width="55.8" height="10.45" rx="5.23" ry="5.23"/>
  <rect class="cls-2" x="67.94" y="181.38" width="26.93" height="10.45" rx="5.23" ry="5.23"/>
  <rect class="cls-2" x="274.98" y="270.12" width="56.68" height="10.45" rx="5.23" ry="5.23" transform="translate(-84.77 144.19) rotate(-23.56)"/>
  <rect class="cls-2" x="285.57" y="291.08" width="37.16" height="10.45" rx="5.23" ry="5.23" transform="translate(-93.08 146.27) rotate(-23.56)"/>
  <path class="cls-1" d="m262.96,134.09c-.88-1.54-2.44-3.93-5.17-4.74-2.8-.82-5.55.4-7.11,1.29l-54.94,23.27c-2.51-5.82-5.03-11.63-7.54-17.45-1.8-2.82-5.05-7.14-10.34-10.99-4.98-3.62-9.78-5.37-12.93-6.25-21.4-2.15-42.8-4.31-64.2-6.46-.28.01-1.72.1-2.8,1.29-1.34,1.48-.96,3.37-.92,3.56-.05.27-.37,2.14.92,3.76,1.45,1.81,3.66,1.73,3.88,1.72,19.82,1.94,39.64,3.88,59.46,5.82,2.41.44,6.9,1.59,11.42,4.95,5.14,3.83,7.6,8.49,8.62,10.77l29.67,72.9,72.66-35.2c-9.69-24.65-17.49-42.66-20.68-48.26Zm-62.91,29.51c1.29-.22,54.29-22.19,54.29-22.19l18.1,41.36-54.07,25.17-18.31-44.34Z"/>
</svg>