<?xml version="1.0" encoding="UTF-8"?>
<svg id="Capa_1" data-name="Capa 1" xmlns="http://www.w3.org/2000/svg" viewBox="0 0 500 500">
  <defs>
    <style>
      .cls-1 {
        fill: #e84714;
      }

      .cls-2 {
        stroke: #fff;
        stroke-width: 2px;
      }

      .cls-2, .cls-3, .cls-4, .cls-5, .cls-6, .cls-7, .cls-8 {
        stroke-miterlimit: 10;
      }

      .cls-2, .cls-4 {
        fill: #fff;
      }

      .cls-3, .cls-6, .cls-8 {
        stroke: #223469;
      }

      .cls-3, .cls-8 {
        fill: #223469;
      }

      .cls-4, .cls-5, .cls-6, .cls-7, .cls-8 {
        stroke-width: 5px;
      }

      .cls-4, .cls-7 {
        stroke: #e84714;
      }

      .cls-5 {
        stroke: #e84710;
      }

      .cls-5, .cls-6, .cls-7 {
        fill: none;
      }

      .cls-9 {
        fill: #e84710;
      }
    </style>
  </defs>
  <path class="cls-1" d="m402.63,336.41c-1.52.08-3.04.2-4.56.28-1.56.11-3.12.21-4.68.32-1.4.12-2.8.2-4.2.28-5.44-8.91-19.96-29.83-46.43-40.5-12.64-5.11-23.95-6.23-28.55-6.55-2.68-.2-18.04-1.12-35.39,4.27-31.59,9.86-49.55,34.39-55.23,42.89-1.33-.05-2.67-.11-4-.16-1.36-.08-2.68-.12-4.04-.2,1.12-4.47,2.92-10.78,5.72-18.13,4.6-12.06,7.04-19.21,13.68-26.2,3.96-4.15,11.12-10.02,19.76-14.9,2.52-1.44,6.48-3.51,11.52-5.51,33.15-13.06,64.39-2.56,71.78.2,10.28,3.79,17.68,8.59,19.68,9.94,1.52,1,7.6,5.07,14.8,12.18,14.88,14.62,25.47,32.99,30.15,41.77Z"/>
  <path class="cls-5" d="m224.56,81.79l-148.46,122.06c-8.79,7.23-21.75,6.01-28.95-2.73l-25.27-30.65c-7.2-8.73-5.91-21.67,2.88-28.9L173.22,19.52c8.79-7.23,21.75-6.01,28.95,2.73l25.27,30.65c7.2,8.73,5.91,21.67-2.88,28.9Z"/>
  <path class="cls-9" d="m206.63,81.54l-128.63,105.75c-9.1,7.48-22.54,6.18-30.03-2.91l-9.55-11.58c-7.49-9.08-6.18-22.51,2.91-29.99L169.97,37.06c9.1-7.48,22.54-6.18,30.03,2.91l9.55,11.58c7.49,9.08,6.18,22.51-2.91,29.99Z"/>
  <ellipse class="cls-2" cx="182.95" cy="65.86" rx="10" ry="9.98"/>
  <path class="cls-6" d="m479.2,373.92c-5.43,36.92-5.41,57.58-14.84,89.94-2.16,7.42-6.52,21.04-16.81,24.05-2.5.73-4.76.66-6.29.48,2.24-.76,5.9-2.38,8.98-5.88.72-.82,1.66-2.03,2.88-4.27,3.27-6.02,4.25-11.63,4.43-12.74,2.74-16.56,8.3-62.36,11.45-82.88.97-6.3,4.32-28.2,4.32-43.77,0-4.87-.25-10.02-.84-15.73-.6-5.87-1.32-10.66-1.92-13.94-.92-2.28-2.64-6.51-5.04-11.62-5.8-12.46-29.47-61.86-75.7-102.04-12.04-10.5-21.32-16.61-26.71-19.93-7.08-4.39-16.2-9.43-30.75-15.5-35.55-14.78-45.19-10.82-66.3-22.28-9.32-5.07-22.31-13.5-35.91-27.64-45.39,37.26-90.74,74.56-136.09,111.86-.08-.08-.12-.12-.16-.2,48.83-40.1,97.66-80.23,146.45-120.37,13.64,14.14,26.59,22.56,35.95,27.64,21.12,11.46,30.75,7.51,66.26,22.28,14.56,6.07,23.71,11.1,30.79,15.5,5.36,3.31,14.68,9.47,26.71,19.93,46.23,40.18,69.86,89.58,75.66,102.04,2.4,5.15,4.16,9.35,5.08,11.62.56,3.27,1.32,8.07,1.88,13.94,2.4,24.12-.72,40.74-3.48,59.51Z"/>
  <path class="cls-6" d="m176.63,456.67c-2.13.92-4.76,2.19-7.76,1.84-5.76-.68-9.52-5.47-12-8.75-7.88-10.38-9.08-22.01-9.4-24.96,0,0-3.72-34.83-14.6-77.4-3.68-14.3-4.44-13.02-7.8-27.2-5.84-24.72-4.96-34.67-8.44-49.84-2.72-12.02-8.6-28.95-22.59-48.32,45.35-37.3,90.7-74.6,136.09-111.86.28.28.56.6.84.88-42.99,35.26-85.9,70.61-128.85,105.91,14,19.37,19.88,36.3,22.59,48.32,3.48,15.18,2.6,25.12,8.44,49.84,3.36,14.18,4.12,12.9,7.8,27.2,10.88,42.57,14.6,77.4,14.6,77.4,1.63,12.46,6.32,20.6,9.4,24.96,2.82,3.99,6.82,9.51,12.02,9.43,4.48-.07,7.8-4.26,8.02-3.99.21.27-2.99,4.21-8.36,6.54Z"/>
  <path class="cls-8" d="m469.01,382.62c-6.18,50.01-7.15,48.64-8.52,62.74-.28,2.85-1.03,7.41-2.55,16.52-.99,5.96-1.75,10.07-4.1,14.98-1.46,3.06-2.82,5.81-5.79,8.17-4.09,3.26-8.7,3.76-10.88,3.85-2.62-.24-10.65-1.33-17.67-7.86-8.4-7.81-9.33-17.78-9.48-20.05,4.04-35.54,7.12-81.11,2.4-119.81-.36-2.98-.89-6.88-2.08-11.55,0,0-.87-3.38-2.04-6.7-1.54-4.38-16.21-38.46-56.12-57.1-16.6-7.75-30.76-9.66-38.05-10.58,0,0-38.29-4.84-68.04,9.97-1.1.55-2.12,1.12-2.12,1.12-3.24,1.84-7.8,4.87-12.84,10.3,0,0-.04,0-.04.04-3.92,4.27-8.12,9.94-12.2,17.65-14.12,26.64-10.96,47.88-18.6,119.17-.48,4.51-2.88,24.56-16.52,37.86-.48.44-.92.88-1.36,1.24-2.8,1.04-4.76.92-5.48.84-5.76-.68-9.52-5.47-12-8.75-7.88-10.38-9.08-22.01-9.4-24.96,0,0-3.72-34.83-14.6-77.4-3.68-14.3-4.44-13.02-7.8-27.2-5.84-24.72-4.96-34.67-8.44-49.84-2.72-12.02-8.6-28.95-22.59-48.32,42.95-35.3,85.86-70.65,128.85-105.91,13.32,13.62,25.95,21.81,35.07,26.76,21.12,11.46,30.75,7.51,66.3,22.28,14.56,6.07,23.67,11.1,30.75,15.5,5.4,3.31,14.68,9.43,26.71,19.93,46.23,40.18,69.9,89.58,75.7,102.04,2.4,5.11,4.12,9.35,5.04,11.62.6,3.27,1.32,8.07,1.92,13.94,1.55,15.16.66,26.06-3.48,59.51Z"/>
  <path class="cls-7" d="m395.22,397.41c-2.29,48.71-43.7,86.38-92.47,84.12-48.74-2.22-86.38-43.49-84.05-92.16.3-6.2,1.24-12.24,2.75-18.03,2.75-10.67,7.45-20.51,13.65-29.18,16.89-23.55,44.98-38.38,76.08-36.95,28.2,1.31,52.69,15.66,67.84,36.95,3.99,5.6,7.33,11.64,9.93,18.1,4.63,11.42,6.92,24,6.28,37.14Z"/>
  <ellipse class="cls-4" cx="306.52" cy="394.12" rx="77.09" ry="76.99"/>
  <line class="cls-7" x1="306.52" y1="317.13" x2="306.52" y2="471.11"/>
  <path class="cls-3" d="m308.96,319.18c.01,24.17.02,48.35.04,72.52h72.28c-.36-6.72-2.36-27.82-18.79-46.58-20.5-23.38-48.11-25.62-53.52-25.94Z"/>
</svg>