<?xml version="1.0" encoding="UTF-8"?>
<svg id="Capa_1" data-name="Capa 1" xmlns="http://www.w3.org/2000/svg" viewBox="0 0 500 500">
  <defs>
    <style>
      .cls-1 {
        fill: #e84721;
        stroke: #e73d1d;
        stroke-width: 10px;
      }

      .cls-1, .cls-2 {
        stroke-miterlimit: 10;
      }

      .cls-2 {
        fill: #262c52;
        stroke: #262c52;
        stroke-width: 3px;
      }
    </style>
  </defs>
  <path class="cls-1" d="m414.92,258.15v-116.78H70.14v112.64l-47.27,117.22c-.13,3.59-.27,7.18-.4,10.78v91.64h455.08v-91.29h.41v-11.12l-63.03-113.07ZM81.26,152.49h322.54v101.51H81.26v-101.51Zm322.54,112.64l58.31,106.1H35.84l45.42-106.1h322.54Zm63.14,197.39H33.06v-80.17h433.88v80.17Z"/>
  <path class="cls-2" d="m109.06,173.8v55.61h124.42v-55.61h-124.42Zm113.07,42.63h-98.25v-29.66h98.25v29.66Z"/>
  <rect class="cls-2" x="284.23" y="192.34" width="92.68" height="10.9"/>
  <rect class="cls-1" x="317.37" y="112.05" width="69.98" height="10.9" transform="translate(469.86 -234.86) rotate(90)"/>
  <rect class="cls-2" x="345.26" y="322.1" width="35.22" height="16.68" rx="8.34" ry="8.34"/>
  <rect class="cls-2" x="261.06" y="319.76" width="35.22" height="16.68" rx="8.34" ry="8.34"/>
  <rect class="cls-2" x="176.01" y="325.1" width="35.22" height="16.68" rx="8.34" ry="8.34"/>
  <rect class="cls-2" x="100.72" y="325.1" width="35.22" height="16.68" rx="8.34" ry="8.34"/>
  <rect class="cls-2" x="307.04" y="284.56" width="35.22" height="16.68" rx="8.34" ry="8.34"/>
  <rect class="cls-2" x="224.92" y="283.85" width="35.22" height="16.68" rx="8.34" ry="8.34"/>
  <rect class="cls-2" x="140.79" y="288.19" width="35.22" height="16.68" rx="8.34" ry="8.34"/>
  <path class="cls-1" d="m391.75,20.87h-77.85c-16.31,5.18-26.98,20.66-25.95,37.07.93,14.85,11.28,27.85,25.95,32.44h77.85c13.04-5.65,22.01-17.78,23.17-31.51,1.35-15.87-7.95-31.27-23.17-38Zm12.98,38c-.79,9.84-8.34,18.29-18.54,20.39h-72.29c-.61-.31-12.89-6.73-13.9-20.39-.73-9.9,4.76-19.45,13.9-24.1h72.29c11.57,2.47,19.43,13.02,18.54,24.1Z"/>
</svg>