<?xml version="1.0" encoding="UTF-8"?>
<svg id="Capa_1" data-name="Capa 1" xmlns="http://www.w3.org/2000/svg" viewBox="0 0 500 500">
  <defs>
    <style>
      .cls-1 {
        stroke: #c94921;
      }

      .cls-1, .cls-2 {
        fill: none;
        stroke-miterlimit: 10;
        stroke-width: 20px;
      }

      .cls-2 {
        stroke: #292d51;
      }
    </style>
  </defs>
  <path class="cls-1" d="m105.34,65.01c11.73-11.76,23.45-23.53,35.18-35.29,6.27-6.29,14.79-9.83,23.68-9.83h213.57c2.98-.15,14.37-.37,24.53,7.8,13.32,10.72,13.4,26.91,13.38,28.99v312.19c.04,3.79-.28,18.2-11.15,30.1-1.09,1.19-2.2,2.27-3.32,3.25-5.96,5.2-13.69,7.9-21.6,7.9h-25.66"/>
  <path class="cls-2" d="m83.86,96.35c.18-20.93,19.06-36.72,39.69-33.21,65.36,11.11,130.72,22.22,196.07,33.34h0c2.45.27,17.4,2.16,27.19,15.61,7.45,10.24,7.5,21.11,7.22,25.36-.05.83-.09,1.65-.09,2.48v307.3c1.12,10.4-3.29,20.55-11.58,26.49-9.81,7.03-20.69,5.01-23.88,4.22-.57-.14-1.14-.28-1.72-.38-67.17-12.5-134.34-25-201.51-37.51-3.46-.64-6.81-1.79-9.9-3.49-4.28-2.35-9.63-6.15-14.34-12.13-5.9-7.48-8.26-15.17-9.25-20.26-.42-2.14-.59-4.32-.57-6.5.89-100.44,1.77-200.88,2.66-301.32Z"/>
</svg>