<?xml version="1.0" encoding="UTF-8"?>
<svg id="Capa_1" data-name="Capa 1" xmlns="http://www.w3.org/2000/svg" viewBox="0 0 500 500">
  <defs>
    <style>
      .cls-1 {
        fill: #252b51;
      }

      .cls-2 {
        fill: #e84721;
      }
    </style>
  </defs>
  <path class="cls-1" d="m319.84,53.63l62.57-35.94-4.66,26.62c7.86,2.98,80.31,31.94,103.05,112.04,21.93,77.23-20.48,138.12-25.85,145.54,24.99-66.77,16.27-136.21-24.63-178.38-19.63-20.24-42.78-30.19-60.57-35.28-2,7.32-3.99,14.64-5.99,21.96l-43.93-56.57Z"/>
  <path class="cls-1" d="m69.99,314.97l-62.92-35.32,25.25-9.64c-1.46-8.27-13.71-85.33,43.43-145.9,55.09-58.4,129.11-53.17,138.23-52.36-70.15,12.75-125.31,55.81-140.58,112.53-7.33,27.22-4.01,52.21.73,70.09,7.31-2.04,14.62-4.07,21.93-6.11l-26.08,66.71Z"/>
  <path class="cls-1" d="m424.71,376.47l7.16,71.8-22.38-15.16c-5.94,5.94-62.04,60.18-144.42,48.12-79.44-11.63-117.61-75.26-122.18-83.2,50.68,50.15,117.59,70.63,172.81,50.6,26.5-9.61,45.07-26.66,56.99-40.8-5.86-4.82-11.72-9.64-17.58-14.46l69.6-16.9Z"/>
  <path class="cls-2" d="m404.5,276.37v-54.58h-36.65c-2.17-7.34-5.14-14.33-8.81-20.89l25.38-25.38-38.59-38.59-25.13,25.13c-7.31-4.22-15.18-7.56-23.48-9.89v-35.33h-54.58v35.08c-7.82,2.11-15.27,5.11-22.23,8.91l-23.9-23.9-38.59,38.59,23.24,23.24c-4.24,7.16-7.63,14.88-10.04,23.03h-35.49v54.58h34.44c2.33,9.17,5.92,17.82,10.54,25.82l-24.89,24.89,38.59,38.59,25.13-25.13c7.24,4.06,15.03,7.26,23.22,9.48v35.74h54.58v-35.99c8.68-2.43,16.89-5.96,24.47-10.45l26.37,26.37,38.59-38.59-27.03-27.03c4.03-7.39,7.18-15.33,9.3-23.67h35.59Zm-134.45,42.66c-37.4,0-67.72-30.32-67.72-67.72s30.32-67.72,67.72-67.72,67.72,30.32,67.72,67.72-30.32,67.72-67.72,67.72Z"/>
</svg>