<?xml version="1.0" encoding="UTF-8"?>
<svg id="Capa_1" data-name="Capa 1" xmlns="http://www.w3.org/2000/svg" viewBox="0 0 500 500">
  <defs>
    <style>
      .cls-1 {
        fill: #be492b;
        stroke: #be4929;
      }

      .cls-1, .cls-2 {
        stroke-miterlimit: 10;
        stroke-width: 10px;
      }

      .cls-2 {
        fill: #292f50;
        stroke: #282e4e;
      }
    </style>
  </defs>
  <path class="cls-1" d="m238.87,36.19c.23-.62,5.96-15.52,20.6-18.13,12.23-2.18,25.23,5.19,30.48,18.13v201.03l59.73-59.73c10.55-7.6,25.18-6.33,34.19,2.88,8.86,9.06,9.94,23.41,2.47,33.78-35.57,35.57-71.13,71.13-106.7,106.7-1.18,1.19-6.92,6.76-16.07,7-9.92.26-16.25-5.94-17.3-7-37.01-37.01-74.01-74.01-111.02-111.02-.17-1-2.54-17.02,9.68-27.81,10.5-9.27,23.43-7.29,25.13-7,21.42,21.42,42.84,42.84,64.27,64.26l5.35,5.36-.82-208.45Z"/>
  <path class="cls-2" d="m51.23,321v82.04c1.19,7.8,6.09,33.4,28.84,54.7,22.15,20.74,47.37,24.45,55.41,25.31h262.14c9.34-2.05,34.47-8.86,55.51-31.84,17.47-19.08,23.25-39.61,25.31-49.19v-81.02c-2.07-12.49-13.16-21.42-25.31-20.82-11.29.56-20.97,9.23-22.86,20.82v65.72c-.88,5.59-3.36,16.33-11.43,26.94-11.09,14.58-25.71,19.66-31.02,21.23h-248.43c-5.21-2.06-13.02-5.92-20.6-13.06-10.94-10.31-15.46-21.86-17.3-27.76v-68.57c-.52-14.31-12.32-25.38-25.54-25.31-11.58.07-22.15,8.68-24.72,20.82Z"/>
</svg>