<?xml version="1.0" encoding="UTF-8"?>
<svg id="Capa_1" data-name="Capa 1" xmlns="http://www.w3.org/2000/svg" viewBox="0 0 240 240">
  <defs>
    <style>
      .cls-1 {
        stroke: #c94923;
      }

      .cls-1, .cls-2 {
        fill: none;
        stroke-miterlimit: 10;
        stroke-width: 10px;
      }

      .cls-2 {
        stroke: #292e50;
      }
    </style>
  </defs>
  <g>
    <path class="cls-1" d="m150.75,54.5h-85.25v16.64c0,5.72-4.64,10.36-10.36,10.36h-18.5l-.14.14v135.11c0,5.94,4.81,10.75,10.75,10.75h103.49c5.94,0,10.75-4.81,10.75-10.75V65.25c0-5.94-4.81-10.75-10.75-10.75Z"/>
    <path class="cls-1" d="m64.69,53.52c-9.37,9.19-18.74,18.38-28.11,27.57"/>
  </g>
  <path class="cls-2" d="m171.75,198.59c1.57-1.04,3.43-2.48,5.27-4.46,3.1-3.34,4.8-6.76,5.73-9.13,9.17-45.89,18.33-91.77,27.5-137.66.28-.93,1.4-4.96-.67-9.35-2.14-4.54-6.16-6.22-7.03-6.56-28.52-5.44-57.04-10.87-85.56-16.31-10.27,6.41-20.53,12.82-30.8,19.22-.08,4.13-.16,8.27-.24,12.4"/>
  <path class="cls-2" d="m87.24,34.01c6.11,1.38,12.23,2.76,18.34,4.14.79.15,2.16.29,3.67-.24,3.61-1.28,4.64-5.22,4.74-5.61.29-4.95.58-9.9.87-14.85"/>
  <circle class="cls-2" cx="92.42" cy="138.29" r="31.5"/>
  <path class="cls-2" d="m103.9,167.62c7.44,6.99,14.87,13.98,22.31,20.97,4.04,3.1,9.75,2.88,13.53-.48,3.82-3.41,4.65-9.15,1.93-13.53-7.22-7.03-14.44-14.05-21.66-21.08"/>
  <path class="cls-1" d="m74.04,134.98c-.29,1.36-.77,4.52.48,8.21,1.31,3.84,3.76,6.09,4.83,6.98"/>
</svg>