<?xml version="1.0" encoding="UTF-8"?>
<svg id="Capa_1" data-name="Capa 1" xmlns="http://www.w3.org/2000/svg" viewBox="0 0 500 500">
  <defs>
    <style>
      .cls-1 {
        stroke: #2c3052;
      }

      .cls-1, .cls-2 {
        fill: none;
        stroke-miterlimit: 10;
        stroke-width: 5px;
      }

      .cls-2 {
        stroke: #c94923;
      }
    </style>
  </defs>
  <g>
    <path class="cls-2" d="m106.14,12.04h233.69v45.63c0,15.68,12.71,28.39,28.39,28.39h50.73c.15.15.23.23.38.38v370.38c0,16.28-13.2,29.48-29.48,29.48H106.14c-16.28,0-29.48-13.2-29.48-29.48V41.52c0-16.28,13.2-29.48,29.48-29.48Z"/>
    <path class="cls-2" d="m342.06,9.34c25.69,25.2,51.37,50.39,77.06,75.59"/>
  </g>
  <path class="cls-1" d="m165.19,361.64l32.38-60.29c14.32-26.67,28.64-53.33,42.96-80,2.49-9.06,4.98-18.12,7.47-27.17,2.11-12.69,4.22-25.37,6.32-38.06-1.69-13.3-8.94-22.25-15.81-22.46-8.95-.27-14.91,14.37-15.79,16.53-8.17,20.06,3.81,41.22,7.05,46.57,13.55,25.7,34.85,58.63,67.93,90.24,15.28,14.6,30.43,26.39,44.37,35.89,14.27,3.97,26-3.91,27.02-11.22.9-6.46-6.14-15.46-17.87-18.1-22.18-6.23-62.73-14.3-111.45-4.57-29.16,5.83-52.27,16.24-68.43,25.22-10.65,6.83-18.59,13.63-24.05,18.81-11.02,10.46-13.32,15.66-14.38,19.56-.39,1.43-3.45,13.57,1.98,18.56,5.7,5.25,20.1,3.47,30.32-9.52Z"/>
</svg>