<?xml version="1.0" encoding="UTF-8"?>
<svg id="Capa_1" data-name="Capa 1" xmlns="http://www.w3.org/2000/svg" viewBox="0 0 500 500">
  <defs>
    <style>
      .cls-1 {
        fill: #252c52;
      }

      .cls-2 {
        fill: #e84721;
      }
    </style>
  </defs>
  <polygon class="cls-2" points="30.77 152.38 214.72 253.84 214.72 466.15 31.03 357.74 30.77 152.38"/>
  <path class="cls-2" d="m222.92,7.1L14.7,129.24v218.87h0v18.85l207.39,121.32,86.07-49.18-11.48-13.12-66.4,40.17v-212.31l74.6-45.91v70.5h.04c.38,3.92,3.52,6.98,7.34,6.98s6.96-3.06,7.34-6.98h.04v-77.05l93.45-54.92v143.45l16.4,6.56v-167.23L222.92,7.1Zm-8.2,459.05L31.03,357.74c-.09-68.45-.17-136.91-.26-205.36,61.31,33.82,122.63,67.64,183.95,101.46v212.31Zm7.38-226.25L39.64,132.16l94.38-54.51-5.61,3.24,168.91,115.22,7-4.07-82.21,47.87Zm92.03-53.58l-170.75-114.08,78.73-45.47,184.44,105.75-92.41,53.81Z"/>
  <path class="cls-1" d="m385.85,276.15c-57.99,0-105,47.01-105,105s47.01,105,105,105,105-47.01,105-105-47.01-105-105-105Zm-.13,194.42c-48.88,0-88.5-39.62-88.5-88.5s39.62-88.5,88.5-88.5,88.5,39.62,88.5,88.5-39.62,88.5-88.5,88.5Z"/>
  <path class="cls-1" d="m346.81,374.07l27.25,31.97,52.93-70.75c.39-.19,4.5-2.15,8.39,0,3.44,1.9,5.24,6.21,4.19,10.48-19.92,26.21-39.83,52.41-59.75,78.61-.8.57-3.28,2.18-6.81,2.1-3.22-.07-5.47-1.51-6.29-2.1-11.18-14.11-22.36-28.21-33.54-42.32-.82-4.04,1.22-8.04,4.72-9.56,2.91-1.27,6.41-.65,8.91,1.57Z"/>
  <path class="cls-1" d="m128.4,80.89l168.91,115.22,7.58,11.82c.01,23.5.03,47,.04,70.5.19,3.89,3.44,6.98,7.34,6.98s7.15-3.1,7.34-6.98c.01-25.68.03-51.37.04-77.05l-5.52-15.05-170.75-114.08-14.97,8.65Z"/>
</svg>