<?xml version="1.0" encoding="UTF-8"?>
<svg id="Capa_1" data-name="Capa 1" xmlns="http://www.w3.org/2000/svg" viewBox="0 0 500 500">
  <defs>
    <style>
      .cls-1 {
        fill: #242b51;
      }

      .cls-2 {
        fill: #e84710;
        stroke: #fff;
        stroke-miterlimit: 10;
      }
    </style>
  </defs>
  <path class="cls-1" d="m413.26,81.73h-55.79V25.04h-54.88v56.69h-111.91V25.04h-52.73v56.69h-53.63c-15.55,0-28.15,12.6-28.15,28.15v55.05h385.24v-55.05c0-15.55-12.6-28.15-28.15-28.15Z"/>
  <path class="cls-2" d="m405.9,193.98H56.17v239.97c0,19.61,15.9,35.51,35.51,35.51h314.22c19.61,0,35.51-15.9,35.51-35.51v-239.97h-35.51Zm-299.16,54.88h57.57v54.96h-57.57v-54.96Zm59.99,165.76h-57.57v-54.96h57.57v54.96Zm54.86-165.78h57.57v54.96h-57.57v-54.96Zm59.99,165.76h-57.57v-54.96h57.57v54.96Zm48.45-165.76h57.57v54.96h-57.57v-54.96Zm59.99,165.76h-57.57v-54.96h57.57v54.96Z"/>
</svg>