<?xml version="1.0" encoding="UTF-8"?>
<svg id="Capa_1" data-name="Capa 1" xmlns="http://www.w3.org/2000/svg" viewBox="0 0 500 500">
  <defs>
    <style>
      .cls-1 {
        fill: #f6f6f6;
      }

      .cls-2 {
        fill: none;
        stroke: #213467;
        stroke-width: 20px;
      }

      .cls-2, .cls-3 {
        stroke-miterlimit: 10;
      }

      .cls-4 {
        fill: #e84721;
      }

      .cls-3 {
        fill: #223469;
        stroke: #223469;
        stroke-width: 5px;
      }
    </style>
  </defs>
  <path class="cls-1" d="m362.75,485.19c-107.48-10.5-344.73,51.4-347.42-121.92C24.54,256.39-32.95,31.98,137.25,28.68c107.47,10.5,344.73-51.4,347.42,121.92-9.2,106.88,48.29,331.28-121.91,334.59Z"/>
  <g>
    <rect class="cls-4" x="355.9" y="200.87" width="41.74" height="218.1"/>
    <rect class="cls-3" x="291.19" y="227.99" width="40.7" height="190.98"/>
    <rect class="cls-4" x="228.58" y="305.39" width="41.74" height="113.57"/>
    <rect class="cls-3" x="167.01" y="268.95" width="39.66" height="150.02"/>
    <rect class="cls-4" x="101.26" y="343.96" width="41.74" height="75.01"/>
    <polyline class="cls-2" points="91.87 277.67 171.18 200.87 206.66 232.16 273.45 167.78 300.59 193.75 365.29 129.89"/>
    <path class="cls-4" d="m365.29,102.76s24,28.18,25.05,27.13,13.57-37.1,13.57-37.1l-38.61,9.96Z"/>
  </g>
</svg>