<?xml version="1.0" encoding="UTF-8"?>
<svg id="Capa_1" data-name="Capa 1" xmlns="http://www.w3.org/2000/svg" viewBox="0 0 500 500">
  <defs>
    <style>
      .cls-1 {
        fill: #d7d7d7;
      }

      .cls-2 {
        fill: #252c52;
      }

      .cls-3 {
        fill: #e84721;
      }
    </style>
  </defs>
  <path class="cls-1" d="m188.02,116.21c-10.97,10.2-22.82,22.5-34.64,37.13-15.83,19.57-27.73,38.49-36.64,54.94-.13.19-1.38,2.04-2.98,1.87-.03,0-.07,0-.07,0s-.45-.07-.89-.26c-1.75-.77-3.57-5.37-3.57-5.37-.68-1.73-1.59-3.36-2.25-5.1-4.52-12.02-10.88-21.16-10.88-21.16-.79-1.13-2.01-2.81-3.63-4.78-.41-.52-1.97-2.35-4.63-2.77-1.34-.21-2.46.02-3.13.23.1-.53,1.31-6.19,6.73-8.57,4.28-1.89,8.21-.42,8.99-.12,2.25,1.26,5.32,3.3,8.32,6.51,3.53,3.77,5.49,7.59,6.57,10.16,6.66-10.03,15.6-21.66,27.44-33.36,8.15-8.06,16.18-14.68,23.52-20.06,3.39-2.59,7.27-5.25,11.67-7.79,1.99-1.15,3.94-2.2,5.84-3.14.29-.08,1.56-.4,2.85.3.78.43,1.21,1.04,1.4,1.36Z"/>
  <path class="cls-3" d="m197.44,406.95h-108.25c-22.04,0-39.91-17.87-39.91-39.91V108.77c0-22.04,17.87-39.91,39.91-39.91h262.33c22.04,0,39.91,17.87,39.91,39.91v109.73c9.31,2.47,18.29,5.77,26.84,9.81v-121.6c0-37.53-30.42-67.95-67.95-67.95H89.86c-37.53,0-67.95,30.42-67.95,67.95v260.46c0,37.53,30.42,67.95,67.95,67.95h117.07c-4.01-8.98-7.21-18.4-9.49-28.17Z"/>
  <path class="cls-2" d="m349.09,236.94c-71.24,0-129,57.76-129,129s57.76,129,129,129,129-57.76,129-129-57.76-129-129-129Zm70.95,133.13c0,6.19-5.02,11.21-11.21,11.21h-46.29v42.76c0,7.27-5.89,13.16-13.16,13.16h-1.51c-7.27,0-13.16-5.89-13.16-13.16v-42.76h-45.35c-6.19,0-11.21-5.02-11.21-11.21v-5.56c0-6.19,5.02-11.21,11.21-11.21h45.35v-45.2c0-7.27,5.89-13.16,13.16-13.16h1.51c7.27,0,13.16,5.89,13.16,13.16v45.2h46.29c6.19,0,11.21,5.02,11.21,11.21v5.56Z"/>
  <rect class="cls-1" x="221.47" y="154.59" width="112.04" height="27.25" rx="13.63" ry="13.63"/>
  <path class="cls-1" d="m197.14,255.6c-10.97,10.2-22.82,22.5-34.64,37.13-15.83,19.57-27.73,38.49-36.64,54.94-.13.19-1.38,2.04-2.98,1.87-.03,0-.07,0-.07,0s-.45-.07-.89-.26c-1.75-.77-3.57-5.37-3.57-5.37-.68-1.73-1.59-3.36-2.25-5.1-4.52-12.02-10.88-21.16-10.88-21.16-.79-1.13-2.01-2.81-3.63-4.78-.41-.52-1.97-2.35-4.63-2.77-1.34-.21-2.46.02-3.13.23.1-.53,1.31-6.19,6.73-8.57,4.28-1.89,8.21-.42,8.99-.12,2.25,1.26,5.32,3.3,8.32,6.51,3.53,3.77,5.49,7.59,6.57,10.16,6.66-10.03,15.6-21.66,27.44-33.36,8.15-8.06,16.18-14.68,23.52-20.06,3.39-2.59,7.27-5.25,11.67-7.79,1.99-1.15,3.94-2.2,5.84-3.14.29-.08,1.56-.4,2.85.3.78.43,1.21,1.04,1.4,1.36Z"/>
</svg>