<?xml version="1.0" encoding="UTF-8"?>
<svg id="Capa_1" data-name="Capa 1" xmlns="http://www.w3.org/2000/svg" viewBox="0 0 500 500">
  <defs>
    <style>
      .cls-1 {
        fill: #f6f6f6;
      }

      .cls-2 {
        fill: #e84721;
      }

      .cls-3 {
        fill: #223469;
        stroke: #223469;
        stroke-miterlimit: 10;
        stroke-width: 5px;
      }
    </style>
  </defs>
  <rect class="cls-1" x="15.92" y="24.74" width="469.34" height="456.51" rx="121.92" ry="121.92"/>
  <g>
    <path class="cls-3" d="m336.99,129.54c-4.26-8.63-8.51-17.26-12.77-25.88-.68-1.38-2.08-2.25-3.62-2.25l-36.84-.07-5.02-5.19v-3.61c0-4.49-3.64-8.13-8.13-8.13h-33.03c-4.49,0-8.13,3.64-8.13,8.13v4.44l-4,4.26-37.06-.07c-2.33,0-4.46,1.31-5.5,3.4-4.13,8.32-8.26,16.64-12.4,24.96-2.02,4.07.94,8.86,5.49,8.86h155.51c4.54,0,7.51-4.77,5.5-8.84Zm-82.34-28.67c-3.27,0-5.93-2.65-5.93-5.93s2.65-5.93,5.93-5.93,5.93,2.65,5.93,5.93-2.65,5.93-5.93,5.93Z"/>
    <path class="cls-2" d="m372.27,108.76h-37.79c3.31,5.97,6.52,11.82,9.31,16.95h21.7v279.34h-227.14V125.71h25.64l10.04-16.95h-43.13c-6.37,0-11.53,5.16-11.53,11.53v292.9c0,6.37,5.16,11.53,11.53,11.53h241.37c6.37,0,11.53-5.16,11.53-11.53V120.28c0-6.37-5.16-11.53-11.53-11.53Z"/>
    <polygon class="cls-3" points="211.08 199.19 211.08 212.21 175.71 212.21 175.71 176.83 211.08 176.83 211.08 177.9 218.35 171.64 218.35 168.95 168.56 168.95 168.56 220.22 218.35 220.22 218.35 195.13 211.08 199.19"/>
    <path class="cls-2" d="m188.51,185.47l10.38,9.87c.27.26.7.26.97,0l33.74-33.26c.29-.29.76-.26,1.02.05l4.28,5.09c.23.28.21.69-.05.95l-38.97,38.25c-.28.27-.72.27-.99-.01l-19.24-19.94c-.27-.28-.26-.72.02-.99h0c2.48-2.35,6.36-2.35,8.84,0Z"/>
    <rect class="cls-2" x="248.18" y="185.46" width="91.69" height="7.39"/>
    <rect class="cls-3" x="248.18" y="201.61" width="91.69" height="7.39"/>
    <polygon class="cls-3" points="212.37 283.73 212.37 296.75 177 296.75 177 261.38 212.37 261.38 212.37 262.45 219.64 256.18 219.64 253.49 169.85 253.49 169.85 304.76 219.64 304.76 219.64 279.68 212.37 283.73"/>
    <path class="cls-2" d="m189.79,270.02l10.38,9.87c.27.26.7.26.97,0l33.74-33.26c.29-.29.76-.26,1.02.05l4.28,5.09c.23.28.21.69-.05.95l-38.97,38.25c-.28.27-.72.27-.99-.01l-19.24-19.94c-.27-.28-.26-.72.02-.99h0c2.48-2.35,6.36-2.35,8.84,0Z"/>
    <rect class="cls-2" x="249.46" y="270.01" width="91.69" height="7.39"/>
    <rect class="cls-3" x="249.46" y="286.15" width="91.69" height="7.39"/>
    <polygon class="cls-3" points="212.37 367.29 212.37 380.31 177 380.31 177 344.94 212.37 344.94 212.37 346.01 219.64 339.74 219.64 337.05 169.85 337.05 169.85 388.32 219.64 388.32 219.64 363.24 212.37 367.29"/>
    <path class="cls-2" d="m189.79,353.58l10.38,9.87c.27.26.7.26.97,0l33.74-33.26c.29-.29.76-.26,1.02.05l4.28,5.09c.23.28.21.69-.05.95l-38.97,38.25c-.28.27-.72.27-.99-.01l-19.24-19.94c-.27-.28-.26-.72.02-.99h0c2.48-2.35,6.36-2.35,8.84,0Z"/>
    <rect class="cls-2" x="249.46" y="353.57" width="91.69" height="7.39"/>
    <rect class="cls-3" x="249.46" y="369.71" width="91.69" height="7.39"/>
  </g>
</svg>