<?xml version="1.0" encoding="UTF-8"?>
<svg id="Capa_1" data-name="Capa 1" xmlns="http://www.w3.org/2000/svg" viewBox="0 0 500 500">
  <defs>
    <style>
      .cls-1 {
        fill: #c94828;
      }

      .cls-2 {
        fill: none;
        stroke: #2c3052;
        stroke-miterlimit: 10;
        stroke-width: 5px;
      }
    </style>
  </defs>
  <path class="cls-2" d="m111.27,403.85h-20.64V43.9c.08-12.57,9.45-22.78,20.64-23.94,12.78-1.32,25.33,9.44,25.59,23.94v432.6l37.15-16.51,30.55,16.51,27.24-16.51,26.42,16.51,29.72-15.69,30.55,15.69,25.59-16.51,28.9,16.51h10.73V43.9c0-1.75-.22-9.81-6.6-16.51-6.9-7.25-15.79-7.42-17.34-7.43-16.33-.06-114.28-1.82-248.5,0"/>
  <rect class="cls-1" x="165.76" y="50.5" width="64.4" height="14.03"/>
  <rect class="cls-1" x="165.76" y="79.4" width="189.06" height="14.03"/>
  <rect class="cls-1" x="165.76" y="226.35" width="189.06" height="14.03"/>
  <rect class="cls-1" x="165.76" y="109.24" width="94.53" height="14.41"/>
  <rect class="cls-1" x="303.14" y="109.24" width="51.67" height="14.41"/>
  <rect class="cls-1" x="165.76" y="138.35" width="94.53" height="14.41"/>
  <rect class="cls-1" x="303.14" y="138.35" width="51.67" height="14.41"/>
  <rect class="cls-1" x="167" y="167.8" width="94.53" height="14.41"/>
  <rect class="cls-1" x="304.38" y="167.8" width="51.67" height="14.41"/>
  <rect class="cls-1" x="165.76" y="197.07" width="94.53" height="14.41"/>
  <rect class="cls-1" x="303.14" y="197.07" width="51.67" height="14.41"/>
  <rect class="cls-1" x="164.49" y="416.82" width="14.41" height="14.41"/>
  <rect class="cls-1" x="193.78" y="416.82" width="14.41" height="14.41"/>
  <rect class="cls-1" x="223.49" y="416.82" width="14.41" height="14.41"/>
  <rect class="cls-1" x="252.79" y="416.82" width="14.41" height="14.41"/>
  <rect class="cls-1" x="281.98" y="416.82" width="14.41" height="14.41"/>
  <rect class="cls-1" x="311.28" y="416.82" width="14.41" height="14.41"/>
  <rect class="cls-1" x="340.59" y="416.82" width="14.41" height="14.41"/>
</svg>