<?xml version="1.0" encoding="UTF-8"?>
<svg id="Capa_1" data-name="Capa 1" xmlns="http://www.w3.org/2000/svg" viewBox="0 0 500 500">
  <defs>
    <style>
      .cls-1 {
        fill: #fff;
      }
    </style>
  </defs>
  <g>
    <path class="cls-1" d="m259.03,26.8c-120.28,0-217.79,97.02-217.79,216.71,0,41.77,12.08,80.65,32.66,113.74l24-19.95c-16.4-27.16-25.99-58.78-25.99-92.69,0-100.36,82.53-181.71,184.34-181.71s184.34,81.36,184.34,181.71-82.53,181.71-184.34,181.71c-18.1,0-35.54-2.68-52.06-7.47l-48.92,15.24c30.85,16.66,66.19,26.13,103.76,26.13,120.28,0,217.79-97.02,217.79-216.71S379.31,26.8,259.03,26.8Z"/>
    <path class="cls-1" d="m87.7,418.44c7.07-21.37,14.14-42.74,21.21-64.12-3.67-5.67-7.34-11.35-11.01-17.02-3.8,2.7-6.7,5.09-8.61,6.73-3.63,3.12-5.42,5.06-9.85,8.78-2.34,1.97-4.3,3.49-5.54,4.44-13.51,38.33-27.03,76.66-40.54,115,56.94-17.8,113.89-35.6,170.83-53.39-8.96-2.48-19.44-6.13-30.67-11.63-8.19-4.01-15.3-8.27-21.34-12.36-21.49,7.86-42.98,15.71-64.48,23.57Z"/>
  </g>
  <path class="cls-1" d="m315.32,272.49l56.35,28.7c.29,3.73,1.14,20.08-10.51,34.41-15.04,18.5-37.97,17.73-40.48,17.6-15.41-1.99-37.72-6.74-61.98-19-33.36-16.86-54.19-39.73-65.04-53.64-11.26-18.09-22.51-36.17-33.77-54.26-3.42-6.2-12.15-24.01-7.96-45.38,3.3-16.81,13.41-29.39,15.18-31.51,3.91-4.71,7.79-8.15,10.76-10.49,4.94-.25,9.88-.51,14.82-.76,4.23.78,10.13,2.66,14.06,7.7.99,1.27,1.55,2.34,1.93,3.1,10.06,19.68,12.23,33.34,16.25,42.03.36.78,1.41,2.97,1.09,5.74-.26,2.32-1.37,4.07-2.13,5.07-1.55,2.05-4.07,5.27-7.42,9.03-7.57,8.49-9.67,8.8-10.29,12.11-.62,3.35.92,5.46,9.39,19.51,6.58,10.91,5.57,9.51,6.71,11.21.46.69,8.12,12.01,19.46,22.08,17.93,15.93,39.01,23.37,46.96,25.89l26.61-29.15Z"/>
</svg>