<?xml version="1.0" encoding="UTF-8"?>
<svg id="Capa_1" data-name="Capa 1" xmlns="http://www.w3.org/2000/svg" viewBox="0 0 500 500">
  <defs>
    <style>
      .cls-1 {
        fill: #2b3052;
      }
    </style>
  </defs>
  <path class="cls-1" d="m306.97,11.71h-172.17c-30.01,0-54.34,24.33-54.34,54.34v343.88c0,30.01,24.33,54.34,54.34,54.34h230.39c30.01,0,54.34-24.33,54.34-54.34V137.72L306.97,11.71Zm-69.61,228.97l-58.48,51.55,51.74,58.69c2.86,3.25,2.55,8.2-.7,11.06l-7.12,6.28c-3.25,2.86-8.2,2.55-11.06-.7l-55.64-63.12c-.53-.36-1.04-.77-1.48-1.27l-6.28-7.12c-2.86-3.25-2.55-8.2.7-11.06l71.68-63.19c3.25-2.86,8.2-2.55,11.06.7l6.28,7.12c2.86,3.25,2.55,8.2-.7,11.06Zm113.3,55.37l-6.28,7.12c-.44.5-.95.91-1.48,1.27l-55.64,63.12c-2.86,3.25-7.81,3.56-11.06.7l-7.12-6.28c-3.25-2.86-3.56-7.81-.7-11.06l51.74-58.69-58.48-51.55c-3.25-2.86-3.56-7.81-.7-11.06l6.28-7.12c2.86-3.25,7.81-3.56,11.06-.7l71.68,63.19c3.25,2.86,3.56,7.81.7,11.06Zm9.61-166.02h-68.35c-2.38,0-4.31-1.93-4.31-4.31V57.37c0-3.84,4.64-5.76,7.36-3.05l68.35,68.35c2.71,2.72.79,7.36-3.05,7.36Z"/>
</svg>