<?xml version="1.0" encoding="UTF-8"?>
<svg id="Capa_1" data-name="Capa 1" xmlns="http://www.w3.org/2000/svg" viewBox="0 0 500 500">
  <defs>
    <style>
      .cls-1 {
        fill: #2b3052;
      }

      .cls-2 {
        fill: #c94828;
      }
    </style>
  </defs>
  <path class="cls-2" d="m92.25,171.54c6.35,98.06,12.7,196.13,19.05,294.19.16,1.59,1.15,9.83,8.47,15.87,7.19,5.93,15.3,5.45,16.93,5.32h234.93c2.17-.67,6.54-2.33,10.58-6.38,4.03-4.04,5.69-8.41,6.35-10.58l22.22-298.42H92.25Zm124.27,245.06c0,8.58-7.86,15.33-16.78,13.44-6.39-1.36-10.74-7.34-10.74-13.87,0-31.38,0-158.27,0-189.65,0-6.53,4.35-12.51,10.74-13.87,8.92-1.89,16.78,4.85,16.78,13.44v190.5Zm95.25,0c0,8.58-7.86,15.33-16.78,13.44-6.39-1.36-10.74-7.34-10.74-13.87,0-31.38,0-158.26,0-189.64,0-6.53,4.35-12.51,10.74-13.87,8.92-1.89,16.78,4.85,16.78,13.44v190.5Z"/>
  <path class="cls-1" d="m62,144.02h378.88v-39.53c-1.37-3.1-4.02-8-8.96-12.62-6.25-5.85-12.93-8.24-16.44-9.22H85.28c-2.98.91-9.87,3.44-15.71,10.06-5.14,5.83-6.91,11.92-7.57,14.91v36.41Z"/>
  <path class="cls-2" d="m330.82,57.22V20.62c0-5.49-4.45-9.95-9.95-9.95h-140.97c-5.49,0-9.95,4.45-9.95,9.95v36.41l.21.21h160.63l.02-.02Z"/>
</svg>