<?xml version="1.0" encoding="UTF-8"?>
<svg id="Capa_1" data-name="Capa 1" xmlns="http://www.w3.org/2000/svg" viewBox="0 0 500 500">
  <defs>
    <style>
      .cls-1 {
        fill: #e84721;
      }

      .cls-2 {
        fill: #223469;
        stroke: #223469;
        stroke-miterlimit: 10;
        stroke-width: 5px;
      }
    </style>
  </defs>
  <path class="cls-2" d="m168.13,56.31L19.93,203.77c-3.13,3.12-3.12,8.19.03,11.3,50.01,49.29,100.02,98.58,150.03,147.86,3.2,3.15,8.37,3.03,11.42-.27.7-.76,1.4-1.52,2.1-2.28,2.88-3.12,2.81-7.96-.18-10.98-44.48-45.05-88.96-90.09-133.44-135.14-3.08-3.12-3.05-8.15.07-11.24L183.82,70.66c3.56-3.52,3.02-9.4-1.11-12.22l-4.49-3.06c-3.15-2.15-7.38-1.76-10.08.93Z"/>
  <path class="cls-1" d="m462.15,244.53c-4.29-8.85-8.72-15.79-12.01-20.51-9.83-14.04-31.03-40.21-67.44-58.51-45.01-22.62-87.31-20.17-106.55-17.63.08-23.75.16-47.49.24-71.24.05-13.81-16.62-20.81-26.44-11.09-44.74,44.25-89.49,88.5-134.23,132.75-6.07,6-6.15,15.78-.19,21.89,44.44,45.48,88.87,90.96,133.31,136.44,9.71,9.94,26.58,3.1,26.63-10.8.08-22.41.15-44.83.23-67.24,13.18-.56,29.24.33,46.83,4.88,17.44,4.51,29.77,11.02,34.21,13.28,8.5,4.33,19.68,11.25,30.67,22.11,17.25,17.04,25.55,35.39,29.49,46.35,2.82,13.2,5.18,28.98,5.9,46.85.88,21.98-.97,41.18-3.54,56.63,1.04,4.15,4.24,7.36,8.26,8.26,5.08,1.14,8.97-1.97,9.44-2.36,11.75-23,37.71-78.9,40.11-142.75.81-21.55,1.63-53.12-14.93-87.32Z"/>
</svg>