<?xml version="1.0" encoding="UTF-8"?>
<svg id="Capa_1" data-name="Capa 1" xmlns="http://www.w3.org/2000/svg" viewBox="0 0 500 500">
  <defs>
    <style>
      .cls-1 {
        fill: #e84710;
        stroke: #fff;
        stroke-miterlimit: 10;
      }
    </style>
  </defs>
  <path class="cls-1" d="m289.03,181.65l108.22-110.7h-81.48c.04-12.48.07-24.97.11-37.45,48.34-.14,96.69-.27,145.03-.41v153.36c-12.79-.02-25.58-.05-38.37-.07.48-27.56.97-55.12,1.45-82.68l-106.94,108.22-28.01-30.27Z"/>
  <path class="cls-1" d="m210.04,181.65l-108.22-110.7h81.48c-.04-12.48-.07-24.97-.11-37.45-48.34-.14-96.69-.27-145.03-.41v153.36c12.79-.02,25.58-.05,38.37-.07-.48-27.56-.97-55.12-1.45-82.68l106.94,108.22,28.01-30.27Z"/>
  <g>
    <path class="cls-1" d="m209.51,315.26l-108.22,110.7h81.48c-.04,12.48-.07,24.97-.11,37.45-48.34.14-96.69.27-145.03.41v-153.36c12.79.02,25.58.05,38.37.07-.48,27.56-.97,55.12-1.45,82.68l106.94-108.22,28.01,30.27Z"/>
    <path class="cls-1" d="m288.49,315.26l108.22,110.7h-81.48c.04,12.48.07,24.97.11,37.45,48.34.14,96.69.27,145.03.41v-153.36c-12.79.02-25.58.05-38.37.07.48,27.56.97,55.12,1.45,82.68l-106.94-108.22-28.01,30.27Z"/>
  </g>
</svg>