<?xml version="1.0" encoding="UTF-8"?>
<svg id="Capa_1" data-name="Capa 1" xmlns="http://www.w3.org/2000/svg" viewBox="0 0 500 500">
  <defs>
    <style>
      .cls-1 {
        stroke-dasharray: 0 0 1.98 1.98;
      }

      .cls-1, .cls-2, .cls-3, .cls-4, .cls-5, .cls-6, .cls-7, .cls-8 {
        stroke-miterlimit: 10;
      }

      .cls-1, .cls-2, .cls-3, .cls-4, .cls-5, .cls-7 {
        stroke: #fff;
      }

      .cls-1, .cls-2, .cls-3, .cls-4, .cls-7, .cls-8 {
        fill: none;
      }

      .cls-9, .cls-5 {
        fill: #fff;
      }

      .cls-3 {
        stroke-dasharray: 0 0 1.99 1.99;
      }

      .cls-4 {
        stroke-dasharray: 0 0 1.99 1.99;
      }

      .cls-5, .cls-6 {
        stroke-width: 2px;
      }

      .cls-6 {
        stroke: #25346d;
      }

      .cls-6, .cls-10 {
        fill: #25346d;
      }

      .cls-11 {
        fill: #e84715;
      }

      .cls-7 {
        stroke-dasharray: 0 0 2 2;
      }

      .cls-8 {
        stroke: #e84719;
        stroke-width: 5px;
      }
    </style>
  </defs>
  <path class="cls-11" d="m400.52,201.1c-12.17-41.89-24.34-83.78-36.52-125.67H47.78L10.92,221.84h341.37c12.8-11.97,29.61-19.62,48.23-20.74Z"/>
  <g>
    <path class="cls-5" d="m330.42,333.16c-1.82-2.51-3.5-5.13-5.04-7.84-.04-.07-.09-.14-.13-.23-6.17-11.14-9.71-23.94-9.71-37.59,0-4.09.41-8.08,1.02-12L49.74,237.59v160.24h322.13c-13.82-21.55-27.64-43.11-41.45-64.68Z"/>
    <path class="cls-9" d="m338.51,231.98c-97.7,0-195.41,0-293.11,0,0,15.29.01,30.58.02,45.87,92.01-1.95,184.03-3.9,276.04-5.85.63-6.2,2.35-15.3,7.25-25.19,3.11-6.26,6.68-11.18,9.79-14.83Z"/>
  </g>
  <g>
    <line class="cls-2" x1="21.73" y1="181.25" x2="22.73" y2="181.25"/>
    <line class="cls-4" x1="24.72" y1="181.25" x2="390.35" y2="181.25"/>
    <line class="cls-2" x1="391.35" y1="181.25" x2="392.35" y2="181.25"/>
  </g>
  <g>
    <line class="cls-2" x1="130.09" y1="77.89" x2="129.97" y2="78.88"/>
    <line class="cls-3" x1="129.72" y1="80.85" x2="112.38" y2="218.07"/>
    <line class="cls-2" x1="112.26" y1="219.05" x2="112.13" y2="220.05"/>
  </g>
  <g>
    <line class="cls-2" x1="205.72" y1="77.89" x2="205.79" y2="78.89"/>
    <line class="cls-1" x1="205.91" y1="80.86" x2="214.81" y2="218.06"/>
    <line class="cls-2" x1="214.87" y1="219.05" x2="214.94" y2="220.05"/>
  </g>
  <g>
    <line class="cls-2" x1="286.08" y1="77.89" x2="286.24" y2="78.87"/>
    <line class="cls-7" x1="286.56" y1="80.85" x2="308.91" y2="218.07"/>
    <line class="cls-2" x1="309.07" y1="219.06" x2="309.23" y2="220.05"/>
  </g>
  <path class="cls-10" d="m411.45,207.54c-42.88,0-77.63,34.75-77.63,77.63,0,13.65,3.54,26.45,9.71,37.59.04.09.09.16.13.23,1.53,2.71,3.21,5.33,5.04,7.84,16.97,26.5,33.94,52.99,50.93,79.47,1.16,2.22,2.8,4.06,4.75,5.34,1.97,1.3,4.24,2.04,6.66,2.04,3.76,0,7.15-1.77,9.57-4.62.7-.83,1.32-1.75,1.84-2.76l53.4-81.76c8.36-12.38,13.23-27.3,13.23-43.36,0-42.88-34.75-77.63-77.63-77.63Zm.2,120.99c-24.93,0-45.13-20.2-45.13-45.13s20.2-45.13,45.13-45.13,45.13,20.22,45.13,45.13-20.2,45.13-45.13,45.13Z"/>
  <rect class="cls-6" x="187.76" y="283.44" width="102.1" height="69.96"/>
  <rect class="cls-6" x="79.99" y="269.03" width="71.85" height="117.7"/>
  <polyline class="cls-8" points="45.4 231.98 45.4 400.98 379.6 402.64"/>
</svg>