<?xml version="1.0" encoding="UTF-8"?>
<svg id="Capa_1" data-name="Capa 1" xmlns="http://www.w3.org/2000/svg" xmlns:xlink="http://www.w3.org/1999/xlink" viewBox="0 0 500 500">
  <defs>
    <style>
      .cls-1 {
        fill: url(#Degradado_sin_nombre_13);
      }

      .cls-2 {
        fill: url(#Degradado_sin_nombre_13-5);
      }

      .cls-3 {
        fill: url(#Degradado_sin_nombre_13-3);
      }

      .cls-4 {
        fill: url(#Degradado_sin_nombre_13-2);
      }

      .cls-5 {
        fill: url(#Degradado_sin_nombre_13-4);
      }
    </style>
    <linearGradient id="Degradado_sin_nombre_13" data-name="Degradado sin nombre 13" x1="239.41" y1="337.89" x2="358.64" y2="337.89" gradientUnits="userSpaceOnUse">
      <stop offset="0" stop-color="#00a23e"/>
      <stop offset="1" stop-color="#00893d"/>
    </linearGradient>
    <linearGradient id="Degradado_sin_nombre_13-2" data-name="Degradado sin nombre 13" x1="80.65" y1="234.78" x2="418.74" y2="234.78" xlink:href="#Degradado_sin_nombre_13"/>
    <linearGradient id="Degradado_sin_nombre_13-3" data-name="Degradado sin nombre 13" x1="18.13" y1="125.84" x2="481.87" y2="125.84" xlink:href="#Degradado_sin_nombre_13"/>
    <linearGradient id="Degradado_sin_nombre_13-4" data-name="Degradado sin nombre 13" x1="207.99" y1="448.25" x2="287.99" y2="448.25" xlink:href="#Degradado_sin_nombre_13"/>
    <linearGradient id="Degradado_sin_nombre_13-5" data-name="Degradado sin nombre 13" x1="137.31" y1="337.98" x2="263.27" y2="337.98" xlink:href="#Degradado_sin_nombre_13"/>
  </defs>
  <path class="cls-1" d="m321.19,313.95c-23.96-12.25-47.66-16.72-67.62-17.69,4.35,13.7-2.65,48.84-3.07,42.45-.87-13-2.17-26.36-6.12-38.87-1.14,2.82-2.7,5.57-4.12,8.8-.22.51-.51.93-.85,1.27.49,13.78,1.33,27.54,2.81,41.24,3.25-.26,6.59-.39,10.02-.36,33.36.3,60.27,15.57,77.73,28.75l28.68-39.08c-9.29-8.76-21.64-18.41-37.45-26.49Z"/>
  <path class="cls-4" d="m387.14,222.5c-34.26-24.67-68.76-34.53-91.78-38.84-15.09-2.88-30.75-4.41-46.82-4.41-67.29,0-127.52,26.6-167.89,68.51l27.9,38.39c35.81-33.63,84.53-54.32,138.22-54.32,4.23,0,8.42.14,12.58.4h0c22.32,1.6,59.47,7.59,96.75,31.43,13.51,8.64,24.47,17.97,33.19,26.67l29.45-40.14c-8.48-8.97-18.92-18.54-31.6-27.68Z"/>
  <path class="cls-3" d="m455.69,131.62c-28.83-29.62-60.27-45.32-81.91-53.7h0c-36.92-15.36-79.39-24.11-124.57-24.11-101.31,0-188.95,43.96-231.07,107.89l26.28,36.18c44.68-51.69,120.48-85.71,206.51-85.71,31.05,0,60.75,4.45,88.16,12.54h0c23.27,6.45,55.95,18.97,88.07,44.49,11.97,9.51,21.92,19.28,30.12,28.49l24.61-33.54c-6.77-10.24-15.35-21.39-26.18-32.52Z"/>
  <circle class="cls-5" cx="247.99" cy="448.25" r="40"/>
  <path class="cls-2" d="m174.76,314.04c8.67-4.43,24.71-11.64,46.19-15.34,17.1-2.95,31.77-2.66,42.32-1.71-3.68,17.93-7.36,35.86-11.03,53.79-3.26,0-6.6.11-10.02.36-31.76,2.32-57.61,15.44-76.23,28.48l-28.68-39.08c9.29-8.76,21.64-18.41,37.45-26.49Z"/>
</svg>