<?xml version="1.0" encoding="UTF-8"?>
<svg id="Capa_1" data-name="Capa 1" xmlns="http://www.w3.org/2000/svg" viewBox="0 0 500 500">
  <defs>
    <style>
      .cls-1 {
        fill: #242b51;
      }

      .cls-2 {
        fill: #d7d7d7;
      }

      .cls-3 {
        fill: #e84721;
      }
    </style>
  </defs>
  <path class="cls-1" d="m363.5,51.09s8.16-14.21,10.72-13.05,20.97,13.05,20.97,13.05l-6.76,15.85-26.1-13.42,1.17-2.42Z"/>
  <path class="cls-2" d="m318.68,130.55s36.42-72.94,40.97-71.31,26.67,14.45,26.67,14.45l-43.56,72.24s-25.63-10.95-25.4-12.35,1.31-3.03,1.31-3.03Z"/>
  <path class="cls-2" d="m310.15,360.1l-34.64,41.6-3.93,60.57,78.82-3.65v-57.14l-40.25-41.38Zm19.63,86.55h-38.09v-46.42h38.09v46.42Z"/>
  <polygon class="cls-2" points="399.37 123.02 399.37 374.09 428.43 354.04 451.49 354.04 480.55 374.09 480.55 116.51 457.5 90.51 433.44 84.43 404.88 104.48 399.37 123.02"/>
  <rect class="cls-2" x="97.45" y="191.84" width="233.86" height="137.82"/>
  <path class="cls-3" d="m250.89,407.81l52.57-53.14c1.96-1.98,5.14-2.02,7.15-.08l55.43,53.43c2.34,2.25,1.99,6.1-.71,7.9h0c-2.03,1.35-4.73,1.08-6.44-.66-15.56-15.77-31.12-31.54-46.68-47.32-2-2.03-5.28-2.02-7.27.03-15.37,15.8-30.74,31.59-46.11,47.39-1.65,1.7-4.25,2.03-6.28.81l-.68-.41c-2.82-1.7-3.31-5.59-.99-7.94Z"/>
  <polygon class="cls-3" points="343.13 396.08 343.13 456.65 274.53 456.65 274.53 396.08 263.59 396.08 263.59 465.41 352.4 465.41 352.4 396.08 343.13 396.08"/>
  <path class="cls-1" d="m94.01,185.9v150.34h245.94v-150.34H94.01Zm237.3,140.58H103.23v-129.9h228.08v129.9Z"/>
  <rect class="cls-1" x="135.71" y="222.54" width="71.69" height="10.28" transform="translate(399.25 56.12) rotate(90)"/>
  <path class="cls-1" d="m187.06,191.84v45.15h62.94v-45.15h-62.94Zm52.18,35.85h-40.14v-32.29h40.14v32.29Z"/>
  <polygon class="cls-1" points="53.9 377.89 53.9 240.19 43.62 240.19 43.62 388.05 48.76 388.05 48.76 388.17 191.49 388.17 191.49 377.89 53.9 377.89"/>
  <rect class="cls-1" x="53.9" y="256.69" width="18.21" height="10.95"/>
  <rect class="cls-1" x="53.9" y="281.87" width="18.21" height="10.95"/>
  <rect class="cls-1" x="53.9" y="307.05" width="18.21" height="10.95"/>
  <rect class="cls-1" x="53.9" y="333.23" width="18.21" height="10.95"/>
  <rect class="cls-1" x="53.9" y="358.4" width="18.21" height="10.95"/>
  <rect class="cls-1" x="96.21" y="363.88" width="18.21" height="10.95" transform="translate(-264.03 474.67) rotate(-90)"/>
  <rect class="cls-1" x="121.3" y="363.51" width="18.21" height="10.95" transform="translate(-238.58 499.39) rotate(-90)"/>
  <rect class="cls-1" x="146.57" y="363.64" width="18.21" height="10.95" transform="translate(-213.44 524.79) rotate(-90)"/>
  <g>
    <rect class="cls-1" x="264.88" y="191.84" width="10.28" height="45.15"/>
    <rect class="cls-1" x="264.88" y="263.53" width="10.28" height="66.12"/>
  </g>
  <g>
    <rect class="cls-1" x="99.59" y="285.1" width="17.97" height="10.28"/>
    <rect class="cls-1" x="135.88" y="285.1" width="101.53" height="10.28"/>
  </g>
  <rect class="cls-3" x="380.38" y="435.27" width="64.16" height="11.61"/>
  <g>
    <path class="cls-3" d="m486.53,388.17v-250.78c.44-2.58.67-5.23.67-7.94,0-26.09-21.15-47.25-47.25-47.25-24.28,0-44.27,18.31-46.93,41.88v-8.97h-27.07l-6.31,10.93h33.2c-.08,1.13-.14,2.26-.14,3.4,0,2.71.24,5.36.67,7.95v250.77h8.53c4.17-16.27,18.8-28.29,36.21-28.29,20.66,0,37.41,16.93,37.41,37.81s-15.77,36.8-35.58,37.76v.05h-30.49c8.23,6.96,18.87,11.17,30.49,11.17,26.09,0,47.25-21.15,47.25-47.25,0-3.88-.48-7.64-1.36-11.24h.68Zm-46.57-36c-15.92,0-30,7.88-38.56,19.96v-240.41h-.44c-.14-1.31-.24-2.64-.24-3.99,0-20.88,16.75-37.81,37.41-37.81s37.41,16.93,37.41,37.81c0,.98-.04,1.95-.12,2.91.4.3.73.67,1,1.09v237.66c-8.67-10.51-21.78-17.21-36.47-17.21Z"/>
    <path class="cls-3" d="m14.48,446.88h247.88v-10.19c0-.43.05-.83.13-1.2H24.63V126.04h290.14c.11-.25.21-.5.35-.74l5.88-10.18H14.48v331.76Z"/>
    <rect class="cls-3" x="353.54" y="435.49" width="39.49" height="11.39"/>
  </g>
  <rect class="cls-3" x="373.28" y="115.12" width="26.09" height="5.56"/>
  <path class="cls-3" d="m397.11,46.54l-21.19-12.23c-3.46-2-7.89-.81-9.88,2.65l-50.92,88.19c-.87,1.5-1.13,3.18-.88,4.77l-.1-.05-6.3,46.83,39.02-29.88c.06-.04.11-.08.16-.12h0c.71-.56,1.33-1.25,1.81-2.08l50.92-88.19c2-3.46.81-7.89-2.65-9.88Zm-78.43,113.73l1.4-17.07,12.23,7.63-13.63,9.44Zm21.85-17.07l-17.89-10.33,39.64-68.67,17.89,10.33-39.64,68.67Zm45.41-78.65l-17.89-10.33,6.78-11.75,17.89,10.33-6.78,11.75Z"/>
  <path class="cls-1" d="m289.4,400.46v46.42h38.09v-46.42h-38.09Zm27.46,35.03h-18.24v-24.08h18.24v24.08Z"/>
</svg>